<svg xmlns="http://www.w3.org/2000/svg" xmlns:xlink="http://www.w3.org/1999/xlink" width="460" height="460" viewBox="0 0 460 460">
  <defs>
    <style>
      .cls-1 {
        clip-path: url(#clip-explosion-1_6);
      }

      .cls-2 {
        fill: #a1a0a2;
      }

      .cls-3 {
        fill: #ffd35a;
      }

      .cls-4 {
        fill: #846553;
      }

      .cls-5 {
        fill: #ffffb5;
      }

      .cls-6 {
        fill: #ffd468;
      }

      .cls-7 {
        fill: #7d7c7c;
      }

      .cls-8 {
        fill: #7f7c79;
      }
    </style>
    <clipPath id="clip-explosion-1_6">
      <rect width="460" height="460"/>
    </clipPath>
  </defs>
  <g id="explosion-1_6" class="cls-1">
    <path id="Pfad_45" data-name="Pfad 45" class="cls-2" d="M10799.027,1772.542c9.569-7.249,14.764-6.661,26.379-6.661s12.726,4.242,17.9,4.805,7.439-1.789,13.984,0,10.107,6.727,12.2,7.158,10.82-6.727,21.375-3.877,16.934,11.135,20.844,15.277,41.093,3.413,41.093,3.413,6.769-10.149,18.16-11,23.86,7.423,26.146,7.589,8.517-7.39,18.293-10.737,13.86-4.266,25.616,1.425,16.785,11.532,21.508,23.761-2.85,19.32-2.618,25.153,8.616,10.24,7.522,20.414-11.764,18.724-11.9,20.281,7.357,8.392,9.81,19.055,0,18.856,0,23.6,3.181,4.341,3.181,9.511-3.712,22.849-4.507,30.952,26.909-.265,34.729,30.09,2.188,31.747,2.188,31.747-3.464,19.42-18.426,27.969-38.177,3.745-41.424,6.23-2.659,11.226-9.875,14.548-15.277-1.193-19.254,0a35.291,35.291,0,0,0-21.606,17.862c-6.462,12.7,12.194,22.9-7.424,36.585s-37.447-3.479-40.3-6.694-6.694,1.16-8.152,3.811,1.724,24.39-15.31,35.989-42.717-1.79-46.4-5.833-10.206-.166-16.734-4.573-6.4-9.677-9.379-13.057-26.048-10.273-30.819-10.141-15.27,6.081-26.909,2.784-16.163-6.214-21.076-18.193,1.326-25.849,1.425-29.726-25.814-3.281-29.526-24.622,16.172-30.952,16.3-33.868-15.775-8.666-20.646-20.049,1.193-22.071,1.16-25.484-23.827-4.64-32.443-19.154-6.586-24.54-1.192-38.972,22.766-18.757,22.766-18.757,13.024.331,15.775,0-.6-21.623,5.6-32.874,16.7-8.384,19.188-12.129-.563-9.718,5.2-14.946,14.449-1.06,17.861-5.965-4.78-15.194-2.353-28.367S10789.458,1779.792,10799.027,1772.542Z" transform="translate(-10664.482 -1735)"/>
    <path id="Pfad_38" data-name="Pfad 38" class="cls-3" d="M10846.068,1885.458c-4.049,1,.748,16.463-6.069,25.047s-26.046,17.457-22.87,20.6,15.487,8.826,14.76,17.092-13.14,18.581-7.186,23.113,3.633,8.021,11.256,11.6,7.952,1.5,18.686,0,16.42-8.722,27.774-5.807,6.6,10.084,17.926,16.665,19.885,6.3,36.612,5.3,18.054-4.633,26.26-8.332,3.734-11.7,6.2-20.582.586-3.077,5.7-13.918,14.875-24.252,12.35-31.511-14.949-8.232-23.6-18.837-8.854-21.572-11.63-22.645-12.161,3.476-21.692-.816-13.025-14.781-16.562-16.107-10.669,6.944-22.221,9.784-22.724-.884-23.986,1.578,4.292,10.415,1.515,12.625S10850.117,1884.461,10846.068,1885.458Z" transform="translate(-10664.482 -1735)"/>
    <path id="Pfad_37" data-name="Pfad 37" class="cls-4" d="M10938.564,1971.748s-7.291-13.138-4.281-23.991,16.55-18.733,16.55-18.733-17.642-1.221-27.353-8.275-10.43-19.624-10.43-19.624-1.466,4.31-7.126,5.746-15.516,0-15.516,0-1.148,7.5-7.5,10.545-17.9,1.638-17.9,1.638,3.34,11.493,1.925,19.423a20.709,20.709,0,0,1-7.584,12.3s8.85,4.288,12.642,10.66,2.527,14.825,2.527,14.825,6.925-1.954,15.889,2.069,21.234,0,21.234,0,4.3-7.2,11.032-8.849S10938.564,1971.748,10938.564,1971.748Z" transform="translate(-10664.482 -1735)"/>
    <path id="Pfad_39" data-name="Pfad 39" class="cls-5" d="M10856.544,1809.995c-1.074.062-11.224,21.66-24.134,24.488,0,0-2.006,16.747-8.687,23.715,0,0-12.105,5.062-18.035,4.155,0,0-.736,9.037-5.3,13.018,0,0,6.521,6.507,2.729,22.367,0,0,2.528,35.915-11.924,47.208,0,0,8.339,9.939,9.9,17.151s-2.115,27.5-1.655,43.012c0,0,8.045-.919,21.1,17.745,0,0-3.625-13.316,0-23.261s15.83-13.868,12.559-17.581c0,0-5.511-7.922-9.9-13.847,0,0-.546-2.192,8.022-17.017,0,0,5.3-8.772-14.592-20.946,0,0,24.725-17.51,26.046-24.5,0,0,2.249-19.176,3.27-19.925s20.639,5.373,22.131,4.9c0,0,4.306,1.343,0-13.262,0,0,22.632,4.047,45.069-11.221,0,0,5.963,12.088,15.7,16.424s22.917-.63,23.938.917,2.04,23.309,35.295,41.466c0,0,.741-32.189,7.623-46.18s26.548-18.433,26.548-18.433l-3.03-6.817s-1.442,3.282-7.322,0-9.252-11.3-16.2-13.13-4.96,4.355-11.579,5.807-12.372-7.792-14.9,0,8.269,21.844,4.8,31.166-18.684,6.12-18.684,6.12-16.981-5.556-24.493-13.552-5.555-18.432-5.555-18.432l-8.838-3.535v-13.531l-7.575-5.406s-17.068,16.133-30.151,11.362S10857.618,1809.933,10856.544,1809.995Z" transform="translate(-10664.482 -1735)"/>
    <path id="Pfad_40" data-name="Pfad 40" class="cls-6" d="M10923.444,1999.6s11.673,14.849,9.4,28-18.5,24.594-18.5,24.594c1.609,19.882-7.01,25.169-6.206,31.72s5.372-4.9,12.183-6.867,8.378-3.017,13.633-1.977,5.43,4.16,8.548,4.16,5.977-1.954,2.185-4.942-7.816-5.631-7.931-15.63,9.8-9.468,12.067-14.6-1.481-8.469,3.214-16.463,8.249-5.843,13.173-13.064,2.591-8.509,8.045-17.151,11.144-5.846,13.77-17.416-4.684-20.969-.089-33.7,15.647-14.432,16.277-19.56-12.8-26.259-12.8-26.259l-2.632,26.713-18.587,36.176c-.116.064-3.533,11.4-3.533,11.4l1.149,12.412-2.328,16.147-15.658,22.066-8.39-1.954-11.033-23.8Z" transform="translate(-10664.482 -1735)"/>
    <path id="Pfad_41" data-name="Pfad 41" class="cls-5" d="M10929.607,1999.6l37.04-11.2-2.2,14.92-15.836,22.338-8.4-2.282Z" transform="translate(-10664.482 -1735)"/>
    <path id="Pfad_42" data-name="Pfad 42" class="cls-5" d="M10973.2,1957.9c2.864,2.262,3.4,12.842,2.615,20.14s-2.589,8.2-5.021,6.643-4.708-12.868-4.708-12.868S10970.338,1955.642,10973.2,1957.9Z" transform="translate(-10664.482 -1735)"/>
    <path id="Pfad_43" data-name="Pfad 43" class="cls-3" d="M10820.675,2022.854c1.194-.616,10.123,4.608,11.206,11.523s-4.894,7.4-6.873,16.136,2.765,14.044,1.2,18.825-3.549,2.988-7.321,0-2.988-6.424-6.723-8.217-10.458-1.793-12.251-2.092-8.4-2.5-3.735-9.711,11.43-8.624,17.779-14.941S10819.48,2023.47,10820.675,2022.854Z" transform="translate(-10664.482 -1735)"/>
    <path id="Pfad_44" data-name="Pfad 44" class="cls-3" d="M10799.4,2005.177l-21.795,11.109,16.8-32.71-23.074-36,4.686-6.63,15.913-7.249s.09-10.344.531-10.432,5.657-13.88,5.657-13.88l-8.575-32.953s5.872-5.654,11.52,0,2.095,20.864,2.095,20.864.938,17.279-2.037,29.263a41.849,41.849,0,0,1-9.86,18.675s9.312,11.836,9.86,18.738c.349,4.39-.674,19.392-1.312,30.374C10799.466,2000.16,10799.4,2005.177,10799.4,2005.177Z" transform="translate(-10664.482 -1735)"/>
    <path id="Pfad_46" data-name="Pfad 46" class="cls-7" d="M10709.4,1902.722c-14.386,16.669,21.276,53.946,23.364,54.377s38.943-.718,14.3,14.561,30.743,21.9,29.5,32.345-27.571.395-31.166,27.3,40.083,13.032,43.518,31.932,36.261,17.621,32.243,20.869,29.213-7.678,36.123,3.445,27.122,18.118,43.117,20.179,3.569-11.412,14.766-14.888,31.267-5.832,31.5,0,20.673-41.343,20.673-41.343,23.866-26.824,29.76-25.84,18.715-22.148,24.621-21.656,24.117,14.765,24.117,14.765,16.61,1.107,27.561-5.207,10.892-14.119,16.242-20.049,1.276-41.126,9.1-10.77,2.188,31.747,2.188,31.747-3.464,19.42-18.426,27.969-38.177,3.745-41.424,6.23-2.659,11.226-9.875,14.548-15.277-1.193-19.254,0a35.291,35.291,0,0,0-21.606,17.862c-6.462,12.7,12.194,22.9-7.424,36.585s-37.447-3.479-40.3-6.694-6.694,1.16-8.152,3.811,1.724,24.39-15.31,35.989-42.717-1.79-46.4-5.833-10.206-.166-16.734-4.573-6.4-9.677-9.379-13.057-26.048-10.273-30.819-10.141-15.27,6.081-26.909,2.784-16.163-6.214-21.076-18.193,1.326-25.849,1.425-29.726-25.814-3.281-29.526-24.622,16.146-30.891,16.278-33.807-15.749-8.726-20.62-20.11,1.193-22.071,1.16-25.484-23.827-4.64-32.443-19.154-6.586-24.54-1.192-38.972S10723.785,1886.052,10709.4,1902.722Z" transform="translate(-10664.482 -1735)"/>
    <path id="Pfad_47" data-name="Pfad 47" class="cls-7" d="M10852.729,2083.688c7.291,2.386,10.736-11.93,6.362-16.7s-13.256-10.6-17.1-19.618,11.532-12.063,10.737-18.293-35.524-9.279-31.681-30.223c0,0-4.275,11.466-.929,19.751s12.759,5.468,14.316,15.509-6.728,6.694-7.556,19.088,4.242,30.488,4.242,30.488S10845.438,2081.3,10852.729,2083.688Z" transform="translate(-10664.482 -1735)"/>
    <path id="Pfad_48" data-name="Pfad 48" class="cls-8" d="M10912.546,2054c-3.183-1.723-21.739,18.326-23.065,27.042s14.715,5.7,16.438,4.242S10915.729,2055.719,10912.546,2054Z" transform="translate(-10664.482 -1735)"/>
    <path id="Pfad_49" data-name="Pfad 49" class="cls-7" d="M10974.2,2004.031c0,3.808,10.138,9.465,8.065,14.561s-18.146,0-18.146,0S10974.2,2000.222,10974.2,2004.031Z" transform="translate(-10664.482 -1735)"/>
  </g>
</svg>
