<svg xmlns="http://www.w3.org/2000/svg" xmlns:xlink="http://www.w3.org/1999/xlink" width="460" height="460" viewBox="0 0 460 460">
  <defs>
    <style>
      .cls-1 {
        clip-path: url(#clip-explosion-1_11);
      }

      .cls-2 {
        fill: #8e8d8c;
      }

      .cls-3 {
        fill: #8f8e8d;
      }

      .cls-4 {
        fill: #8b8a8a;
      }

      .cls-5 {
        fill: #7d7c7c;
      }

      .cls-6 {
        fill: #7d7c7b;
      }

      .cls-7 {
        fill: #8d8c8c;
      }

      .cls-8 {
        fill: #8e8d8d;
      }
    </style>
    <clipPath id="clip-explosion-1_11">
      <rect width="460" height="460"/>
    </clipPath>
  </defs>
  <g id="explosion-1_11" class="cls-1">
    <path id="Pfad_115" data-name="Pfad 115" class="cls-2" d="M20657.25,2061.6c.859-.859,3.8-7.3,1.963-13.256s-3.9-8.1-9.082-8.469-8.406.429-10.924,5.4-1.658,10.617,3.436,14.852S20656.391,2062.46,20657.25,2061.6Z" transform="translate(-20614.482 -1735)"/>
    <path id="Pfad_116" data-name="Pfad 116" class="cls-3" d="M20629.879,1918.85c5.77-.737,4.049-7.978,4.049-7.978s5.248-5.554,3.684-9.7-3.684-7.487-9.943-6.874-5.77,0-9.328,6.874,3.438,9.7,3.438,9.7S20624.109,1919.587,20629.879,1918.85Z" transform="translate(-20614.482 -1735)"/>
    <path id="Pfad_117" data-name="Pfad 117" class="cls-4" d="M20655.654,1841.644c6.75,4.664,9.82-5.4,9.82-5.4s6.842.614,8.223-3.437.922-9.267-2.822-11.538a10.857,10.857,0,0,0-12.152,1.227c-3.068,2.7,0,8.347,0,8.347S20648.9,1836.98,20655.654,1841.644Z" transform="translate(-20614.482 -1735)"/>
    <path id="Pfad_118" data-name="Pfad 118" class="cls-2" d="M20679.221,1822.374c6.383,5.523,8.592-4.173,8.592-4.173s10.066-3.191,4.543-8.224-7.857,3.682-7.857,3.682S20672.838,1816.85,20679.221,1822.374Z" transform="translate(-20614.482 -1735)"/>
    <path id="Pfad_122" data-name="Pfad 122" class="cls-2" d="M21017.748,1778.431s-8.959-7.487,0-13.625,13.5,7.119,13.5,7.119,14.115,2.578,15.342,13.256-7.855,13.625-7.855,13.625,1.105,11.047-7.486,11.906-7.488-10.556-7.488-10.556-7.578-3.406-9.082-8.838S21017.748,1778.431,21017.748,1778.431Z" transform="translate(-20614.482 -1735)"/>
    <path id="Pfad_123" data-name="Pfad 123" class="cls-5" d="M21017.748,1764.807c8.959-6.137,13.5,7.119,13.5,7.119s14.115,2.578,15.342,13.256-7.855,13.625-7.855,13.625,1.105,11.047-7.486,11.906-7.488-10.556-7.488-10.556,13.129-6.511,10.924-12.029C21031.143,1779.267,21012.068,1768.7,21017.748,1764.807Z" transform="translate(-20614.482 -1735)"/>
    <path id="Pfad_124" data-name="Pfad 124" class="cls-2" d="M21033.7,1888.777c6.137,1.227,6.5-6.383,6.5-6.383s8.377-4.818,7.488-9.942-5.646-10.065-11.416-9.7-7.334,5.063-8.469,9.7,4.3,7.978,4.3,7.978S21027.559,1887.55,21033.7,1888.777Z" transform="translate(-20614.482 -1735)"/>
    <path id="Pfad_125" data-name="Pfad 125" class="cls-2" d="M21034.309,1953.217c-5.062-2.117-7.58-4.05-7.365-9.7s2.455-11.415,8.592-12.52,13.043,2.854,15.957,8.1-.094,9.267-4.3,12.888S21039.371,1955.335,21034.309,1953.217Z" transform="translate(-20614.482 -1735)"/>
    <path id="Pfad_126" data-name="Pfad 126" class="cls-5" d="M21034.309,1953.217c-1.566-.655,1.49-1.746,3.314-4.91,2.227-3.874,4.387-10.253,8.346-11.906,1.814-.763,4.8,1.4,5.523,2.7,2.914,5.247-.094,9.267-4.3,12.888S21039.371,1955.335,21034.309,1953.217Z" transform="translate(-20614.482 -1735)"/>
    <path id="Pfad_127" data-name="Pfad 127" class="cls-2" d="M21041.928,2027.478c-.736-6.137,1.75-12.428,7.242-13.256s13.992,3.805,14.729,9.942-4.7,11.2-10.187,12.029A10.073,10.073,0,0,1,21041.928,2027.478Z" transform="translate(-20614.482 -1735)"/>
    <path id="Pfad_128" data-name="Pfad 128" class="cls-5" d="M21063.9,2024.164c.736,6.137-4.7,11.2-10.187,12.029-1.838.277-7.33-.613-6.014-3.191.629-1.245,7.439-3.817,8.961-5.523,1.172-1.315-1.562-9.307,0-10.311C21060.34,2015.94,21063.713,2022.622,21063.9,2024.164Z" transform="translate(-20614.482 -1735)"/>
    <circle id="Ellipse_16" data-name="Ellipse 16" class="cls-2" cx="11" cy="11" r="11" transform="translate(336.518 389)"/>
    <path id="Pfad_129" data-name="Pfad 129" class="cls-6" d="M22,11A11,11,0,0,1,11,22c-2.88,0-9.43-4.739,0-10.139C17.773,6.46,22,7.8,22,11Z" transform="translate(336.518 389)"/>
    <path id="Pfad_130" data-name="Pfad 130" class="cls-2" d="M20838.287,2186.382c-2.713-2.912-2.234-8.736,0-11.648s5.426.718,8.936,0,3.828-4.229,5.105-2.872.8,4.667,0,8.3.318,4.667-3.191,6.223S20841,2189.294,20838.287,2186.382Z" transform="translate(-20614.482 -1735)"/>
    <ellipse id="Ellipse_17" data-name="Ellipse 17" class="cls-2" cx="9" cy="9.5" rx="9" ry="9.5" transform="translate(186.518 421)"/>
    <ellipse id="Ellipse_18" data-name="Ellipse 18" class="cls-7" cx="8.5" cy="8" rx="8.5" ry="8" transform="translate(78.518 361)"/>
    <path id="Pfad_131" data-name="Pfad 131" class="cls-7" d="M20724.129,2132.34c-4.014,2.242-12.037,3.139-16.617-1.039s-3.068-10.079-.756-14.446,9.467-2.6,14.541-.472,4.814,7.742,4.814,7.742S20728.143,2130.1,20724.129,2132.34Z" transform="translate(-20614.482 -1735)"/>
    <path id="Pfad_132" data-name="Pfad 132" class="cls-5" d="M20724.129,2132.34c-4.014,2.242-12.037,3.139-16.617-1.039-1.273-1.161-3.318-8.714-.943-8.97,2.422-.266,5.629,4.5,9.912,6.893C20720.59,2131.519,20725.637,2131.5,20724.129,2132.34Z" transform="translate(-20614.482 -1735)"/>
    <path id="Pfad_133" data-name="Pfad 133" class="cls-5" d="M20657.25,2061.6c.473-.472-3.336-8.118-8.342-13.175-3.691-3.73-8.568-5.387-9.7-3.15-2.518,4.971-1.658,10.617,3.436,14.852S20656.391,2062.46,20657.25,2061.6Z" transform="translate(-20614.482 -1735)"/>
    <path id="Pfad_119" data-name="Pfad 119" class="cls-8" d="M20752.867,1764.93c4.3,1.013,8.961-4.787,8.961-4.787s7,.736,6.75-4.91-6.75-4.051-6.75-4.051-6.014-5.4-10.311-4.173a9.037,9.037,0,0,0-6.875,9.083C20744.643,1760.572,20748.57,1763.917,20752.867,1764.93Z" transform="translate(-20614.482 -1735)"/>
    <path id="Pfad_121" data-name="Pfad 121" class="cls-8" d="M20898.809,1751.919s-1.227,8.838,4.051,10.556,9.7.368,11.66-5.646-6.26-8.715-6.26-8.715,1.475-7.365-1.84-9.819-7.273-3.682-10.557-.982-3.742,7-2.945,10.8S20898.809,1751.919,20898.809,1751.919Z" transform="translate(-20614.482 -1735)"/>
    <circle id="Ellipse_15" data-name="Ellipse 15" class="cls-2" cx="8" cy="8" r="8" transform="translate(176.518 9)"/>
    <path id="Pfad_120" data-name="Pfad 120" class="cls-5" d="M20761.828,1751.182s-6.014-5.4-10.311-4.173a9.037,9.037,0,0,0-6.875,9.083c0,2.545,5.111,3.744,10.188,1.473C20758.188,1756.064,20761.828,1751.182,20761.828,1751.182Z" transform="translate(-20614.482 -1735)"/>
  </g>
</svg>
