<svg xmlns="http://www.w3.org/2000/svg" xmlns:xlink="http://www.w3.org/1999/xlink" width="460" height="460" viewBox="0 0 460 460">
  <defs>
    <style>
      .cls-1 {
        clip-path: url(#clip-explosion-1_5);
      }

      .cls-2 {
        fill: #a1a0a2;
      }

      .cls-3 {
        fill: #fffe98;
      }

      .cls-4 {
        fill: #ffd25c;
      }

      .cls-5 {
        fill: #7d7c7c;
      }

      .cls-6 {
        fill: #ffcf64;
      }

      .cls-7 {
        fill: #7d7d7c;
      }
    </style>
    <clipPath id="clip-explosion-1_5">
      <rect width="460" height="460"/>
    </clipPath>
  </defs>
  <g id="explosion-1_5" class="cls-1">
    <path id="Pfad_32" data-name="Pfad 32" class="cls-2" d="M8857.554,1781.625c4.173-2.332,52.9,41.733,54.989,45.292s10.484-4.286,19.938-3.611,10.747,7.539,18.112,6.066,6.148-14.546,21.6-18.166,25.315,3.391,40.628,1.6,17.921-10.189,20.621-8.777-5.155,13.092-5.155,19.281,15.7,14.666,13.574,28.6a84.249,84.249,0,0,1-1.494,14.021c-.354,8.673-9.481,11.351-2.383,16.96s11.458,13.894,11.462,26.08-.551,19.557-.689,22.612,4.548,3.169,5.861,9.654-4.729,13.515-2.273,16.952,16.757,5.34,16.984,7.585,9.479,4.132,7.585,8.562-8.533,5.085-11.952,13.446,1.041,11.751-5.977,22.985-9.3,15.472-22.21,21.491-26.022-3.478-26.347,3.39-19.163,13.447-20.687,18.733-3.565,19.229-12.987,28.674-25.965,9.51-25.965,9.51,11.476,41.7,9.847,41.633c-2.988-.115-16.435-47.005-21.491-45.167s-27.088,14.625-40.168,15.458-19.116-9.3-22.209-9.079c-24.021,8.275-19.215-1.732-30.4-8.045-5.151-2.907-15.705.156-25.238-7.613-28.8-23.473-13.239-25.465-18.768-29.349s-47.515,9.26-47.96,8.217c-.458-1.073,22.838-20.34,26.432-28.316s-.293-10.2,1.6-15.238,3.035-3.894,7.855-6-3.833-7.191-8.653-12.976,6.274-18.265,3.437-21.7-10.523-3.782-21.216-17.63-4.383-32.3,5.935-46.625,24.582-9.626,24.731-17.1,3.254-8.679,4.236-13.466,10.188-5.278,13.122-8.592.083-10.084,3.939-14.729,10.188-2.823,11.485-3.851-5.89-23.21,1.034-34.691,24.712-14.351,33.975-10.467S8853.381,1783.957,8857.554,1781.625Z" transform="translate(-8674.482 -1735)"/>
    <path id="Pfad_24" data-name="Pfad 24" class="cls-3" d="M8857.554,1781.625c4.173-2.332,52.9,41.733,54.989,45.292s10.484-4.286,19.938-3.611,10.747,7.539,18.112,6.066,6.148-14.546,21.6-18.166,25.315,3.391,40.628,1.6,17.921-10.189,20.621-8.777-5.155,13.092-5.155,19.281,13.244,10.955,11.115,24.89-20.17,28.972-19.632,30.85,11.115-1.767,18.214,3.842,7.729,12.854,7.732,25.04-7.578,20.649-7.717,23.7,13.031,4.425,14.345,10.91-9.328,12.765-6.873,16.2,23.848,8.152,24.075,10.4-15.487.09-24.075,6.05-8.646,16.92-10.276,17.788-7.6-1.11-18.814,5.9c-6.215,3.884-5.947,11.287-10.187,15.343-3.02,2.887-13.747,3.314-17.8,12.4s-11.328,4.443-14.2,5.272-1.788,16.214-9.414,22.086-16.913,1.562-20.743,1.721-5.251,6.772-11.561,6.342-9.552-7.869-13.676-8.063-9.164,14.884-18.8,14.008-16.857-17-19.758-17.513-4.568,14.722-10.879,15.6-6.223-8.616-13.084-10.372-22.18,4.149-29.041,0-15.638-20.584-19.564-22.4-39.156,14.745-39.614,13.672,9.185-8.689,12.778-16.664-.293-10.2,1.6-15.238,3.035-3.894,7.855-6,12.029-.859,11.426-2.417-15.32-10.211-20.141-15.995,28.477-14.361,27.5-18.01-33.38-6.684-44.072-20.531-5.53-27.655,4.787-41.978,32.159-9.942,34.491-14.484-6.506-11.292-5.523-16.079,10.188-5.278,13.122-8.592.083-10.084,3.939-14.729,10.188-2.823,11.485-3.851-5.89-23.21,1.034-34.691,16.177-11.965,23.444-11.415S8853.381,1783.957,8857.554,1781.625Z" transform="translate(-8674.482 -1735)"/>
    <path id="Pfad_31" data-name="Pfad 31" class="cls-4" d="M8852.726,2043.348c-2.356-2.414-1.063-13.181-8.045-23.9s-19.106-13.332-19.882-18.992,6.752-12.01,6.436-17.814-8.446-8.5-8.418-13.849,4.941-4.4,6-13.3c.593-4.961-3.18-16.148-3.362-24.824-.133-6.343,5.172-10.229,5.172-10.229s7.521,3,11.148-2.413.459-16.521,3.361-19.25,11.492-1.724,11.492-1.724,4.454-3.017,7.557-15.544,9.827-21.757,26.664-25.744,23.732,7.118,36.518,7.355,10.4-6.033,14.625-6.407,6.637,9.51,10.229,9.654.173-6.034,10.774-7.729,21.11-4.374,30.915,1.379,8.3,21.635,8.3,21.635a73.085,73.085,0,0,1,1.493,14.481c0,7.9-4.137,6.982-1.493,15.544s9.051,7.98,12.067,16.98-7.19,8.16-2.4,16.219,21.928,12.446,21.563,16.018-8.377,2.627-10.2,6.227,6.434,4.917,2.981,16.949-2.753,5.034-11.443,14.137-10.1,14.544-20.126,19.97-14.447-2.081-22.284,2.145-5.82,13.836-9.063,14.758-10.588-5.948-20.859-4.367-14.973,11.619-20.227,10.688-5.883-4.31-10.832-4.482-3.534,2.672-8.965,3.793a34.434,34.434,0,0,1-12.757.689c-4.568-.517-3.828-2.644-13.065-2.156S8855.082,2045.761,8852.726,2043.348Z" transform="translate(-8674.482 -1735)"/>
    <path id="Pfad_22" data-name="Pfad 22" class="cls-5" d="M8898.3,1855.768c27.345.456,26.432,25.977,30.534,28.256s12.078-5.583,20.509-2.734,8.089,10.6,13.216,14.128,7.861,2.848,7.292,0-7.747-7.178-9.57-11.393,3.418.114,2.278-5.469-12.3-6.836-6.836-16.862,4.33-1.823,14.128-1.823,15.494-5.469,25.065,1.823,5.014,22.331,5.014,22.331,3.76,9.912,0,14.128-15.039,1.367-15.039,2.734,10.482,7.406,12.3,16.407-5.014,19.6-5.014,19.6-1.14,9.684,2.734,16.407,4.1,4.671,12.761,10.482,16.863.456,19.142,12.761-10.482,18.685-10.482,18.685-7.747,23.7-31.445,25.066-34.181-31.446-35.548-25.066-15.951.456-20.509,3.19-1.139,20.736-11.393,28.712-18.686,3.646-27.345,2.734-18.686,6.38-23.7-2.734,2.278-15.5,0-16.862-21.42-2.734-27.8-18.229,10.938-31.9,10.938-31.9a30.971,30.971,0,0,1,0-25.066c5.925-13.672,25.521-23.243,25.521-23.243s-11.85-19.141-8.659-27.8S8870.951,1855.312,8898.3,1855.768Z" transform="translate(-8674.482 -1735)"/>
    <path id="Pfad_23" data-name="Pfad 23" class="cls-2" d="M8898.3,1855.768c27.345.456,26.432,25.977,30.534,28.256s12.078-5.583,20.509-2.734,8.089,10.6,13.216,14.128,7.861,2.848,7.292,0-7.747-7.178-9.57-11.393,3.418.114,2.278-5.469-11.046-5.279-5.577-15.3,3.581-1.557,13.379-1.557,13.136-6.594,22.707.7-9.879,14.309-8.837,23.2,17.921.491,17.307,7.856-18.046,1.115-20.007,9.083,8.733,18.494,10.556,27.495-14.116,20.621-12.766,27,31.23,5.675,35.1,12.4-.675,10.924-7.855,14.361-17.5-9.973-15.22,2.332-8.1,10.188-8.1,10.188-26.021-23.444-28.23-23.935-9.189-.857-10.557,5.523-26.128-8.258-30.686-5.523-6.767,7.916-17.021,15.891-3.9-1.449-12.558-2.36-2.29,5.8-9.348,6.987-14.258,2.964-18.884-2.229-8.97-.226-9.442-18.289,23.889-5.164,26.626-18.855-29.538-4.776-23.613-18.448,26.052-8.616,34.509-21.062-17.232-25.967-14.042-34.626S8870.951,1855.312,8898.3,1855.768Z" transform="translate(-8674.482 -1735)"/>
    <path id="Pfad_25" data-name="Pfad 25" class="cls-6" d="M8970.3,2183.444c-1.823,1.6-1.823,13.672,0,21.42s5.946,10.748,7.292,9.571c1.823-1.6,1.823-8.2,0-15.951S8972.127,2181.849,8970.3,2183.444Z" transform="translate(-8674.482 -1735)"/>
    <path id="Pfad_33" data-name="Pfad 33" class="cls-5" d="M8827.241,1916.609c1.083-5.9,6.573-5.528,1.942-10.757s-5.191,2.614-10.01,4.034-5.79-.971-9.264,1.644,3.137,3.586-5.379,7.47-26.893,1.643-24.5,24.5,11.467,20.282,23.457,24.054,16.023-1.868,21.364-11.5-.6-16.21,0-26.594S8826.158,1922.51,8827.241,1916.609Z" transform="translate(-8674.482 -1735)"/>
    <path id="Pfad_34" data-name="Pfad 34" class="cls-2" d="M8827.241,1916.609c1.083-5.9,5.26-4.193.629-9.422s-3.112,2.258-7.931,3.678-1.812-1.006-5.286,1.609,9.193,12.067-.8,12.527-31.122-5.39-28.731,17.469,31.551,14.808,36.892,5.172,2.244-7.8,2.842-18.184S8826.158,1922.51,8827.241,1916.609Z" transform="translate(-8674.482 -1735)"/>
    <path id="Pfad_35" data-name="Pfad 35" class="cls-7" d="M8885.679,2041.508s-5.746-.115-5.632,4.137,2.327,2.1,7.585,7.24,1.494,14.711,12.412,14.481,9.511-7.269,15.171-12.527,5.919-4.856,5.057-9.194-1.925-7.671-7.24-8.39-7.586,4.367-14.94,4.252S8885.679,2041.508,8885.679,2041.508Z" transform="translate(-8674.482 -1735)"/>
    <path id="Pfad_36" data-name="Pfad 36" class="cls-2" d="M8885.679,2041.508s2.528-.46,2.643,3.793,2.787,2.327,8.045,7.47c1.215,1.188-.288-2.069,2.873-2.758s3.923,6.8,8.275,2.758c5.66-5.258,10.832-14.8,5.517-15.515s-7.586,4.367-14.94,4.252S8885.679,2041.508,8885.679,2041.508Z" transform="translate(-8674.482 -1735)"/>
    <path id="Pfad_29" data-name="Pfad 29" class="cls-3" d="M9065.1,1770.089l58.334-51.5s-13.366,16.076-22.331,28.712c-4.174,5.884-4.587,11.094-6.836,11.393C9087.429,1759.607,9065.1,1770.089,9065.1,1770.089Z" transform="translate(-8674.482 -1735)"/>
    <path id="Pfad_28" data-name="Pfad 28" class="cls-3" d="M8843.152,1735.908h6.381s-6.381-46.03-11.85-44.207S8843.152,1735.908,8843.152,1735.908Z" transform="translate(-8674.482 -1735)"/>
  </g>
</svg>
