<svg xmlns="http://www.w3.org/2000/svg" xmlns:xlink="http://www.w3.org/1999/xlink" width="460" height="460" viewBox="0 0 460 460">
  <defs>
    <style>
      .cls-1 {
        clip-path: url(#clip-explosion-1_8);
      }

      .cls-2 {
        fill: #a5a4a5;
      }

      .cls-3 {
        fill: #7d7c7c;
      }

      .cls-4 {
        fill: #7c7b7a;
      }
    </style>
    <clipPath id="clip-explosion-1_8">
      <rect width="460" height="460"/>
    </clipPath>
  </defs>
  <g id="explosion-1_8" class="cls-1">
    <path id="Pfad_59" data-name="Pfad 59" class="cls-2" d="M14818.862,2064.438c5.436-.1,13.486,1.9,20.688,6.9a20.047,20.047,0,0,1,8.116,13.07c.554-2.219,27.952-9.716,45.842-1.117s25.8,38.1,25.8,38.1,6.78,2.184,8.159,12.642c.382,2.9-3.764,3.007-8.159,8.836-6.191,20.452-32.984,38.029-55.679,34.592-31.389-4.753-42.037-47.563-42.037-47.563h-21.08s-37.735,9.709-52.445-12.012-5.512-43.761,8.848-56.429c10.123-8.931,38.961-4.712,49.3,4.367C14806.221,2065.817,14817.617,2064.461,14818.862,2064.438Z" transform="translate(-14644.482 -1735)"/>
    <ellipse id="Ellipse_8" data-name="Ellipse 8" class="cls-2" cx="29.5" cy="28.5" rx="29.5" ry="28.5" transform="translate(43.518 277)"/>
    <path id="Pfad_60" data-name="Pfad 60" class="cls-3" d="M29.5,0c7.869,0-5.04,25.7-14.152,34.763C5.945,44.12,0,36.638,0,28.5,0,12.76,13.208,0,29.5,0Z" transform="translate(43.518 277)"/>
    <path id="Pfad_61" data-name="Pfad 61" class="cls-2" d="M14699.271,1880.775s-8.333-14.14,1.767-31.31,34.845-11.867,34.845-11.867,4.734-7.764,10.353-10.352,12.12,0,12.12,0,4.041-10.6,13.13-4.292-1.768,11.867-1.768,11.867,4.924,12.877,1.768,20.452-14.393,9.847-14.393,9.847-1.516,13.067-6.818,21.21-14.392,11.362-14.392,11.362,1.578,10.92-2.524,19.19-13.888,13.887-13.888,13.887-1.262,18.937-6.564,20.452-13.635-20.452-13.635-20.452-18.433-13.887-17.928-27.522S14699.271,1880.775,14699.271,1880.775Z" transform="translate(-14644.482 -1735)"/>
    <circle id="Ellipse_9" data-name="Ellipse 9" class="cls-2" cx="33" cy="33" r="33" transform="translate(112.518 15)"/>
    <path id="Pfad_63" data-name="Pfad 63" class="cls-2" d="M14910.744,1775.8s8.459-7.575,16.665-7.575,16.159,7.575,16.159,7.575,13.382-1.767,14.645,11.362-12.372,14.645-12.372,14.645-10.606,14.392-24.24,11.867-16.159-21.21-16.159-21.21-14.14-5.3-9.09-14.14S14910.744,1775.8,14910.744,1775.8Z" transform="translate(-14644.482 -1735)"/>
    <path id="Pfad_64" data-name="Pfad 64" class="cls-2" d="M14974.94,1789.436s9.6-20.957,25.755-23.23,33.582,14.14,33.582,14.14,35.1,7.827,28.279,35.6-35.854,22.977-35.854,22.977-.5,12.183-13.635,10.857-9.594-13.887-9.594-13.887-14.771-3.724-22.725-11.362-9.09-19.19-9.09-19.19-9.6-3.535-8.585-10.352S14974.94,1789.436,14974.94,1789.436Z" transform="translate(-14644.482 -1735)"/>
    <path id="Pfad_65" data-name="Pfad 65" class="cls-2" d="M14999.934,1904.447s-11.362-13.887-6.816-28.532,23.229-30.047,42.419-15.4,7.07,36.612,7.07,36.612,14.707,17.8,12.119,32.067-22.472,25-22.472,25-2.524,10.857-12.877,11.615-9.595-11.615-9.595-11.615-14.2-14.329-16.665-26.765S14999.934,1904.447,14999.934,1904.447Z" transform="translate(-14644.482 -1735)"/>
    <ellipse id="Ellipse_10" data-name="Ellipse 10" class="cls-2" cx="37.5" cy="38.5" rx="37.5" ry="38.5" transform="translate(353.518 231)"/>
    <path id="Pfad_66" data-name="Pfad 66" class="cls-3" d="M37.5,0c6.814,0,28.317,6.026,22.761,14.2C49.44,30.111,0,52.767,0,38.5,0,17.237,16.789,0,37.5,0Z" transform="translate(353.518 231)"/>
    <path id="Pfad_67" data-name="Pfad 67" class="cls-2" d="M14942.806,2077.343c8.9-7.07,22.978-7.322,22.978-7.322,0,.5,2.271-7.322,8.837-6.312s5.556,11.11,5.556,11.11,16.917,17.675,14.9,32.572-14.2,20.073-27.27,23.735-25-9.09-25-9.09-14.645,7.07-19.694-6.06,8.585-16.917,8.585-16.917S14933.905,2084.413,14942.806,2077.343Z" transform="translate(-14644.482 -1735)"/>
    <path id="Pfad_68" data-name="Pfad 68" class="cls-3" d="M14976.136,2104.865c8.9-7.07,9.343-21.714,9.343-21.714,0,.5,11.614,9.342,9.595,24.24s-14.2,20.073-27.27,23.735-25-9.09-25-9.09-14.645,7.07-19.694-6.06,8.585-16.917,8.585-16.917.248,11.755,6.817,13.635c5.042,1.443,9.57-3.749,16.665-5.3C14962.9,2105.7,14973.06,2107.308,14976.136,2104.865Z" transform="translate(-14644.482 -1735)"/>
    <path id="Pfad_69" data-name="Pfad 69" class="cls-3" d="M14826.026,2122.666c22.22,9.971,16.476,30.552,34.087,35.349s28.339-2.335,41.662-12.625c9.486-7.326-4.73-12.638-2.02-17.422.507-.915,4.583.664,9.09-1.768,2.808-1.518,5.91-7.607,8.079-6.565,17.89,8.6,2.385,1.749,2.385,1.749s6.78,2.184,8.159,12.642c.382,2.9-3.764,3.007-8.159,8.836-6.191,20.452-32.984,38.029-55.679,34.592-31.389-4.753-42.037-47.563-42.037-47.563h-21.08s-37.735,9.709-52.445-12.012-8.866-33.3,5.493-45.965c5.426-4.787-2.6,9.4,0,22.219,2.163,10.652.253,15.729,19.694,23.745S14803.807,2112.7,14826.026,2122.666Z" transform="translate(-14644.482 -1735)"/>
    <path id="Pfad_70" data-name="Pfad 70" class="cls-3" d="M14699.271,1880.775s-8.333-14.14,1.767-31.31,34.845-11.867,34.845-11.867,4.734-7.764,10.353-10.352,12.12,0,12.12,0l-7,3.22a27.773,27.773,0,0,0-8.584,11.362c-3.156,7.575-24.239-15.15-31.562,5.807s9.091,25,3.788,33.14-8.586,5.555-8.586,5.555-12.058,8.648-16.16,16.917,20.958,23.419,20.958,23.419,7,23.04,1.7,24.555-13.635-20.452-13.635-20.452-18.433-13.887-17.928-27.522S14699.271,1880.775,14699.271,1880.775Z" transform="translate(-14644.482 -1735)"/>
    <path id="Pfad_71" data-name="Pfad 71" class="cls-3" d="M14958.213,1787.163c1.263,13.13-12.372,14.645-12.372,14.645s-10.606,14.392-24.24,11.867S14956.95,1774.033,14958.213,1787.163Z" transform="translate(-14644.482 -1735)"/>
    <path id="Pfad_72" data-name="Pfad 72" class="cls-4" d="M15034.277,1780.346s35.1,7.827,28.279,35.6-35.854,22.977-35.854,22.977-.5,12.183-13.635,10.857c-4.286-.433-7.395-3.23-4.423-5.619,2.785-2.237,12.182-4.542,18.058-15.655,3-5.674,17.3-10.012,17.292-21.967C15043.986,1799.4,15026.634,1783.4,15034.277,1780.346Z" transform="translate(-14644.482 -1735)"/>
    <path id="Pfad_73" data-name="Pfad 73" class="cls-3" d="M15042.606,1897.125s14.707,17.8,12.119,32.067-22.472,25-22.472,25-2.524,10.857-12.877,11.615c-5.385.394-12.17-3.463-6.188-11.615.95-1.295,5.7,1.594,7.575-1.326,2.188-3.41,1.83-12.933,5.556-16.16,3.636-3.147,9.115-1.463,12.372-7.512C15041.875,1923.277,15038.143,1904.885,15042.606,1897.125Z" transform="translate(-14644.482 -1735)"/>
    <path id="Pfad_62" data-name="Pfad 62" class="cls-3" d="M33,0c8.4,0-.882,27.7-10.373,37.857C11.956,49.281,0,42.823,0,33A33,33,0,0,1,33,0Z" transform="translate(112.518 15)"/>
  </g>
</svg>
