<svg xmlns="http://www.w3.org/2000/svg" xmlns:xlink="http://www.w3.org/1999/xlink" width="460" height="460" viewBox="0 0 460 460">
  <defs>
    <style>
      .cls-1 {
        clip-path: url(#clip-explosion-1_10);
      }

      .cls-2 {
        fill: #7d7c7c;
      }

      .cls-3 {
        fill: #a6a5a6;
      }

      .cls-4 {
        fill: #7e7c7c;
      }

      .cls-5 {
        fill: #7e7d7d;
      }
    </style>
    <clipPath id="clip-explosion-1_10">
      <rect width="460" height="460"/>
    </clipPath>
  </defs>
  <g id="explosion-1_10" class="cls-1">
    <path id="Pfad_93" data-name="Pfad 93" class="cls-2" d="M18868.8,2178.286c7.936-4.2,10.994-20.329,10.994-20.329s8.92,1.037,7.883-7.883-14.105-6.016-14.105-6.016-2.387-5.549-14.521-7.675-34.02-.83-34.02-.83-4.928-11.616-10.787-11.824a10.527,10.527,0,0,0-10.785,10.372c0,5.7,8.025,13.057,8.025,13.057s-.3,8.465,4.836,13.08,17.217,3.941,17.217,3.941l13.482,14.106S18860.863,2182.487,18868.8,2178.286Z" transform="translate(-18624.482 -1735)"/>
    <path id="Pfad_94" data-name="Pfad 94" class="cls-3" d="M18864.443,2167.084c7.936-4.2,15.35-9.127,15.35-9.127s8.92,1.037,7.883-7.883-14.105-6.016-14.105-6.016-2.387-5.549-14.521-7.675-34.02-.83-34.02-.83-4.928-11.616-10.787-11.824-4.979,6.119-4.979,11.824a17.62,17.62,0,0,0,3.734,10.164s1.3,2.438,6.432,7.053c2.2,1.98,8.17.307,11.615,1.659,3.943,1.55,2.127,3.215,5.186,5.393s4.012.285,7.053,3.319c2.6,2.593,4.229,8.349,8.092,8.712C18859.1,2172.582,18856.508,2171.285,18864.443,2167.084Z" transform="translate(-18624.482 -1735)"/>
    <path id="Pfad_95" data-name="Pfad 95" class="cls-3" d="M18723.8,2106.1l2.9-14.728s2.074-8.712,6.016-8.5,9.543,6.43,9.543,6.43-.676,1.711,4.77,6.223a167.722,167.722,0,0,1,12.447,12.031s0,17.632-2.49,19.914-10.268,4.615-18.254,3.112-10.477-2.749-13.691-9.127S18723.8,2106.1,18723.8,2106.1Z" transform="translate(-18624.482 -1735)"/>
    <path id="Pfad_96" data-name="Pfad 96" class="cls-2" d="M18723.8,2106.1s6.986,12.07,15.766,17.217c8.447,4.953,18.68,3,17.424,4.149-2.488,2.282-10.268,4.615-18.254,3.112s-10.477-2.749-13.691-9.127S18723.8,2106.1,18723.8,2106.1Z" transform="translate(-18624.482 -1735)"/>
    <ellipse id="Ellipse_14" data-name="Ellipse 14" class="cls-4" cx="19" cy="18.5" rx="19" ry="18.5" transform="translate(28.518 293)"/>
    <path id="Pfad_97" data-name="Pfad 97" class="cls-3" d="M19.979,3.421C21.846,3.421,38,8.283,38,18.5s-16.154,9.814-16.154,9.814S9.814,26.085,9.814,15.867,18.111,3.421,19.979,3.421Z" transform="translate(28.518 293)"/>
    <path id="Pfad_98" data-name="Pfad 98" class="cls-3" d="M18664.059,1931.645c7.053-1.037,6.225-12.654,6.225-12.654s7.467-5.342,7.467-11.616-7.467-13.483-7.467-13.483,6.482-7,5.186-11.409-4.564-8.09-10.373-6.223-5.186,12.239-6.223,13.483-11.615,6.845-13.275,14.521,5.809,18.047,5.809,18.047S18657.006,1932.682,18664.059,1931.645Z" transform="translate(-18624.482 -1735)"/>
    <path id="Pfad_99" data-name="Pfad 99" class="cls-3" d="M18686.67,1872.94l7.053-12.031s7.25-2.812,10.787-6.431.664-5.137,3.361-8.042,5-1.073,7.426-3.575,2.281-6.431,2.281-6.431,4.781.163,6.91-3.024,3.732-6.527,1.605-9.725a8.655,8.655,0,0,0-9.348-3.777c-3.422.933-5.184,6.984-5.184,6.984h-9.957s-5.16-8.778-16.867-6.229-15.234,9.537-16.428,16.9,4.461,15.05,4.461,15.05a11.891,11.891,0,0,0-2.479,13.275C18673.6,1874.007,18686.67,1872.94,18686.67,1872.94Z" transform="translate(-18624.482 -1735)"/>
    <path id="Pfad_100" data-name="Pfad 100" class="cls-4" d="M18686.67,1872.94a13.774,13.774,0,0,0-1.932-9.281c-2.316-3.65-7.684-4.48-8.592-10.008-.865-5.258,4.475-13.442,4.25-18.6-.314-7.251,8.17-15.224,4.342-14.39-11.707,2.549-15.234,9.537-16.428,16.9s4.461,15.05,4.461,15.05a11.891,11.891,0,0,0-2.479,13.275C18673.6,1874.007,18686.67,1872.94,18686.67,1872.94Z" transform="translate(-18624.482 -1735)"/>
    <path id="Pfad_105" data-name="Pfad 105" class="cls-3" d="M19007.439,1789.109s-4.449-.706-6.137-2.946-.613-6.014-.613-6.014-6.752-.092-8.1-4.051a11.459,11.459,0,0,1,2.7-11.783c3.223-3.345,4.42-2.977,10.434-2.455s8.529,1.565,13.623,4.542a16.138,16.138,0,0,1,6.752,7.365s9.053,1.135,13.5,7,5.891,10.464,4.295,16.448-7.363,9.942-7.363,9.942,3.129,5.554,2.209,9.7-1.412,5.217-5.893,6.874-8.408,2.332-11.783.614-1.719-7.487-1.719-7.487v-7.61s-7.088-1.718-10.064-6.751S19007.439,1789.109,19007.439,1789.109Z" transform="translate(-18624.482 -1735)"/>
    <path id="Pfad_106" data-name="Pfad 106" class="cls-4" d="M18992.588,1773.766c-1.35-3.958-.521-6.106,2.7-9.451s4.42-2.977,10.434-2.455,8.529,1.565,13.623,4.542a16.138,16.138,0,0,1,6.752,7.365s9.053,1.135,13.5,7,5.891,10.464,4.295,16.448-7.363,9.942-7.363,9.942,3.129,5.554,2.209,9.7-1.412,5.217-5.893,6.874-8.408,2.332-11.783.614-1.719-7.487-1.719-7.487,23.619-19.2,16.693-27.495c-.713-.855-.334-4.068-2.332-6.015-2.141-2.087-7.258-.72-11.047-2.578-3.094-1.518-4.84-6.292-7.732-7C19003.326,1770.941,18992.977,1774.907,18992.588,1773.766Z" transform="translate(-18624.482 -1735)"/>
    <path id="Pfad_107" data-name="Pfad 107" class="cls-3" d="M19018.723,1886.85s-3.967-4.39-4.344-9.064a12.559,12.559,0,0,1,2.361-8.12s-3.068-1.629-3.494-3.966,1.795-5.382,1.795-5.382-5.5-.448-5.193-2.644,1.746-5.5,4.531-5.1,3.209,3.5,6.986,5.1c4.639,1.963,12.637,1.56,16.807,5.193,7.152,6.232,6.822,7.176,6.705,13.6s-7.271,12.369-7.271,12.369,1.652,9.938-2.738,12.463-12.957,2.054-16.145-1.794S19018.723,1886.85,19018.723,1886.85Z" transform="translate(-18624.482 -1735)"/>
    <path id="Pfad_108" data-name="Pfad 108" class="cls-4" d="M19038.172,1862.868c7.152,6.232,6.822,7.176,6.705,13.6s-7.271,12.369-7.271,12.369,1.652,9.938-2.738,12.463-12.957,2.054-16.145-1.794c-.846-1.02,8.191-1.365,10.574-5.571,1.4-2.473-4.428-8.419-2.076-11.425,2.184-2.79,5.723-4.182,7.646-7.27C19038.234,1869.828,19036.68,1861.568,19038.172,1862.868Z" transform="translate(-18624.482 -1735)"/>
    <path id="Pfad_109" data-name="Pfad 109" class="cls-3" d="M19027.439,1935.384s-.947-5.474.4-8.5,4.984-3.59,4.984-3.59-1.186-8.4,4.27-7.457,4.322,7.929,4.322,7.929a11.485,11.485,0,0,1,3.324,4.44,17.089,17.089,0,0,1,.756,6.232s7.086,8.094,4.7,14.161-6.123,9.375-12.443,10.86-10.078-.024-13.879-4.438-3.4-8.24-2.76-13.032S19027.439,1935.384,19027.439,1935.384Z" transform="translate(-18624.482 -1735)"/>
    <path id="Pfad_110" data-name="Pfad 110" class="cls-4" d="M19041.414,1923.771a11.485,11.485,0,0,1,3.324,4.44,17.089,17.089,0,0,1,.756,6.232s7.086,8.094,4.7,14.161-6.123,9.375-12.443,10.86-10.078-.024-13.879-4.438c-1.613-1.874,5.313-1.72,10.2-6.422,2.563-2.469,2.586-9.2,4.908-12.367C19041.686,1932.54,19041.414,1923.771,19041.414,1923.771Z" transform="translate(-18624.482 -1735)"/>
    <path id="Pfad_111" data-name="Pfad 111" class="cls-3" d="M19028.311,2049.822a19.158,19.158,0,0,0,13.123-.944,9.355,9.355,0,0,0,5.572-6.42s11.754-.307,16.994-6.609,5.617-12.038,3.965-18.6-8.309-10.2-8.309-10.2,4.7-10.433.379-14.635-12.393-4.721-17.656-2.172-5.549,5.571-5.666,9.819,4.721,7.931,4.721,7.931-7.293,3.3-9.725,9.253-.1,13.974,0,14.54-7.836,6.161-8.686,10.669S19023.33,2048.571,19028.311,2049.822Z" transform="translate(-18624.482 -1735)"/>
    <path id="Pfad_112" data-name="Pfad 112" class="cls-4" d="M19028.311,2049.822a19.158,19.158,0,0,0,13.123-.944,9.355,9.355,0,0,0,5.572-6.42s11.754-.307,16.994-6.609,5.617-12.038,3.965-18.6-8.309-10.2-8.309-10.2,4.7-10.433.379-14.635c-1.789-1.739-4.627,3.3-7.648,12.369-1.322,9.631,11.225,10.07,7.27,15.485-7.742,15.39-35.914,21.417-36.256,23.227C19022.551,2048,19023.33,2048.571,19028.311,2049.822Z" transform="translate(-18624.482 -1735)"/>
    <path id="Pfad_113" data-name="Pfad 113" class="cls-3" d="M18948.1,2105.549s5.861-6.843,13.379-5.523,12.918,3.314,16.693,10.8,3.529,12.213-1.6,19.148-10.863,9.083-18.9,8.592-13.869-11.906-13.869-11.906-9.174-3.928-10.8-9.206,1.992-9.666,5.768-12.643S18948.1,2105.549,18948.1,2105.549Z" transform="translate(-18624.482 -1735)"/>
    <path id="Pfad_114" data-name="Pfad 114" class="cls-5" d="M18978.17,2110.827c3.775,7.487,3.529,12.213-1.6,19.148s-10.863,9.083-18.9,8.592-13.869-11.906-13.869-11.906,13.3,8.373,21.727,3.314C18973.354,2125.275,18976.3,2107.113,18978.17,2110.827Z" transform="translate(-18624.482 -1735)"/>
    <path id="Pfad_101" data-name="Pfad 101" class="cls-3" d="M18767.355,1784.593c6.23,0,7.6-1.18,11.707-4.626s2.475-2.812,4.316-7.533c1.291-3.309,8.475-2.987,5.531-10.839s-11.736-5.044-11.736-5.044-14.637-8.4-22,2.833-1.984,17,0,20.017S18761.125,1784.593,18767.355,1784.593Z" transform="translate(-18624.482 -1735)"/>
    <path id="Pfad_102" data-name="Pfad 102" class="cls-4" d="M18767.355,1784.593c6.23,0,7.6-1.18,11.707-4.626.332-.279-3.125.855-4.566,0-1.125-.675-.424-3.357-2.123-3.734-4.551-1.012-9.93-.648-13.354-4.581-5.459-6.274-.018-18.11-3.846-12.268-7.363,11.236-1.984,17,0,20.017S18761.125,1784.593,18767.355,1784.593Z" transform="translate(-18624.482 -1735)"/>
    <path id="Pfad_103" data-name="Pfad 103" class="cls-3" d="M18896.064,1776.1c.008,0,14.949,3.562,23.416,1.605s10.2-11.236,10.2-11.236.52-6.586-2.455-9.536-9.441-2.266-9.441-2.266a13.5,13.5,0,0,0-12.936-8.309c-10.008,0-11.9,8.309-11.9,8.309s-4.7-3.257-7.742-2.172-5.854,2.337-5.854,5.1.943,4.674,3.209,5.76,7.271,0,7.271,0S18887.756,1772.462,18896.064,1776.1Z" transform="translate(-18624.482 -1735)"/>
    <path id="Pfad_104" data-name="Pfad 104" class="cls-4" d="M18896.064,1776.1c.008,0,14.949,3.562,23.416,1.605s10.2-11.236,10.2-11.236.709-4.6-2.266-7.553c-1.437-1.425-11.143,15.107-16.334,15.673-2.551.378-21.244-11.236-21.244-11.236S18887.756,1772.462,18896.064,1776.1Z" transform="translate(-18624.482 -1735)"/>
  </g>
</svg>
