<svg xmlns="http://www.w3.org/2000/svg" xmlns:xlink="http://www.w3.org/1999/xlink" width="460" height="460" viewBox="0 0 460 460">
  <defs>
    <style>
      .cls-1 {
        clip-path: url(#clip-explosion-1_3);
      }

      .cls-2 {
        fill: #ffaa56;
        opacity: 0.33;
      }

      .cls-3 {
        fill: #ffd35b;
      }

      .cls-4 {
        fill: #ffffbd;
      }

      .cls-5 {
        fill: #ffe482;
      }
    </style>
    <clipPath id="clip-explosion-1_3">
      <rect width="460" height="460"/>
    </clipPath>
  </defs>
  <g id="explosion-1_3" class="cls-1">
    <ellipse id="Ellipse_3" data-name="Ellipse 3" class="cls-2" cx="134.5" cy="133" rx="134.5" ry="133" transform="translate(103.518 74)"/>
    <path id="Pfad_10" data-name="Pfad 10" class="cls-3" d="M4873.587,1760.2s11.919,52.147,12.62,80.28-7.362,19.106-9.816,32.252,4.733,12.883,0,20.333-18.931,9.465-18.931,9.465-9.641-.614-14.724,2.454,4.908,7.362-5.609,9.816-86.24-3.856-85.889,0,71.252,6.047,87.992,17.879c8.454,5.975,8.923,12.837,13.322,17.178,3.877,3.823,9.981,5.112,13.321,12.27,6.749,14.461-10.868,10.517,0,23.137s-.7,28.4,10.517,38.212,20.946,2.8,38.913,8.414c2.083.65,11.98-3.051,16.827,5.609,4.792,8.559,3.856,14.373,15.07,34.061,6.314-3.211,20.682,56.467,25.946,57.086,3.856-2.1-25.63-85.932-17.178-91.148,6.97-4.3,19.386-.9,22.436-10.167,3.932-11.943,2.46-26.845,7.011-31.9,7.888-8.764,9.2-4.82,12.971-7.712s15.951-1.928,21.385-7.713,57.843-4.207,57.493-7.362-33.552-1.46-54.688-10.517c-8.063-8.063-11.027-22.864-12.971-26.293-6.31-11.13-6.661-7.8-7.362-16.477s2.454-11.744,4.207-20.683-2.717-17.178-4.207-25.942,66.345-65.644,60.648-69.763-55.959,59.626-71.034,58.574c-7.19-.5-14.863,1.418-23.074,3.8-8.452,2.451-17.373,5.351-23.332,3.884-11.394-2.8-5.171-8.852-13.322-15.074s-15.775-2.454-21.735-13.672S4873.587,1760.2,4873.587,1760.2Z" transform="translate(-4694.482 -1735)"/>
    <path id="Pfad_9" data-name="Pfad 9" class="cls-4" d="M4873.587,1760.2s11.919,52.147,12.62,80.28-7.362,19.106-9.816,32.252,4.733,12.883,0,20.333-18.931,9.465-18.931,9.465-9.641-.614-14.724,2.454,4.908,7.362-5.609,9.816-35.758-.7-35.408,3.155,24.277-2.366,41.017,9.465,18.142,20.245,24.89,34.706-4.382,14.2,2.1,23.137,16.477,6.573,23.838,12.62-2.892,8.063,15.075,13.672,41.367,10.868,51.183,8.063,12.8-25.591,20.684-34.356,12.708,2.892,16.477,0-5.434-5.784,0-11.569,13.059-1.49,16.126-11.569,1.935-14.469-4.375-25.6-16.308-9.9-17.009-18.572,12.971-10.342,14.724-19.281-4.47-8.063-5.959-16.827,5.7-14.11,0-18.229-12.357-1.928-25.942,0-17.7,8.414-29.1,5.609-5.171-8.852-13.322-15.074-15.775-2.454-21.735-13.672S4873.587,1760.2,4873.587,1760.2Z" transform="translate(-4694.482 -1735)"/>
    <path id="Pfad_8" data-name="Pfad 8" class="cls-3" d="M4953.634,1923.191c-2.525-7.575,9.6-20.452,4.04-22.977s-24.618,4.482-37.622,5.3-13.382-6.565-14.392-2.02,10.352,18.937,9.342,31.057-14.518,16.728-15.654,25.755,8.016,4.292,12.877,8.585,1.642,8.522,4.545,11.362,3.977,1.136,7.069,0,1.768-3.409,5.3-4.545,3.851-1.515,8.837,0,7.2,5.3,11.109,6.06,3.409,2.335,4.545-3.03-4.987-10.92,0-18.432,19.947-11.615,19.947-11.615,4.987-3.219,0-9.595S4956.159,1930.765,4953.634,1923.191Z" transform="translate(-4694.482 -1735)"/>
    <path id="Pfad_11" data-name="Pfad 11" class="cls-5" d="M4833.271,1982.585l-71.516,48.953s23.05-2.8,36.81-10.517,11.394-9.672,19.281-19.632S4833.271,1982.585,4833.271,1982.585Z" transform="translate(-4694.482 -1735)"/>
  </g>
</svg>
