<svg xmlns="http://www.w3.org/2000/svg" xmlns:xlink="http://www.w3.org/1999/xlink" width="460" height="460" viewBox="0 0 460 460">
  <defs>
    <style>
      .cls-1 {
        clip-path: url(#clip-explosion-1_2);
      }

      .cls-2 {
        fill: #f8b700;
        opacity: 0.4;
      }

      .cls-3 {
        fill: #ffdf05;
      }

      .cls-4 {
        fill: #ffffc7;
      }
    </style>
    <clipPath id="clip-explosion-1_2">
      <rect width="460" height="460"/>
    </clipPath>
  </defs>
  <g id="explosion-1_2" class="cls-1">
    <path id="Pfad_4" data-name="Pfad 4" class="cls-2" d="M106.5,0c58.818,0,99.669,42.375,99.669,100.641S165.318,205.929,106.5,205.929,1.361,158.907,1.361,100.641,47.682,0,106.5,0Z" transform="translate(134.518 104)"/>
    <path id="Pfad_2" data-name="Pfad 2" class="cls-3" d="M2879.93,1823.067s17.649,35.425,23.634,57.114c0,0-14.867,15.892-16.1,29.022s20.433,29.887,0,45.4-71.514,40.856-69.445,42.236,56.659-26.548,71.485-33.444,17.124,7.24,17.124,7.24.54,24.006,9.616,30.8,29.8-8.192,30.723,6.949,5.111,48.371,7.24,47.235,0-54.185,0-54.185c-.69-19.254,12.438-6.144,17.929-8.8s-.012-13.929,15.055-13.877,44.459,15.867,45.215,14.082-35.906-16.122-35.216-20.719,23.488-15.735,19.9-37.25-33.915-31.823-33.915-31.823c9.413-17.779,64.244-56.326,63.5-59.164s-44.8,35.135-68.8,44.473-12.792-3.312-22.97-6.374-20.618-.3-28.686,0S2879.93,1823.067,2879.93,1823.067Z" transform="translate(-2703.482 -1734)"/>
    <path id="Pfad_3" data-name="Pfad 3" class="cls-4" d="M2910.761,1927.82c-29.732,10.16-1.046,41.348-1.046,41.348s-3.362,9.263,5.715,16.061,27.79,5.379,27.79,5.379,2.6-5.989,7.62-7.806c4.071-1.473,10.475,1.273,13.11,0,5.491-2.652,4.163-15.141,19.23-15.09s36.271-11.273,32.685-32.788-35.07-32.615-35.07-32.615c9.413-17.779,20.562-20.842-3.436-11.5s-12.307-3.81-22.486-6.873c-6.463-1.945-22.491,2.973-36.082-3.175-7.42-3.357-14.18-21.021-17.779-18.676-3.175,2.069,9.562,19.871,3.586,22.859s-15.5,19.759-14.268,27.528C2892.15,1923.927,2910.761,1927.82,2910.761,1927.82Z" transform="translate(-2703.482 -1734)"/>
  </g>
</svg>
