<svg xmlns="http://www.w3.org/2000/svg" xmlns:xlink="http://www.w3.org/1999/xlink" width="460" height="460" viewBox="0 0 460 460">
  <defs>
    <style>
      .cls-1 {
        clip-path: url(#clip-explosion-1_9);
      }

      .cls-2 {
        fill: #a6a5a6;
      }

      .cls-3 {
        fill: #7d7c7c;
      }

      .cls-4 {
        fill: #a7a5a7;
      }

      .cls-5 {
        fill: #7d7c7d;
      }
    </style>
    <clipPath id="clip-explosion-1_9">
      <rect width="460" height="460"/>
    </clipPath>
  </defs>
  <g id="explosion-1_9" class="cls-1">
    <path id="Pfad_74" data-name="Pfad 74" class="cls-2" d="M16847.439,2105.938s25.629-6.375,38.127,4.292,16.473,22.851,11.865,38.379-17.42,26.07-34.59,26.765-34.088-23.987-34.088-23.987-29.037-3.282-30.551-26.765,20.451-28.027,28.025-29.542S16847.439,2105.938,16847.439,2105.938Z" transform="translate(-16634.482 -1735)"/>
    <path id="Pfad_75" data-name="Pfad 75" class="cls-3" d="M16899.2,2136.237c-1.93,6.506-1.5,16.566-6.566,23.735-6.605,9.352-19.816,15-29.793,15.4-17.17.694-34.088-23.987-34.088-23.987s-29.037-3.282-30.551-26.765c-.5-7.726,4.264,9.87,19.441,11.615,5.434.625,14.895-.865,20.957,3.535,7.787,5.65,12.359,17.6,21.209,18.18C16879.643,2159.252,16900.969,2130.277,16899.2,2136.237Z" transform="translate(-16634.482 -1735)"/>
    <ellipse id="Ellipse_11" data-name="Ellipse 11" class="cls-2" cx="25.5" cy="25" rx="25.5" ry="25" transform="translate(91.518 338)"/>
    <path id="Pfad_76" data-name="Pfad 76" class="cls-3" d="M25.5,0A25.254,25.254,0,0,1,51,25c0,6.627-9.861,13.056-18,5.35C24.624,22.417,18.177,0,25.5,0Z" transform="translate(91.518 338)"/>
    <path id="Pfad_77" data-name="Pfad 77" class="cls-4" d="M16719.045,2055.628s-16.033,15.907-26.008,12.12-22.471-23.23-9.846-36.864,33.328,0,33.328,0,15.656-3.282,15.656,7.827-10.354,10.352-10.354,10.352Z" transform="translate(-16634.482 -1735)"/>
    <path id="Pfad_78" data-name="Pfad 78" class="cls-3" d="M16693.037,2067.748c-9.975-3.787-22.471-23.23-9.846-36.864,4.555-4.92-.254,14.644,7.826,22.472,10.605,11.615,21.17-1.288,21.461,4.8C16712.848,2065.87,16696.7,2069.138,16693.037,2067.748Z" transform="translate(-16634.482 -1735)"/>
    <ellipse id="Ellipse_12" data-name="Ellipse 12" class="cls-2" cx="15" cy="14.5" rx="15" ry="14.5" transform="translate(60.518 227)"/>
    <path id="Pfad_79" data-name="Pfad 79" class="cls-3" d="M15,0c5.426,0-1.37,15.688-7.871,20.278C4.093,22.425,0,17.263,0,14.5A14.756,14.756,0,0,1,15,0Z" transform="translate(60.518 227)"/>
    <path id="Pfad_80" data-name="Pfad 80" class="cls-2" d="M16684.516,1876.8s-5.779-18.959,1.121-31.814,33.471-8.332,33.471-8.332,7.6-1.112,15.654-3.03,10.939-6.923,16.561-4.641,7.879,9.729,5.922,13.769-13.9,2.234-13.9,2.234,2.146,6.691,0,10.352-8.586,4.292-8.586,4.292,1.158,10.471-2.018,17.17-5.254,5.71-10.684,9.624a21.182,21.182,0,0,1-10.7,4.067s2.508,16.661-2.984,25.372-19.318,11.437-19.318,11.437,3.355,2.846,2.787,6.444-2.428,7.186-6.277,6.807-7.1-.911-8.486-4.951,4.148-10.068,4.148-10.068-17.924-8.585-19.187-24.492S16684.516,1876.8,16684.516,1876.8Z" transform="translate(-16634.482 -1735)"/>
    <path id="Pfad_81" data-name="Pfad 81" class="cls-3" d="M16684.516,1876.8s-5.779-18.959,1.121-31.814,33.471-8.332,33.471-8.332,7.6-1.112,15.654-3.03,10.939-6.923,16.561-4.641-3.68,5.22-5.637,9.26-15.029-2.21-16.178-.8c-.818,1.009,1.361,5.1,0,7.539-.3.62-.271,2.165-2.828,1.567-4.258-1-5.014-6.057-6.984-8.31-1.73-1.981-4.754-1.138-11.979-1.589-13.842-.865-19.475,6.562-19.738,15.226s14.537,25.349,9.107,29.262a6.3,6.3,0,0,1-9.107-1.149s-13.26-6.564-14.852,18.057,7.516,19.8,10.344,22.1.932,16.734-2.918,16.355-2.08,3.134-3.469-.906,4.148-10.068,4.148-10.068-17.924-8.585-19.187-24.492S16684.516,1876.8,16684.516,1876.8Z" transform="translate(-16634.482 -1735)"/>
    <path id="Pfad_82" data-name="Pfad 82" class="cls-2" d="M16755.268,1782.819c-5.08-13.708.916-23.531,10.459-31.375s24.205-2.577,27.715,0a18.38,18.38,0,0,1,5.3,6.984,46.109,46.109,0,0,1,12.924,1.98c6.014,2.017,10.311-.448,11.133,6.088s-7.994,10.346-7.994,10.346-1.906,3.7-4.857,5.192-6.945.784-6.945.784-6.816,14.9-18.75,14.9S16760.348,1796.527,16755.268,1782.819Z" transform="translate(-16634.482 -1735)"/>
    <path id="Pfad_83" data-name="Pfad 83" class="cls-3" d="M16755.268,1782.819c-5.08-13.708.916-23.531,10.459-31.375,4.295-3.53-4.98,14.424,0,25.66,5.844,13.181,25.09,20.618,18.527,20.618C16772.32,1797.722,16760.348,1796.527,16755.268,1782.819Z" transform="translate(-16634.482 -1735)"/>
    <path id="Pfad_84" data-name="Pfad 84" class="cls-2" d="M16902.732,1788.092c-.531-9.371,4.088-16.267,12.818-19.538s22.1,6.454,22.1,6.454,8.572,3.89,8.928,13.084-11.492,10.609-11.492,10.609-9.68,9.194-17.77,6.542S16903.264,1797.463,16902.732,1788.092Z" transform="translate(-16634.482 -1735)"/>
    <path id="Pfad_86" data-name="Pfad 86" class="cls-5" d="M16972.107,1779.892c2.74-7.426,3.27-15.073,23.869-17.615s27.141,19.626,27.141,19.626,23.842,3.089,28.379,15.493.326,29.036-10.232,34.125-23.76,4.022-31.207-1.061-8.332-14.7-8.332-14.7-17.437-.2-24.842-9.172A26.88,26.88,0,0,1,16972.107,1779.892Z" transform="translate(-16634.482 -1735)"/>
    <path id="Pfad_87" data-name="Pfad 87" class="cls-2" d="M16972.107,1779.892c2.74-7.426,3.27-15.073,23.869-17.615s15.209,24.113,19.717,24.555c1.92.188,6.727-5,11.756-4.155,6.086,1.02,12.691,8.793,15.295,15.913,4.537,12.4,4.105,21.61-6.453,26.7s-18.787,10.255-26.234,5.172-8.332-14.7-8.332-14.7-17.437-.2-24.842-9.172A26.88,26.88,0,0,1,16972.107,1779.892Z" transform="translate(-16634.482 -1735)"/>
    <path id="Pfad_88" data-name="Pfad 88" class="cls-5" d="M17015.264,1953.775c4.932,0,15.762,4.968,23.307-2.652s10.684-18.19,6.873-27.827-17.631-11.5-17.631-11.5l1.795-9.263-4.184-8.815s9.861-13.11,5.678-21.813a22.509,22.509,0,0,0-22.412-13c-9.674.756-15.016,6.611-16.285,16.024s11.205,21.626,11.205,21.626-5.043,7.61-3.137,13.484,10.758,10.01,10.758,10.01-6.537,4.408-7.621,10.907,3.287,15.09,3.287,15.09-6.461,1.12-8.066,4.3,1.643,8.4,1.643,8.4-3.291.144-5.08,2.391c-1.555,1.945-1.6,6.056-1.2,7.321.785,2.428,6.834,2.054,9.412,0s0-8.217,0-8.217l10.01-1.494Z" transform="translate(-16634.482 -1735)"/>
    <path id="Pfad_89" data-name="Pfad 89" class="cls-2" d="M17013.77,1950.339c5.977-2.8,12.176,1.681,19.721-5.939s8.891-10.682,5.08-20.319-11.8-9.711-17.48-11.654,8.518-9.9,8.518-9.9a19.08,19.08,0,0,0-4.781-7.583c-2.8-2.71-8.99,2.71-8.814-.9.373-7.657,10.756-14.455,6.572-23.158s-4.221-12.746-13.895-11.99-15.016,6.611-16.285,16.024,11.205,21.626,11.205,21.626-5.043,7.61-3.137,13.484,10.758,10.01,10.758,10.01-6.537,4.408-7.621,10.907,3.287,15.09,3.287,15.09-6.461,1.12-8.066,4.3,1.643,8.4,1.643,8.4-3.291.144-5.08,2.391c-1.555,1.945-1.6,6.056-1.2,7.321.785,2.428,6.834,2.054,9.412,0s0-8.217,0-8.217a39.712,39.712,0,0,0,5.977-4.632C17012.088,1953.131,17007.793,1953.14,17013.77,1950.339Z" transform="translate(-16634.482 -1735)"/>
    <path id="Pfad_90" data-name="Pfad 90" class="cls-2" d="M17003.8,2017.97s-3.934-14.47,0-23.113,15.732-11.459,15.732-11.459-3.494-17.092,9.324-15.927,12.041,13.984,12.041,13.984,21.561,9.711,20.783,28.94-9.906,21.8-21.949,27.58-26.221-4.467-26.221-4.467-7.041,3.933-11.459,2.525-6.07-5.2-5.633-9.711S17003.8,2017.97,17003.8,2017.97Z" transform="translate(-16634.482 -1735)"/>
    <path id="Pfad_91" data-name="Pfad 91" class="cls-3" d="M17040.9,1981.456s21.561,9.711,20.783,28.94-9.906,21.8-21.949,27.58-26.221-4.467-26.221-4.467,22.482-10.1,29.33-23.113S17040.9,1981.456,17040.9,1981.456Z" transform="translate(-16634.482 -1735)"/>
    <circle id="Ellipse_13" data-name="Ellipse 13" class="cls-2" cx="23.5" cy="23.5" r="23.5" transform="translate(302.518 347)"/>
    <path id="Pfad_92" data-name="Pfad 92" class="cls-3" d="M23.5,0c6.36,0,5.03,22.715-2.441,30.316C13.673,37.831,0,30.119,0,23.5A23.5,23.5,0,0,1,23.5,0Z" transform="translate(302.518 347)"/>
    <path id="Pfad_85" data-name="Pfad 85" class="cls-5" d="M16902.732,1788.092c-.531-9.371,4.088-16.267,12.818-19.538,1.4-.523,10.1-1.1,10.254.973.174,2.2-7.693,3.719-11.139,8.222-3.266,4.271-2.176,11.539-4.244,14.233C16907.029,1796.4,16902.945,1791.849,16902.732,1788.092Z" transform="translate(-16634.482 -1735)"/>
  </g>
</svg>
