<svg xmlns="http://www.w3.org/2000/svg" xmlns:xlink="http://www.w3.org/1999/xlink" width="460" height="460" viewBox="0 0 460 460">
  <defs>
    <style>
      .cls-1 {
        clip-path: url(#clip-explosion-1_4);
      }

      .cls-2 {
        fill: #ffaa56;
        opacity: 0.28;
      }

      .cls-3 {
        fill: #ffd25b;
      }

      .cls-4 {
        fill: #ffffbd;
      }

      .cls-5 {
        fill: #ffd35b;
      }

      .cls-6 {
        fill: #a6a7a5;
      }
    </style>
    <clipPath id="clip-explosion-1_4">
      <rect width="460" height="460"/>
    </clipPath>
  </defs>
  <g id="explosion-1_4" class="cls-1">
    <ellipse id="Ellipse_4" data-name="Ellipse 4" class="cls-2" cx="206.5" cy="214" rx="206.5" ry="214" transform="translate(36.518 2)"/>
    <path id="Pfad_13" data-name="Pfad 13" class="cls-3" d="M6869.342,1799.806c1.4.351,6.047,14.724,11.919,18.58s13.556-2.485,23.723,2.423,9.3,12.2,15.107,14.744.581-5.157,19.828-3.123,12.8,7.621,17.141,7.045,6.669-14.9,22.971-18.666,31.391-1.245,41.119,7.081,5.321,18.175,3.568,31.058-4.41,5.935,0,15.039,6.006-1.91,17.912,18.834,2.842,29.743,5.033,42.1,9.836,8.842,7.733,20.5c-.326,1.807,16.615,7.39,16.719,10.17.079,2.118-16.115.556-16.719,3.19-2.823,12.328,1.888,31.654-12.766,43.751-3.646,3.009-26.161,11.179-29.2,14.584-2.339,2.615-17.35,16.056-19.77,18.685-9.9,10.761-1.486,20.466-11.777,27.8-2.928,2.087-16.474,8.414-21.382,8.659-4.011,9.934,4.467,28.087-2.8,28.852-3.839.4-13.136-29.758-17.772-28.852-9.383,1.833-16.855,12.412-32.782,10.482-12.9-1.564-20.508-9.571-29.167-20.964-31.9,12.76-29.167,6.836-49.293-9.571s11.555-39.193-2.2-46.029-44.207,5.013-44.207,5.013,27.3-30.561,27.8-41.928-3.488-12.568-10.937-19.141.841-18.539-5.469-25.2-17.318-11.259-17.318-11.259,33.318-12.551,43.922-21.841,2.366-13.584,8.414-18.931,8.5-2.454,15.775-2.454-4.82-9.553,0-11.569-2.279-10.306,0-22.225,24.89-25.452,24.89-25.452S6867.94,1799.456,6869.342,1799.806Z" transform="translate(-6684.482 -1735)"/>
    <path id="Pfad_12" data-name="Pfad 12" class="cls-4" d="M6853.576,1726.405c.594.149,4.96,16.14,11.057,34.517,1.526,4.6,5.341,8.314,6.742,13.483,5.539,20.44,7.175,42.2,9.888,43.98,5.872,3.856,13.556-2.485,23.723,2.423s9.3,12.2,15.107,14.744.581-5.157,19.828-3.123,12.8,7.621,17.141,7.045,6.669-14.9,22.971-18.666,31.391-1.245,41.119,7.081-.712,10.917-2.465,23.8-9.669,15.436-5.259,24.54,17.3-4.152,29.2,16.591,2.842,29.743,5.033,42.1,9.836,8.842,7.733,20.5-1.5,13.876-15.677,24.928-20.42,2.279-41.016,19.281c-3.646,3.009-2,10.566-5.046,13.971-2.339,2.615-6.786,2.526-9.206,5.155-9.9,10.761-16.823,22.268-27.114,29.6-15.25,10.867-7.625-8.063-19.632-5.259s-14.9,19.018-28.4,16.477-11.306-19.982-25.591-26.643-17.09,6.836-31.551,0-12.533-20.508-26.292-27.344-28.747,0-28.747,0a129.437,129.437,0,0,1,16.477-25.241c10.167-11.919,24.715-14.023,24.189-22.436s-18.843-4.645-26.292-11.218,2.8-8.414-3.506-15.074-21.735-11.569-21.735-11.569,23.4-8.939,34-18.229,2.366-13.584,8.414-18.931,8.5-2.454,15.775-2.454,8.5,4.47,13.321,2.454,5-3.681,2.454-14.023-11.744-14.023-9.465-25.942,18.58-21.735,18.58-21.735S6852.173,1726.055,6853.576,1726.405Z" transform="translate(-6684.482 -1735)"/>
    <path id="Pfad_14" data-name="Pfad 14" class="cls-3" d="M7028.856,1818.388l64.153-63.8s-9.2,19.807-25.241,35.758S7028.856,1818.388,7028.856,1818.388Z" transform="translate(-6684.482 -1735)"/>
    <path id="Pfad_15" data-name="Pfad 15" class="cls-3" d="M7120,1978.6v5.609s53.286,1.052,53.637-2.1S7120,1978.6,7120,1978.6Z" transform="translate(-6684.482 -1735)"/>
    <path id="Pfad_16" data-name="Pfad 16" class="cls-3" d="M6980.478,2182.626c0,8.939-5.609-1.052-9.816-13.322s-7.011-35.758-7.011-35.758h5.259S6980.478,2173.687,6980.478,2182.626Z" transform="translate(-6684.482 -1735)"/>
    <path id="Pfad_17" data-name="Pfad 17" class="cls-3" d="M6678.186,2081.716l55.319-35.46s-18.685,26.889-22.331,30.079S6678.186,2081.716,6678.186,2081.716Z" transform="translate(-6684.482 -1735)"/>
    <path id="Pfad_18" data-name="Pfad 18" class="cls-3" d="M6670.72,1906.814c-.491-1.6,21.6-2.363,32.159-1.718s3.56,3.345,10.065,4.3,21.6,0,21.6,0l11.661,4.787s-7.764,6.26-26.635,4.419S6671.211,1908.41,6670.72,1906.814Z" transform="translate(-6684.482 -1735)"/>
    <path id="Pfad_20" data-name="Pfad 20" class="cls-5" d="M6898.569,2005.467s-29.031-21.328-29.031-28.438,21.181-8.591,22.514-23.106-20.736-20.884-17.181-34.955,21.772-12.442,31.4-21.328-3.11-15.256,7.11-14.219,17.922,16.144,33.77,18.366,22.217-18.514,29.623-9.479-3.851,30.215,0,45.619,11.553,9.627,15.4,16,6.961,3.7,0,9.479-18.958,3.11-27.845,13.626,2.073,22.513-7.7,28.438-17.773-7.554-31.4-4.74-23.106,16-23.106,16Z" transform="translate(-6684.482 -1735)"/>
    <path id="Pfad_21" data-name="Pfad 21" class="cls-6" d="M6922.929,1974.31c-12.146-4.443-17.711,4.468-23.137-9.574s11.169-16.914,11.808-22.02c.32-2.563-4.09-5.058-5.266-9.734-1.02-4.051,1.188-10.281,3.032-13.084,3.7-5.628,4.062-1.733,15.318-3.51,6.743-1.065,7.608-5.02,12.446-6.861,2.75-1.057,10.495-1.343,17.721,3.517,6.506,4.375,5.66,11.313,5.256,14.833-.6,5.407-5.22,6.714-3.989,13.244,1.925,10.22,6.435,6.878,6.435,12.8s-4.147,4-7.7,10.813-5.324,13.929-13.573,16.595S6935.075,1978.753,6922.929,1974.31Z" transform="translate(-6684.482 -1735)"/>
  </g>
</svg>
