<svg xmlns="http://www.w3.org/2000/svg" xmlns:xlink="http://www.w3.org/1999/xlink" width="460" height="460" viewBox="0 0 460 460">
  <defs>
    <style>
      .cls-1 {
        clip-path: url(#clip-explosion-1_7);
      }

      .cls-2 {
        fill: #7d7c7c;
      }

      .cls-3 {
        fill: #a4a2a4;
      }
    </style>
    <clipPath id="clip-explosion-1_7">
      <rect width="460" height="460"/>
    </clipPath>
  </defs>
  <g id="explosion-1_7" class="cls-1">
    <path id="Pfad_50" data-name="Pfad 50" class="cls-2" d="M12810.5,1994.735s-27.723-17.082-41.612-15.289-46.373,9.745-48.613,49.117,31.307,54.941,31.307,54.941-2.407,28.9,15.29,40.772,39.6,0,39.6,0h16.8s21.787,40.1,54.157,39.876,51.748-41.444,51.748-41.444,59.7,16.746,63.4-41.668-70.119-42.4-70.119-42.4-13.609-18.314-28.9-20.834-32.259,10.753-32.259,10.753-7.8-17.754-20.5-26.21S12810.5,1994.735,12810.5,1994.735Z" transform="translate(-12672.482 -1735)"/>
    <path id="Pfad_51" data-name="Pfad 51" class="cls-3" d="M12810.5,1994.735s-27.723-17.082-41.612-15.289-32.767,4.13-41.117,34.087,36.611,41.413,36.611,41.413,31.5-14.765,28.054,0-12.091,17.469,0,24.609,41.834-6.4,48.362,3.949,9.949,19.212,27.432,25.582c10.9,3.971,26.685-3.85,39.374-3.937,13.822-.1-7.874-17.7,7.875-21.644s17.225,9.34,32.482,9.832,51.68-18.21,35.93-41.343-61.437-13.349-61.437-13.349-13.609-18.314-28.9-20.834-32.259,10.753-32.259,10.753-7.8-17.754-20.5-26.21S12810.5,1994.735,12810.5,1994.735Z" transform="translate(-12672.482 -1735)"/>
    <path id="Pfad_52" data-name="Pfad 52" class="cls-2" d="M12798.831,1889.821s23.131,22.64,15.749,41.343-35.436,16.734-35.436,16.734-6.768,18.826-17.719,22.64-7.875,4.922-26.086-7.383-46.756-21.656-46.756-41.835,29.53-35.437,29.53-35.437-3.69-20.548,6.4-30.022,28.546-5.414,33.959-7.875,12.3-11.32,12.8-21.656c.135-2.832-2.086-7.481-3.592-13.067-3.717-13.8-7.471-33.892,11.468-47.47,26.086-18.7,55.614,6.4,55.614,6.4s31.009.984,30.516,23.624-28.055,11.32-30.516,19.687a115.96,115.96,0,0,0-3.445,16.242s-.493.492,0,32.976-28.546,15.75-28.546,15.75Z" transform="translate(-12672.482 -1735)"/>
    <path id="Pfad_53" data-name="Pfad 53" class="cls-3" d="M12798.831,1889.821s18.659,14.647,13.408,33.357-35.449,17.4-35.449,17.4-1.522-11.692-12.474-7.878-4.438,24.449-22.649,12.145-1.969-10.832-13.786-17.4-20.493.5-21.335-17.4,16.826-15.144,26.915-24.618c4.57-4.292.3-10.631,0-17.069-.326-7.092,2.948-14.081,5.909-15.427,5.413-2.461,28.736.053,32.147-27.966,0,0,15.961,5.431,15.961-2.9-3.617-13.213-26.2-44.169-8.334-56.273,27.822-18.849,55.614,6.4,55.614,6.4s32.486,2.509,21.8,17.27-19.343,17.674-21.8,26.041a115.96,115.96,0,0,0-3.445,16.242s-.493.492,0,32.976-28.546,15.75-28.546,15.75Z" transform="translate(-12672.482 -1735)"/>
    <path id="Pfad_54" data-name="Pfad 54" class="cls-2" d="M13038.329,1860.157a35.971,35.971,0,0,1,9.963,9.567c3.938,5.908,5.793,14.066,5.793,14.066l-2.626,20.023,11.16,29.542-3.282,21.336s40.605,26.239,18.941,63.291-61.93,19.258-61.93,19.258-14.566,11.071-22.456,0,2.741-20.952,2.741-20.952-4.712-10.314-4.712-20.68,4.712-20.783,4.712-20.783-17.176-13.416-21.221-28.782,5.042-32.682,5.042-32.682-8.834-2.344-14.306-7.956-7.582-14.492-7.582-14.492-16.546-5.9-24.054-15.239-5.977-22.112-5.977-22.112-19-.112-28.274-7.47-8.815-21.963-8.815-21.963-20.394.224-13.782-15.2,19.011-1.979,19.011-1.979,8.73-10.571,18.19-12.812,19.647,3.847,19.647,3.847,10.514-10.729,19.944-11.467,17.78,8.516,17.78,8.516,33.339-40.04,63.759-16.733,24.5,32.163,24.5,52.591S13038.329,1860.157,13038.329,1860.157Z" transform="translate(-12672.482 -1735)"/>
    <path id="Pfad_55" data-name="Pfad 55" class="cls-3" d="M13021.273,1860.815c.964,5.847,10.646.815,16.945,4.646,3,1.823,9.118,6.327,7.786,12.5-2.531,11.724-20.879,19.585-16.661,27.882s22.115-2.026,22.115-2.026l5.614,14.165c-2.571,10.61-18.364,28.241-17.409,34.41,1.97,12.719,19.673,2.3,19.673,2.3s30.211,9.314,8.547,46.366-36.318,15.573-54.816,24.618-11.285,22.636-19.175,11.564,2.741-20.952,2.741-20.952-4.712-10.314-4.712-20.68c0-4.768,1.261-13.819,5.661-19.931,4.8-6.666,11.729-1.72,10.744-9.557s-23.827-13.377-27.872-28.743,0-24.017,0-24.017-8.834-2.344-14.306-7.956c-2.829-2.9-6.038-6.723-4.639-12.705,1.177-5.027,10.784,1.768,4.639-13.7-9.413-14.5-18.7-2.42-26.21-11.758s-10.079-17.173-10.079-17.173-18.486-7.936-27.759-15.294-1.327-15.382-9.371-19.626c-11.4,1.061-10.432,6.719-10.432,6.719s-8.534-3.837-4.634-12.938c6.611-15.426,19.011-1.979,19.011-1.979s8.73-10.571,18.19-12.812,19.647,3.847,19.647,3.847,10.514-10.729,19.944-11.467,17.78,8.516,17.78,8.516,33.339-40.04,63.759-16.733,12.262,26.021,8.253,45.83S13018.814,1845.9,13021.273,1860.815Z" transform="translate(-12672.482 -1735)"/>
    <circle id="Ellipse_5" data-name="Ellipse 5" class="cls-2" cx="9.5" cy="9.5" r="9.5" transform="translate(180.518 92)"/>
    <path id="Pfad_56" data-name="Pfad 56" class="cls-3" d="M9.5,0A9.5,9.5,0,0,1,19,9.5C19,14.747,4.253,0,9.5,0Z" transform="translate(180.518 92)"/>
    <ellipse id="Ellipse_6" data-name="Ellipse 6" class="cls-2" cx="16" cy="14.5" rx="16" ry="14.5" transform="translate(287.518 260)"/>
    <path id="Pfad_57" data-name="Pfad 57" class="cls-3" d="M16,0c8.837,0,16,6.492,16,14.5,0,4.108-17.81,2.646-23.2-2.347C4.105,7.8,11.7,0,16,0Z" transform="translate(287.518 260)"/>
    <ellipse id="Ellipse_7" data-name="Ellipse 7" class="cls-2" cx="17.5" cy="16" rx="17.5" ry="16" transform="translate(117.518 215)"/>
    <path id="Pfad_58" data-name="Pfad 58" class="cls-3" d="M17.5,0C27.165,0,35,7.163,35,16s-8.431-4.086-18.1-4.086c-5.18,0-4.8-4.156-8.093-1.9C6.421,11.647,0,20.1,0,16,0,7.163,7.835,0,17.5,0Z" transform="translate(117.518 215)"/>
  </g>
</svg>
