<svg xmlns="http://www.w3.org/2000/svg" xmlns:xlink="http://www.w3.org/1999/xlink" width="1779" height="344" viewBox="0 0 1779 344">
  <defs>
    <clipPath id="clip-alkaid-light-blue">
      <rect width="1779" height="344"/>
    </clipPath>
  </defs>
  <g id="alkaid-light-blue" clip-path="url(#clip-alkaid-light-blue)">
    <path id="Pfad_12" data-name="Pfad 12" d="M11368.358,2911.629s-22.765-67.124-126.885-80.909-193.571,26.993-193.571,26.993l-154.933,88.43,132.251,59.606,348.321,22.973Z" transform="translate(-10394.767 -2813.323)" fill="#95ebe4" stroke="#707070" stroke-width="1"/>
    <path id="Form" d="M13834.146,680.207s6.8,9.388-2.484,12.32l-264.223-5.572-148.63-4.549s-170.237,5.176-218.77,10.864c0,0-59.213,4.315-91.214,10.094s-166.134,50.521-166.134,50.521c.471-.47,15.274,16.214,15.274,16.214-135.376,31.922-290.422,41.8-290.422,41.8s-45.492-8.225-53.541-9.819c-54.5-10.794-136.508-30.692-397.709-78.929l-41.726-60.644-74.061-4.821-16.623-20.4c264.344-133.026,399.537-167.072,399.537-167.072,78.356-2.764,94.412,1.808,94.412,1.808-3.976,19.589-14.841,75.675-14.841,81.282s14.841-58.854,14.841-58.854c106.092,7.228,134.229,19.1,134.229,19.1l-2.987,18.214s18.375,8.757,41.46,21.538,41.936,38.946,41.936,38.946h-167.1l-11.584,11.872,344.176,6.783c48.492-21.957,74.116-43.624,74.116-43.624,137.42,8.056,410.233,13.591,482.547,32.886C13514.629,600.164,13748.34,642.088,13834.146,680.207Z" transform="translate(-12058.687 -469.323)" fill="#857deb" stroke="#707070" stroke-width="1"/>
    <path id="Hinten_groß" data-name="Hinten groß" d="M11871.745,3067.349l-14.456,20.134-119.255-52.658-22.715-33.04h41.3l74.857,4.646Z" transform="translate(-11715.32 -2813.323)" fill="#95ebe4" stroke="#707070" stroke-width="1"/>
    <path id="Hinte_klein" data-name="Hinte klein" d="M11830.445,3045.149l-65.049-5.163h0l-35.621-38.2,74.857,4.646Z" transform="translate(-11688.476 -2813.323)" fill="none" stroke="#707070" stroke-width="1"/>
    <path id="Schatten_vorne" data-name="Schatten vorne" d="M11207.729,3024.292l-369.359-18.766-373.384-17.552-371.061-6.2,123.808,1.924,25.907,17.694,191.531,12.39,84.667,28.394c93.687-11.245,269.744-14.972,269.744-14.972l415.616,9.287S11214.105,3034.729,11207.729,3024.292Z" transform="translate(-9432.21 -2812.323)" fill="#95ebe4" stroke="#707070" stroke-width="1"/>
    <path id="Strich_vorne" data-name="Strich vorne" d="M10417.192,3030.349a107.023,107.023,0,0,1-26.7-25.584s-8.482-41.157-6.5-60.95" transform="translate(-8929.148 -2813.323)" fill="none" stroke="#707070" stroke-width="1"/>
    <path id="Strich_hinten" data-name="Strich hinten" d="M11071.605,2916.559l-75.027,71.079V2998.4l-200.783-2.906" transform="translate(-9995.655 -2813.323)" fill="none" stroke="#707070" stroke-width="1"/>
    <path id="Lüftung" d="M11773.16,2907.22l2.115,6.58h23.263v5.875l-100.572,38.537h-33.133S11764.7,2908.828,11773.16,2907.22Z" transform="translate(-11591.626 -2813.323)" fill="none" stroke="#707070" stroke-width="1"/>
    <path id="Lüftung_2" d="M11765.481,2924.063l-13.584-3.1.963,7.594-12.622-2.246-.641,7.594-9.947-2.888v6.1l-9.2-2.246v5.99l-13.048-2.353.535,7.273-12.3-1.283v5.668l-9.653-2.032v6.31l-8.824-.749-1.176,4.385Z" transform="translate(-11569.722 -2813.323)" fill="none" stroke="#707070" stroke-width="1"/>
    <path id="Kokpit" d="M11019.584,2927.837l-80.465.494-17.565,25.752,46.876.823S10975.7,2953.69,11019.584,2927.837Z" transform="translate(-10069.394 -2813.323)" fill="none" stroke="#707070" stroke-width="1"/>
    <path id="Form_2" d="M10970.739,3114.3l-81.062-67.019s-117.626,1.775-161.756-5.016c0,0-14.527-14.669-14.218-27.18s1.31-23.136,19.518-32.3c0,0,35.951.3,253.3,3.4,0,0,30.235,2.59,113.083,2.331,4.1-.013,7.539.364,11.315.508,9.6.367,17.608.887,25.364,1.254,29.522,1.4,58.93,3.927,224.038,9.581l486.175,24.5s-54.419-29.253-320.108-80.392c0,0-63.963-17.283-379.5-27.494,0,0-64.311-2.419-101.839-4.781,0,0-23.146,17.619-74.273,43.281l-344.7-6.508-4.516-6.814H10460.22l-56.488-72.51.031-24.343c-126.611,46.017-307.116,136.091-307.116,136.091l17.036,20.65,73.309,5.163,39.752,58.854,453.406,90.732C10848.992,3143.579,10970.739,3114.3,10970.739,3114.3Z" transform="translate(-10071.395 -2813.323)" fill="#9bb2e0" stroke="#707070" stroke-width="1"/>
    <path id="Auspuff_außen" d="M11717.063,3075.711c-66.971-86.469-85.366-90.411-85.366-90.411-72.016-.551-121.227,3.688-121.227,3.688-10.173,26.28,15.853,66.674,15.853,66.674,42.643,11.021,103.764,19.635,152.3,25.432S11717.063,3075.711,11717.063,3075.711Z" transform="translate(-11354.302 -2813.323)" fill="#919df5" stroke="#000" stroke-width="1"/>
    <path id="Pfad_9" data-name="Pfad 9" d="M11157.9,3047.083l-46.353-1.569-33.071-3.323s-16.814-15.211-14.034-33.9,19.834-25.709,19.834-25.709l123.8,2.234s22.859,10.811,21.623,33.36-21.623,28.906-21.623,28.906Z" transform="translate(-10422.13 -2813.323)" fill="#919df5" stroke="#707070" stroke-width="1"/>
    <path id="Pfad_10" data-name="Pfad 10" d="M11241.339,2950.451v14.858s-116.52-5.456-124.93,59.833,124.93,65.514,124.93,65.514,48.425.979,77.617,13.312,39.151,36.02,39.151,36.02" transform="translate(-10602.39 -2813.323)" fill="none" stroke="#000" stroke-width="1"/>
    <path id="Pfad_11" data-name="Pfad 11" d="M11562.625,3031.979l-72.445,1.255-29.5-22.186h-102.578" transform="translate(-11048.987 -2813.323)" fill="none" stroke="#000" stroke-width="1"/>
  </g>
</svg>
