<svg xmlns="http://www.w3.org/2000/svg" xmlns:xlink="http://www.w3.org/1999/xlink" width="961" height="577" viewBox="0 0 961 577">
  <defs>
    <clipPath id="clip-Meteroid9">
      <rect width="961" height="577"/>
    </clipPath>
  </defs>
  <g id="Meteroid9" clip-path="url(#clip-Meteroid9)">
    <path id="Pfad_88" data-name="Pfad 88" d="M3459.84,8782.648c10.067,19.29-.462,78.17-27.588,105.537s-56.175,90.088-97.779,131.693S3156.7,9123.415,3156.7,9123.415s-67.677,1.124-140.813,23.894S2914,9195.8,2872.041,9209.787s-50.473,9.557-50.473,9.557-61.928,54.352-125.47,36.975-128.7-106.48-128.7-106.48l-64.051-133.545s1.212-110.242,55.765-185.479,87.132-82.207,162.445-115.469,32.125-9.547,138.805-17.578,219.539-9.405,287.915-14.547,137.745,61.825,137.745,61.825S3449.773,8763.358,3459.84,8782.648Z" transform="translate(3463.59 9259.746) rotate(180)" fill="#909090"/>
    <path id="Pfad_89" data-name="Pfad 89" d="M3459.84,8782.648c10.067,19.29-165.492,6.481-165.492,6.481s-117.729-120.6-146.07-95.346c-8.98,8,1.968,46.344-8.374,57.522-40.526,43.806-144.2,8.667-208.027,31.342-35.648,16.7-57.917-120.1-120.955-67.3-35.954,31.533-161.862,79.5-161.862,79.5l-17.4,57.528-57.523,34.671-6.737,58.407s-58.777,45.488-50.522,64.81c2.1,4.295,54.38-6.539,65.743,9.325,48.469,67.665,116.944,237.684,113.479,236.736-63.542-17.377-128.7-106.48-128.7-106.48l-64.051-133.545s1.212-110.242,55.765-185.479,87.132-82.207,162.445-115.469,32.125-9.547,138.805-17.578,219.539-9.405,287.915-14.547,137.745,61.825,137.745,61.825S3449.773,8763.358,3459.84,8782.648Z" transform="translate(3463.59 9259.746) rotate(180)" fill="#252424"/>
    <path id="Pfad_90" data-name="Pfad 90" d="M2612.049,8939.662c17.036,9.146,48.24,11.656,57.027-10.76s-4.842-69.76-21.878-78.905-32.459,30.307-41.246,52.723S2595.013,8930.517,2612.049,8939.662Z" transform="translate(3463.59 9259.746) rotate(180)" fill="#c4c4c4"/>
    <path id="Pfad_91" data-name="Pfad 91" d="M2612.049,8939.662c17.036,9.146,48.24,11.656,57.027-10.76s-4.842-69.76-21.878-78.905c-8.552-4.591-11.033,24.155-19.888,46.853C2618.659,8919.021,2603.565,8935.107,2612.049,8939.662Z" transform="translate(3463.59 9259.746) rotate(180)" fill="#121212"/>
    <circle id="Ellipse_13" data-name="Ellipse 13" cx="39" cy="39" r="39" transform="translate(600.59 284.746) rotate(180)" fill="#c2c2c2"/>
    <path id="Pfad_92" data-name="Pfad 92" d="M78,39A39,39,0,0,1,39,78c-9.843,0-9.456-22.269,1.577-34.165C53.238,30.183,78,27.3,78,39Z" transform="translate(600.59 284.746) rotate(180)" fill="#303030"/>
    <ellipse id="Ellipse_14" data-name="Ellipse 14" cx="24" cy="11.5" rx="24" ry="11.5" transform="matrix(-0.914, 0.407, -0.407, -0.914, 448.417, 148.344)"/>
    <path id="Pfad_94" data-name="Pfad 94" d="M3432.252,8888.186c-27.125,27.367-56.175,90.088-97.779,131.693S3156.7,9123.415,3156.7,9123.415s-67.677,1.124-140.813,23.894S2914,9195.8,2872.041,9209.787s-50.473,9.557-50.473,9.557l76.876-49.053s45.672-67.187,83.064-80.408c101.875-36.02,213.414-3.366,244.9-24.6C3296.234,9017.145,3445.489,8874.83,3432.252,8888.186Z" transform="translate(3463.59 9259.746) rotate(180)" fill="#fff" opacity="0.75"/>
    <path id="Pfad_96" data-name="Pfad 96" d="M2972.307,8703.024c36.835-9.441,128.106-9.441,121.695,0s-116.916,37.767-147.339,37.767S2935.472,8712.466,2972.307,8703.024Z" transform="translate(3463.59 9259.746) rotate(180)" fill="#090909"/>
  </g>
</svg>
