<svg xmlns="http://www.w3.org/2000/svg" xmlns:xlink="http://www.w3.org/1999/xlink" width="718" height="390" viewBox="0 0 718 390">
  <defs>
    <clipPath id="clip-Meteroid6">
      <rect width="718" height="390"/>
    </clipPath>
  </defs>
  <g id="Meteroid6" clip-path="url(#clip-Meteroid6)">
    <path id="Pfad_58" data-name="Pfad 58" d="M2597.837,4468.46c5.788-23.1,145.013-76.986,180.709-77.931s70.025-13.553,70.025-13.553l34.448-14.683h29.93l18.071-15.812s61.8-24.707,125.4-20.753,129.005,36.565,129.005,36.565,60.034.554,77.116,42.061,36.339,78.436-10.968,126.41-116.278,40.525-178.26,65.486-69.669,34.357-69.669,34.357l-120.625,44.855-104.472,13.361s-134.655,35.981-185.109,22.8-22.889-41.6-16.708-75.518,23.437-20.955,28.318-61.654S2592.049,4491.559,2597.837,4468.46Z" transform="translate(-2563.659 -4325.3)" fill="#838383"/>
    <path id="Pfad_59" data-name="Pfad 59" d="M3251.573,4530.764c-47.307,47.974-116.278,40.525-178.26,65.486s-69.669,34.357-69.669,34.357l-120.625,44.855-104.472,13.361s-134.655,35.981-185.109,22.8c0,0,17.078-24.362,34.454-20.019,0,0,31.5,14.062,60.381,5.212,2.207-.662,17.811-21.357,17.811-21.357l67.766,7.891s34.032-83,98.021-34.562c0,0,78.026-41,59.982-120.193,0,0,105.024-29.973,158.021-134.228,0,0-6.816,56.276,5.633,64.141,5.141,3.247,27.395-49.935,31.438-42.51,8.378,15.384,3.164,60.547,15.225,63.271,9.115,2.059,26.107-75.749,35-71.378,6.56,3.224,9.3-6.166,15.225,0,20.05,20.858,12.582,111.973,29.461,122.871,15.779,10.188,10.592-52.813,20.761-43.534C3253.353,4497.03,3252.977,4529.339,3251.573,4530.764Z" transform="translate(-2563.659 -4325.3)" fill="#222121"/>
    <path id="Pfad_61" data-name="Pfad 61" d="M15,0c8.284,0,15,6.268,15,14S23.284,28,15,28,0,21.732,0,14,6.716,0,15,0Z" transform="translate(268.341 220.7)" fill="#959595"/>
    <path id="Pfad_62" data-name="Pfad 62" d="M15,0c8.284,0,15,6.268,15,14,0,0-7.436-3.009-15-1.978C7.578,13.035,0,17.982,0,14,0,6.268,6.716,0,15,0Z" transform="translate(268.341 220.7)" fill="#0e0e0e"/>
    <path id="Pfad_63" data-name="Pfad 63" d="M2979.16,4463.151c7.795.646,19.506,11.407,18.86,19.772s-13.65,14.335-21.445,13.689-10.381-7.909-9.734-16.274S2971.365,4462.5,2979.16,4463.151Z" transform="translate(-2563.659 -4325.3)" fill="#dadada"/>
    <path id="Pfad_64" data-name="Pfad 64" d="M2979.16,4463.151l-2.585,33.461c-7.795-.646-10.381-7.909-9.734-16.274S2971.365,4462.5,2979.16,4463.151Z" transform="translate(-2563.659 -4325.3)" fill="#323232"/>
    <ellipse id="Ellipse_7" data-name="Ellipse 7" cx="8.5" cy="12.5" rx="8.5" ry="12.5" transform="translate(42.341 307.7)" fill="#efefef"/>
    <path id="Pfad_67" data-name="Pfad 67" d="M8.5,0C13.194,0,17,5.6,17,12.5c0,0-5.041-3.271-9.291-3.271S0,12.5,0,12.5C0,5.6,3.806,0,8.5,0Z" transform="translate(42.341 307.7)" fill="#0c0c0c"/>
    <path id="Pfad_69" data-name="Pfad 69" d="M2597.837,4468.46c5.788-23.1,145.013-76.986,180.709-77.931s70.025-13.553,70.025-13.553l34.448-14.683h29.93l18.071-15.812s61.8-24.707,125.4-20.753-137.1,64.8-137.1,64.8-68.388,8.654-129.6,30.354c-41.169,14.593-70.289,44.493-102.734,57.544-50.759,17.691-69.418,104.51-69.418,104.51s-42.371,61.616-40.832,53.171c6.182-33.917,23.437-20.955,28.318-61.654S2592.049,4491.559,2597.837,4468.46Z" transform="translate(-2563.659 -4325.3)" fill="#aeaeae"/>
    <path id="Pfad_70" data-name="Pfad 70" d="M3251.573,4530.764c-47.307,47.974-116.278,40.525-178.26,65.486s-69.669,34.357-69.669,34.357-32.155-41.672-5.8-52.358c26.979-10.941,82.82-42.127,125.908-49.8,35.165-6.265,83.538,16.708,83.538,16.708S3251.894,4530.438,3251.573,4530.764Z" transform="translate(-2563.659 -4325.3)" fill="#101010"/>
    <ellipse id="Ellipse_10" data-name="Ellipse 10" cx="32" cy="29" rx="32" ry="29" transform="translate(103.341 243.7)" fill="#c6c6c6"/>
    <path id="Pfad_72" data-name="Pfad 72" d="M31.756,0C49.294,0,60.394,12.429,61.863,18.616L36.58,26.507s-1.049,9.317-10.194,9.929S0,28.954,0,28.954C0,12.963,14.218,0,31.756,0Z" transform="translate(103.341 243.7)" fill="#242424"/>
  </g>
</svg>
