<svg xmlns="http://www.w3.org/2000/svg" xmlns:xlink="http://www.w3.org/1999/xlink" width="612" height="265" viewBox="0 0 612 265">
  <defs>
    <clipPath id="clip-Meteroid12">
      <rect width="612" height="265"/>
    </clipPath>
  </defs>
  <g id="Meteroid12" clip-path="url(#clip-Meteroid12)">
    <path id="Pfad_123" data-name="Pfad 123" d="M2695.548,12288.222c3.465-4.292,6.177-14.118,28.994-13.273s23.467-1.763,62.271,16.653,28.981,11.536,94.683,56.15,168.127,122.309,168.127,122.309l119.229,51.778s40.758,21.6,45.637,59.327-3.68,72.9-26.12,91.571-63.49,9.66-63.49,9.66l-181.241-109.521s-51.542-33.4-114.25-90.882-101.137-96.755-136.581-139.047c0,0-5.879-16.439-5.193-30.121S2692.083,12292.514,2695.548,12288.222Z" transform="translate(-11244.002 -5410.023) rotate(-51)" fill="#a8a8a8"/>
    <path id="Pfad_124" data-name="Pfad 124" d="M2711.763,12342.947c5.224-.993,14.433-6.36,53.238,12.056s52.24,76.208,52.24,76.208l48.552,26.12h54.083s-2.766,22.819,2.458,29.192c1.254,1.529,15.749,38.872,15.749,38.872l17.823-21.817,13.881,19.281s46.2,2.72,56.258,4.254c51.326,7.834,94.736,23.136,98.835,54.824,4.879,37.725,63.49,90.8,63.49,90.8-22.44,18.668-63.49,9.66-63.49,9.66l-181.241-109.521s-51.542-33.4-114.25-90.882-101.137-96.755-136.581-139.047c0,0-5.879-16.439-5.193-30.121S2706.539,12343.94,2711.763,12342.947Z" transform="translate(-11244.002 -5410.023) rotate(-51)" fill="#3c3c3c"/>
    <path id="Pfad_125" data-name="Pfad 125" d="M2941.217,12497.229c14.592,7.91,30.911,4.364,50.549,5.273s18.637,4.045,28-1.637,13.728-7.318,9.455-21.092-26.547-34-26.547-34-28.684-15.183-46-8.909-19.41,18.91-23.274,34S2926.625,12489.318,2941.217,12497.229Z" transform="translate(-11244.002 -5410.023) rotate(-51)" fill="#e2e2e2"/>
    <path id="Pfad_126" data-name="Pfad 126" d="M2991.765,12502.5c19.637.909,18.637,4.045,28-1.637s13.728-7.318,9.455-21.092-26.547-34-26.547-34S2972.128,12501.593,2991.765,12502.5Z" transform="translate(-11244.002 -5410.023) rotate(-51)" fill="#343434"/>
    <path id="Pfad_127" data-name="Pfad 127" d="M2774.116,12292.444c6.014-.595,19.861,3.531,33.149,14.406s23.323,24.2,20,29.093-20.7-1.923-33.289-9.511-17.064-20.841-17.064-20.841S2768.1,12293.039,2774.116,12292.444Z" transform="translate(-11244.002 -5410.023) rotate(-51)" fill="#747474"/>
    <path id="Pfad_134" data-name="Pfad 134" d="M3061.015,12632.512c19.475,3.506,29.082-33.756,29.082-33.756s-58.424-54.658-77.9-58.163-12.2,21.162,0,44.142S3041.54,12629.006,3061.015,12632.512Z" transform="translate(-11244.002 -5410.023) rotate(-51)" fill="#1e1e1e"/>
  </g>
</svg>
