<svg xmlns="http://www.w3.org/2000/svg" xmlns:xlink="http://www.w3.org/1999/xlink" width="835" height="997" viewBox="0 0 835 997">
  <defs>
    <clipPath id="clip-Meteroid3">
      <rect width="835" height="997"/>
    </clipPath>
  </defs>
  <g id="Meteroid3" clip-path="url(#clip-Meteroid3)">
    <path id="Umriss" d="M2490.509,2897.4l74.238-83.706c45.86-22.71,63.538-66.492,63.538-66.492s37.965-51.339,47.112-74.062,49.409-42.585,49.409-42.585,29.138-6.807,86.534-44.837l29.072-6.551,16.925-7.371s33.56.159,51.593,1.911,20.539,5.1,20.539,5.1c19.962,12.181,72.2-54.9,109.572-59.125,0,0,111.879-6.472,128.73,17.744l45.424,3.194c79.319-30.6,136.449,58.909,136.449,58.909s13.412,25.954,39.746,59.263,40.646,120.078,40.646,120.078l-3.124,48.236a730.466,730.466,0,0,0-29.209,79.437c-13.3,44.077-10.318,59.53-23.988,96.872s-30.671,29.455-30.69,52.5-86.118,150.248-86.118,150.248c9.083,61.161-44.595,112.691-103.5,133.762s-105.58,31.546-105.58,31.546l-271.164-35.324s-144.012-33.473-201.475-77.064,1.52-28.886-28.379-97.3-91.22-176.358-91.22-176.358Z" transform="matrix(0.819, -0.574, 0.574, 0.819, -3700.279, -196.975)" fill="#b3b3b3"/>
    <path id="Pfad_2" data-name="Pfad 2" d="M2791.688,3065.937l40.522-26.774s66.346,31.41,94.793,26.774,89.728-68.02,89.728-68.02,39.644,9.468,64.339,36.5,15.629,45.942,34.443,71.631,47.161,18.225,43.769,31.525-32.926,31.494-56.986,33.665-13.566-14.127-39.254-24.981-37.628-15.919-62.23-15.919-36.18,15.919-36.18,15.919-27.008,2.131-37.628-20.985l-34.01-7.236s-25.471,23.407-31.839,19.537-3.618-14.653-20.985-32.562S2791.688,3065.937,2791.688,3065.937Z" transform="matrix(0.819, -0.574, 0.574, 0.819, -3700.279, -196.975)" opacity="0.59"/>
    <path id="Pfad_3" data-name="Pfad 3" d="M3154.514,3339.666s-24.338-67.686-29.287-69.61-21.837-3.425-21.837-3.425l-11.561-22.265c-9.349-15.762,50.1-77.5,50.1-77.5s33.611-3.747,50.524,3.425.991,16.267,17.127,25.262,47.417,10.721,47.417,10.721C3267.779,3301.27,3154.514,3339.666,3154.514,3339.666Z" transform="matrix(0.819, -0.574, 0.574, 0.819, -3700.279, -196.975)" fill="#363636"/>
    <path id="Pfad_4" data-name="Pfad 4" d="M2455.65,2985.466s10.993,4.378,18.763-36.075c0,0,3.87-12.674,48.164-2.912S2627.6,3130.52,2627.6,3130.52s24.921,48.648,24.02,70.977c0,0,70.573,18.892,59.911,26.815s-27.521,34.947-27.521,34.947c22.89,24.673,115.325,34.656,115.325,34.656s-12.49,15.683-12.517,18.448-7.287,12.438-10.162,19.844c0,0-144.015-33.52-201.476-77.126s1.513-28.9-28.37-97.3S2455.65,2985.466,2455.65,2985.466Z" transform="matrix(0.819, -0.574, 0.574, 0.819, -3700.279, -196.975)" fill="#272727"/>
    <path id="Pfad_29" data-name="Pfad 29" d="M2827.228,2762.794s27.23-45.286,69.094-41.354,98.362,57.081,98.362,57.081-35.894,55.624-32.035,113.869c0,0-53.222,7.062-88.315-12.814s-52.056-66.691-52.056-66.691C2771.968,2786.092,2827.228,2762.794,2827.228,2762.794Z" transform="matrix(0.819, -0.574, 0.574, 0.819, -3700.279, -196.975)" fill="#dedede"/>
    <path id="heller_Bereich" data-name="heller Bereich" d="M2675.4,2673.145c9.147-22.723,49.409-42.585,49.409-42.585s29.138-6.807,86.534-44.837l29.072-6.551,16.925-7.371s33.56.159,51.593,1.911,20.539,5.1,20.539,5.1c19.962,12.181,72.2-54.9,109.572-59.125,0,0,111.879-6.472,128.73,17.744l45.424,3.194c79.319-30.6,136.449,58.909,136.449,58.909s-144.225-10.675-117.891,22.635-127.594-22.635-127.594-22.635l-74.61,65.887s-1.839-1.906-15.138,42.171-143.4-26.529-157.073,10.813-88.384,38.927-88.384,38.927l27.208-64.156S2666.25,2695.868,2675.4,2673.145Z" transform="matrix(0.819, -0.574, 0.574, 0.819, -3700.279, -196.975)" fill="#e4e4e4"/>
    <path id="Pfad_32" data-name="Pfad 32" d="M3146.292,2798.938c15.1,0,32.812,19.455,34.263,42.684s-13.357,50.234-28.456,50.234-30.489-27-31.94-50.234S3131.193,2798.938,3146.292,2798.938Z" transform="matrix(0.819, -0.574, 0.574, 0.819, -3700.279, -196.975)" fill="#7d7d7d"/>
    <path id="Pfad_33" data-name="Pfad 33" d="M2654.3,3056.8c-6.31-11.782-6.924-33.281-6.924-33.281s21.994-12.537,31.1-6,12.688,18.239,13.352,28.34c0,0,14.4,8.8,9.38,17.2s-19.655,0-19.655,0l8.264,14.3-17.2-6.7A27.907,27.907,0,0,1,2654.3,3056.8Z" transform="matrix(0.819, -0.574, 0.574, 0.819, -3700.279, -196.975)" fill="#131313"/>
    <path id="Pfad_34" data-name="Pfad 34" d="M2733.118,3080.054c-7.015-2.389-12.708-13.826-12.708-13.826s2.567-11.717,10.065-14.03,15.428-1.119,19.927,4.778,2.847,14.615-1.932,18.808S2740.133,3082.444,2733.118,3080.054Z" transform="matrix(0.819, -0.574, 0.574, 0.819, -3700.279, -196.975)" fill="#a6a6a6"/>
    <path id="Pfad_35" data-name="Pfad 35" d="M2737.083,3067.854c-7.015-2.389-14.106-13.344-6.608-15.656s15.428-1.119,19.927,4.778.305,7.295-4.473,11.489S2744.1,3070.244,2737.083,3067.854Z" transform="matrix(0.819, -0.574, 0.574, 0.819, -3700.279, -196.975)" fill="#020202"/>
    <path id="Pfad_41" data-name="Pfad 41" d="M2961.285,3087.511s8.02-4.648,15.129-4.284,11.461,2.3,13.306,5.742-5.924,8.02-5.924,8.02l-9.205,1.367-13.853-6.471Z" transform="matrix(0.819, -0.574, 0.574, 0.819, -3700.279, -196.975)" fill="#050505"/>
    <path id="Pfad_42" data-name="Pfad 42" d="M2960.738,3091.916l-2.035,3.838s12.794,8.376,19.89,9.4,7.189-3.246,8.493-5.291-3.277-2.889-3.277-2.889l-9.275,1.406Z" transform="matrix(0.819, -0.574, 0.574, 0.819, -3700.279, -196.975)" fill="#686868"/>
  </g>
</svg>
