<svg xmlns="http://www.w3.org/2000/svg" xmlns:xlink="http://www.w3.org/1999/xlink" width="960" height="489" viewBox="0 0 960 489">
  <defs>
    <clipPath id="clip-Meteroid11">
      <rect width="960" height="489"/>
    </clipPath>
  </defs>
  <g id="Meteroid11" clip-path="url(#clip-Meteroid11)">
    <path id="Pfad_122" data-name="Pfad 122" d="M2489.974,11229.618s28.247-59.894,53.461-87.172,47.393-21.941,47.393-21.941,21.417.54,50.818-9.334,66.787-30.16,66.787-30.16l28.962-11.409,82.377-18.98,59.614,2.458,56.926-7.067s23.584-6.914,56.849-4.609,76.208,13.828,76.208,13.828l34.142,16.684s2.84,9.689,32.545,24.2,86.275,33.856,86.275,33.856,42.064-4.375,91.835,27.634,73.591,51.628,107.249,100.4,27.383,94.7,27.383,94.7-2.026,83.469-44.835,127.65-40.654,51.66-126.4,49.076-219.673-35.314-219.673-35.314l-224.346-61.279s-108.747,7.473-182.81-18.721-113.442-86.053-113.442-86.053Z" transform="translate(-2489.974 -11040.932)" fill="#64635f"/>
    <path id="Pfad_135" data-name="Pfad 135" d="M2489.974,11229.618s19.074-39.218,47.318-50.4,39.569,22.69,65.658,5.678,0,66,19.871,114.5,45.421,79.487,59.615,79.487,30.965-26.766,68.742-21.562,31.517,24.6,82.365,42.379,56.37,17.14,121.026,28.731,71.183,7.988,133.261,4.411,81.788-21.025,115.052-18.721,52.426,32.62,88.9,47.47,31.556,10.687,56.986,11.927,98.006-37.34,55.2,6.842-40.654,51.66-126.4,49.076-219.673-35.314-219.673-35.314l-224.346-61.279s-108.747,7.473-182.81-18.721-113.442-86.053-113.442-86.053Z" transform="translate(-2489.974 -11040.932)" fill="#060606" opacity="0.71"/>
    <path id="Pfad_136" data-name="Pfad 136" d="M2879.387,11053.079l56.926-7.067s23.584-6.914,56.849-4.609,76.208,13.828,76.208,13.828l34.142,16.684s2.84,9.689,32.545,24.2,86.275,33.856,86.275,33.856,42.064-4.375,91.835,27.634,73.591,51.628,107.249,100.4,27.383,94.7,27.383,94.7-30.271-39.916-106.062-91.274-94-29.476-180.855-59.352-106.5-62.161-168.72-81.58-96.4-50.9-96.4-50.9Z" transform="translate(-2489.974 -11040.932)" fill="#fefbf7" opacity="0.58"/>
    <path id="Pfad_139" data-name="Pfad 139" d="M2769.251,11173.268s-8.722-22.611-3.446-36.179,5.922-18.09,24.55-18.09,28.642-3.015,40.917,18.09,21.643,50.07,8.184,66.329-31.55,10.554-49.1,3.016S2769.251,11173.268,2769.251,11173.268Z" transform="translate(-2489.974 -11040.932)" fill="#c7c2be"/>
    <path id="Pfad_140" data-name="Pfad 140" d="M2790.356,11119c18.628,0,28.642-3.015,40.917,18.09s21.643,50.07,8.184,66.329c-7.659,9.251-10.909-22.571-24.12-49.1C2805.461,11134.486,2782.327,11119,2790.356,11119Z" transform="translate(-2489.974 -11040.932)" fill="#3e3e3e"/>
    <path id="Pfad_141" data-name="Pfad 141" d="M2489.974,11229.618s19.074-39.218,47.318-50.4,39.569,22.69,65.658,5.678,0,66,19.871,114.5,45.421,79.487,59.615,79.487,30.965-26.766,68.742-21.562,42.1-16.732,96.315-29.252,55.9-32.42,120.555-20.828,86.449,10.184,145.158,36.9,56.414,67.672,89.678,69.977,52.426,32.62,88.9,47.47,31.556,10.687,56.986,11.927,98.006-37.34,55.2,6.842-40.654,51.66-126.4,49.076-219.673-35.314-219.673-35.314l-224.346-61.279s-108.747,7.473-182.81-18.721-113.442-86.053-113.442-86.053Z" transform="translate(-2489.974 -11040.932)" fill="#21201f" opacity="0.55"/>
    <path id="Pfad_142" data-name="Pfad 142" d="M2947.159,11176.906c35.722-20.818,50.862-6.234,83.272,6.828s46.367,45.421,46.367,45.421l-23.657,58.669s-139.1,6.912-165.6-20.817S2911.438,11197.725,2947.159,11176.906Z" transform="translate(-2489.974 -11040.932)" fill="#3a3938"/>
    <path id="Pfad_143" data-name="Pfad 143" d="M3076.8,11229.155l-23.657,58.669s-139.1,6.912-165.6-20.817c-13.354-13.976,17.142-31.835,68.458-37.852C3006.036,11223.289,3076.8,11229.155,3076.8,11229.155Z" transform="translate(-2489.974 -11040.932)" fill="#a6a19e"/>
    <path id="Pfad_144" data-name="Pfad 144" d="M2489.974,11229.618s19.074-39.218,47.318-50.4,39.569,22.69,65.658,5.678,0,66,19.871,114.5,45.421,79.487,59.615,79.487,30.965-26.766,68.742-21.562,42.1-16.732,96.315-29.252,55.9-32.42,120.555-20.828,86.449,10.184,145.158,36.9,56.414,67.672,89.678,69.977,52.426,32.62,88.9,47.47,31.556,10.687,56.986,11.927,98.006-37.34,55.2,6.842-40.654,51.66-126.4,49.076-219.673-35.314-219.673-35.314l-224.346-61.279s-108.747,7.473-182.81-18.721-113.442-86.053-113.442-86.053Z" transform="translate(-2489.974 -11040.932)" fill="#21201f" opacity="0.42"/>
  </g>
</svg>
