<svg xmlns="http://www.w3.org/2000/svg" xmlns:xlink="http://www.w3.org/1999/xlink" width="390" height="376" viewBox="0 0 390 376">
  <defs>
    <clipPath id="clip-Meteroid1">
      <rect width="390" height="376"/>
    </clipPath>
  </defs>
  <g id="Meteroid1" clip-path="url(#clip-Meteroid1)">
    <path id="Umriss" d="M2819.318,344.007c17.036-3.174,87.533,4.677,87.533,4.677s18.595-4.288,32.519-8.241,49,9.577,49,9.577l66.418,34.189h6.168l36.494,33.238s-8.691,21.8-4.542,34.451,26.089,30.21,30.108,56.539l-14.032,48.778-12.7,82.8c-37.295,44.459-73.347,56.453-116.28,68.8-56.713,16.311-110.574-3.558-110.574-3.558C2793,665.67,2766.59,601.595,2766.59,601.595l-16.7-37.976s-23.919-69.865-13.308-117.212c7.067-31.533,33.865-65.077,56.18-85.056C2803.693,351.56,2813.628,345.067,2819.318,344.007Z" transform="translate(-2733.862 -339.719)" fill="#a8a8a8"/>
    <path id="dunkles_Gebiet" data-name="dunkles Gebiet" d="M3096.29,640.02c-32.242,37.9-59.565,52.49-116.28,68.8s-110.58-3.56-110.58-3.56c-49.993-24.849-79.917-66.472-79.917-66.472l20.521-5.257s-5.888-5.025-5.4-6.985,8.435-4.876,8.435-4.876l-8.435-1.713c3.914-11.928,25.7-8.7,25.7-8.7L2846.8,625.1s20.415-11.506,36.849-16,28.887-1.984,28.887-1.984,7.78-40.86,22.123-55.661,85.128-24.9,85.128-24.9A175.979,175.979,0,0,0,3005.6,547.1c-6.541,11.245-16.85,52.846-13.9,57.041s52.192-24.684,52.192-24.684,1.013-23.834,6.949-37.062,8.107-11.075,16.794-15.853a30.761,30.761,0,0,1,17.952-3.257s9.483,2.823,16.215,0L3112.519,512l6.794,8.953-10.333,36.27Z" transform="translate(-2733.862 -339.719)" opacity="0.68"/>
    <path id="dunkles_Gebiet_3" data-name="dunkles Gebiet 3" d="M4993.6,691.13s-50.821,6.379-73.885-2.323-20.558-19.724-5.86-39.665,64.651-40.1,64.651-40.1,28.116,17.42,30.06,38.424S4993.6,691.13,4993.6,691.13Z" transform="translate(-4723.862 -339.719)" opacity="0.32"/>
    <path id="dunkles_Gebiet_2" data-name="dunkles Gebiet 2" d="M4978.461,609s25.986,16.241,29.795,36.739-14.561,45.252-14.561,45.252c-15.716,1.952-44.5-16.944-48.3-37.442S4978.461,609,4978.461,609Z" transform="translate(-4723.862 -339.719)" opacity="0.36"/>
    <path id="helles_Gebiet" data-name="helles Gebiet" d="M2746.918,419.269l49.134-16.891s30.626-19.072,45.1-23.092c37.689-10.47,50.731,3.747,56.522-1.9,0,0,48.327-8.562,50.622-15.74s-41.444-12.97-41.444-12.97c-80.218-8.619-87.53-4.67-87.53-4.67C2798.3,348.276,2757.465,396.711,2746.918,419.269Z" transform="translate(-2733.862 -339.719)" fill="#cfcfcf"/>
    <path id="Krater_3" data-name="Krater 3" d="M2768.21,549.922c-10.246-55.46,10.023-50.337,26.728-55.46,0,0,9.8,1.114,21.6,12.027,0,0,14.478,23.164,16.259,38.755,0,0-3.786,18.709-26.059,18.932Z" transform="translate(-2733.862 -339.719)" fill="#868686"/>
    <path id="Krater_5" data-name="Krater 5" d="M2889.965,423.847c3.756,4.151,14.563,3.987,21.746,0s10.741-11.8,6.985-15.947-12.586-1.351-19.769,2.636S2886.209,419.7,2889.965,423.847Z" transform="translate(-2733.862 -339.719)" fill="#cfcfcf"/>
    <path id="Krater_5_-_Schatten" data-name="Krater 5 - Schatten" d="M2917.283,406.675s-6.237-10.035-19.325-3.337-9.183,18.123-9.183,18.123C2886.65,416.188,2908.551,402.522,2917.283,406.675Z" transform="translate(-2733.862 -339.719)" fill="#868686"/>
    <path id="Krater_7" data-name="Krater 7" d="M2948.656,339.719s-12.5,2.512-5.4,5.9,24.952,6.876,33.824,7.66.554-6.783.554-6.783A131.757,131.757,0,0,0,2948.656,339.719Z" transform="translate(-2733.862 -339.719)" fill="#505050"/>
    <path id="Krater_8" data-name="Krater 8" d="M2986.135,411.986l19.618-17.63c11.234.464,25.319,19.486,25.319,19.486s1.624,14.316-6.1,19.486-24.788,1.193-24.788,1.193S2984.743,422.027,2986.135,411.986Z" transform="translate(-2733.862 -339.719)" fill="#868686"/>
    <path id="Krater_8_-_Schatten" data-name="Krater 8 - Schatten" d="M2990.547,424.172l10.805,1.085,10.855-15.988-6.458-14.909-19.61,17.63C2985.162,417.7,2990.547,424.172,2990.547,424.172Z" transform="translate(-2733.862 -339.719)" fill="#505050"/>
  </g>
</svg>
