<svg xmlns="http://www.w3.org/2000/svg" xmlns:xlink="http://www.w3.org/1999/xlink" width="406" height="334" viewBox="0 0 406 334">
  <defs>
    <clipPath id="clip-Meteroid7">
      <rect width="406" height="334"/>
    </clipPath>
  </defs>
  <g id="Meteroid7" clip-path="url(#clip-Meteroid7)">
    <path id="Pfad_97" data-name="Pfad 97" d="M2759.036,6540.526s15.492-16.625,33.25-46.1,21.254-31.456,57.433-47.987,44.869-15.963,87.282-18.136,157.184,15.68,189.3,69.146,37.407,168.9,0,185.9c-21.7,9.862-44.491,47.986-96.729,66.123s-76.117,5.669-112.22,6.423c-85.96,1.795-109.292-34.951-148.872-88.794S2759.036,6540.526,2759.036,6540.526Z" transform="translate(-2748.058 -6428.104)" fill="#b5b3b3"/>
    <path id="Pfad_108" data-name="Pfad 108" d="M3024.663,6483.849c51.765-5.29,101.641,13.6,101.641,13.6,19.784,32.935,29.388,89.383,25.092,131.968-.859,8.515-25.092,5.191-36.805,12.37-21.7,9.862-75.947,28.622-125.067,12.469-.835-.274-39.242-9.768-52.521-50.253-13.508-41.186-12.941-62.628,12.847-88.417S2972.9,6489.139,3024.663,6483.849Z" transform="translate(-2748.058 -6428.104)" fill="#d1d1d1"/>
    <path id="Pfad_98" data-name="Pfad 98" d="M2849.72,6474.4c-36.179,6.707-75.192,49.5-57.433,20.026s21.254-31.456,57.433-47.987,44.869-15.963,87.282-18.136,129.7,13.132,172.555,49.86c0,0-19.622-3.1-52.4-10.564s-23.728,6.03-61.967,0c-47.325-7.462-22.085-.754-58.188,0C2851.042,6469.4,2885.9,6467.7,2849.72,6474.4Z" transform="translate(-2748.058 -6428.104)" fill="#252525" opacity="0.88"/>
    <path id="Pfad_99" data-name="Pfad 99" d="M2887.882,6505.764c-2.645,13.319-18.987,37.607-30.605,39.3s-12.847-18.042-10.2-31.361,5.668-15.775,15.87-17.759S2890.527,6492.445,2887.882,6505.764Z" transform="translate(-2752.522 -6419.863)" fill="#555" opacity="0.51"/>
    <path id="Pfad_102" data-name="Pfad 102" d="M3080.206,6569.242c4.723,0,11.052,6.8,11.713,13.225s-4.345,12.469-9.068,12.469-8.785-6.046-9.446-12.469S3075.483,6569.242,3080.206,6569.242Z" transform="translate(-2748.058 -6428.104)" fill="#8a8a8a"/>
    <path id="Pfad_104" data-name="Pfad 104" d="M2925.509,6684.548c9.352,3.306,16.311,14.862,14.516,17.7s-23.8-4.156-23.8-4.156-15.4-6.234-13.6-9.068S2916.157,6681.242,2925.509,6684.548Z" transform="translate(-2754.367 -6411.104)" fill="#575757" opacity="0.87"/>
    <path id="Pfad_105" data-name="Pfad 105" d="M3003.881,6659.925c4.912-1.323,10.107-.472,11.335,2.645s-1.511,8.5-6.424,9.824-11.619.85-12.847-2.267S2998.969,6661.248,3003.881,6659.925Z" transform="translate(-2746.451 -6420.104)" fill="#484848"/>
    <path id="Pfad_107" data-name="Pfad 107" d="M3040.154,6493.673c-4.629-4.156,26.733,5.1,41.563,3.4s7.136-3.232,14.693-3.232,14.734,5.89,15.773,12.313,1.462,7.638-16.486,6.788S3044.783,6497.829,3040.154,6493.673Z" transform="translate(-2748.058 -6428.104)" fill="#3a3a3a" opacity="0.86"/>
    <path id="Pfad_109" data-name="Pfad 109" d="M2887.882,6505.764c-2.645,13.319-8.209,11.738-19.828,13.427s-23.624,7.827-20.979-5.492,5.668-15.775,15.87-17.759S2890.527,6492.445,2887.882,6505.764Z" transform="translate(-2752.522 -6419.863)" fill="#555" opacity="0.51"/>
  </g>
</svg>
