<svg xmlns="http://www.w3.org/2000/svg" xmlns:xlink="http://www.w3.org/1999/xlink" width="527" height="572" viewBox="0 0 527 572">
  <defs>
    <clipPath id="clip-Meteroid4">
      <rect width="527" height="572"/>
    </clipPath>
  </defs>
  <g id="Meteroid4" clip-path="url(#clip-Meteroid4)">
    <path id="Pfad_6" data-name="Pfad 6" d="M786.841,374.9s-26.924-16.178-46.341-23.083-20.6-8.833-36.437-11.86-26.933-.248-26.933-.248.268-.023-47.723-4.149c-54.482-11.105-73.541,37.314-107.313,42.054-11.03,1.547-13.9-14.5-24.8-8.078-30.893,18.2-89.5,94.7-89.5,94.7s-.5-1.195-27.432,6.88c-50.019,84.088-41.294,116.844-59.25,203.872,6.2,85.633,52.644,132.424,52.644,132.424A72.209,72.209,0,0,1,400.232,820.6c13.3,10.387,26.737,28.368,26.737,28.368s7.056-.367,12.534,1.991,2.776,5.807,9.375,7.44,17.019-.907,17.019-.907,9.891,12.291,20.06,20.707a96.941,96.941,0,0,0,20.616,12.956l12.539,1.227,11.88,5.185s13.116,1.03,13.233,1.03,10.554,5.755,10.554,5.755l22.466,1.078,27.562-13.836L640.5,872.351l72.665-60.106,66.779-69.409,15.9-26.536,15.022-8.369,3.178-19.446,12.516-35.539,9.223-36.3.818-89.083s-.291.749,8.635-14.584C859.556,409.14,786.841,374.9,786.841,374.9Z" transform="translate(-321.111 -333.913)" fill="#a8a8a8" fill-rule="evenodd"/>
    <path id="Pfad_7" data-name="Pfad 7" d="M675.906,718.342s10.248-4.821,14.174-13.518,1.994-12.608,1.527-21.27.237-7.828-3.4-13.378-5.275-5.077-11.132-8.818a74.556,74.556,0,0,0-12.3-6.146s3-6.716-.717-12.949-8.876-6.267-14.135-11.977-1.565-5.44-6.908-10.87-8.8-10.078-14.46-10.849-8.189,7.767-8.189,7.767l-15.033-10.678L587.9,592.193s-4.077-5.376-9.147-7.368-6.118,2.5-11.129-.607S558.71,572.4,558.71,572.4a18.4,18.4,0,0,0-5.471-10.815c-5.083-5.033-7.44-5.345-14.864-9.309a118.776,118.776,0,0,0-14.834-6.551L511.2,537.542s3.96,23.726,11.524,42.771c7.855,19.777,8.843,22.076,16.025,34.434,7.293,12.548,10.559,16.185,10.559,16.185a99.4,99.4,0,0,0,11.427,14.18c10.9,2.765,22.93,10.459,22.93,10.459s14,9.986,30.366,31.024c14.523,1.011,15.188,3.877,15.188,3.877a19.359,19.359,0,0,0,2.889,3.989c1.764.934,4.046,4.276,20.689.627C660.814,706.466,675.906,718.342,675.906,718.342Z" transform="translate(-508.039 -171.677)" fill-rule="evenodd" opacity="0.76"/>
    <path id="Pfad_9" data-name="Pfad 9" d="M426.056,599.264s-2.763-9.76-1.763-15.272,4.621-2.054,5.766-6.775-4.6-5.728-1.186-12.11,8.709-6.357,14.857-13.416,3.545-10.717,9.738-14.823,6.937-.124,15.035-1.594,8.118-2.136,17.362-4.287,9.65-2.688,19.618-4.321,8.657-5.121,20.26-2.212,14.942,6.281,26.149,13.849a100.934,100.934,0,0,1,18.677,16.417s26.358,39.133,16.564,44-11.659,22.488-17.425,30.718-26.626,16.14-34.042,21.979-6.587-1.028-12.3,3.836-11.921,4.4-18.034,6.526-17.47-1.195-28.491-3.493-32.562-16.681-45.367-18.379S426.056,599.264,426.056,599.264Z" transform="translate(-248.079 -182.997)" fill="#cfcfcf" fill-rule="evenodd"/>
    <path id="Pfad_8" data-name="Pfad 8" d="M436.352,599.264s-2.763-9.76-1.763-15.272,4.621-2.054,5.766-6.775-4.6-5.728-1.186-12.11,8.709-6.357,14.857-13.416,3.545-10.717,9.738-14.823,6.937-.124,15.035-1.594,8.118-2.136,17.362-4.287,9.65-2.688,19.618-4.321,8.657-5.121,20.26-2.212,14.942,6.281,26.15,13.849a100.935,100.935,0,0,1,18.677,16.417s-15.351-3.115-25.147,1.756-8.265,9.494-14.029,17.726-1.612,9.363-9.028,15.2-14.927,3.29-20.641,8.152,3.9,9.176-2.212,11.3-11.215-.5-22.236-2.8-9.045-4.693-21.85-6.389S436.352,599.264,436.352,599.264Z" transform="translate(-258.375 -182.997)" fill="#505050" fill-rule="evenodd"/>
    <path id="Pfad_12" data-name="Pfad 12" d="M360.913,515.925l14.221-17.335L373,486.491,371.309,472.2l-17.417-1.222-6.865,15.164,2.712,15.493,2.173,12.415Z" transform="translate(104.292 -224.707)" fill="silver" fill-rule="evenodd"/>
    <path id="Pfad_11" data-name="Pfad 11" d="M351.093,497.908s9.24,4.453,15.013,1.6,8.08-13.015,8.08-13.015L372.5,472.2l-17.417-1.222-6.865,15.164Z" transform="translate(103.102 -224.707)" fill="#575757" fill-rule="evenodd"/>
    <path id="Pfad_14" data-name="Pfad 14" d="M490.183,452.383c8.969,9.925,8.17,11.368,20.621,13.125s20.048,2.975,29.179-6.1,7.341-30.189,7.341-30.189l-13.749-16.275-13.675.6-20.324.325S481.327,442.582,490.183,452.383Z" transform="translate(-320.896 -270.943)" fill="#cfcfcf" fill-rule="evenodd"/>
    <path id="Pfad_13" data-name="Pfad 13" d="M487.837,423.192s7.965,4.539,16.217,8.387,7.658,7.435,16.794,7.011,19.75-8.7,19.75-8.7-1.812-12.437-13.749-16.275-34,.925-34,.925Z" transform="translate(-314.17 -271.606)" fill="#505050" fill-rule="evenodd"/>
    <path id="Pfad_19" data-name="Pfad 19" d="M588.1,497.917s-19.132-2.784-30.729-7.774-15.66-12.187-15.66-12.187l-26.6,20.4,11.233,15.676,11.972-.022s-4.421,6.117,3.335,7.956,17.058-1.562,27.689-.6,9.048,4.056,14.837,4.449,1.674-6.205,8.321-2.878,18.267,16.187,18.267,16.187,12.443-1.536,16.131-4.914,4.39-4.325-1.378-8.6-13.3-4.254-21.7-8.493-8.213-4.38-11.887-8.463-1.849-5.184-2.808-7.869Z" transform="translate(-452.314 -219.151)" fill="#868686" fill-rule="evenodd"/>
    <path id="Pfad_24" data-name="Pfad 24" d="M370.466,470.525s13.171-20.113,14.992-27.319-.118-6.468-7.71-1.5-20.838,14.156-22.659,21.361,10.236,17.239,15.377,7.461" transform="translate(79.178 -251.075)" fill="#404040" fill-rule="evenodd"/>
    <path id="Pfad_10" data-name="Pfad 10" d="M771.024,374.9s-26.924-16.178-46.341-23.083-20.6-8.833-36.437-11.86-26.933-.248-26.933-.248.268-.023-47.723-4.149c-54.482-11.105-73.541,37.314-107.313,42.054-11.03,1.547-13.9-14.5-24.8-8.078-30.893,18.2-89.5,94.7-89.5,94.7-20.685,4.212-27.432,6.88-27.432,6.88-32.854,54.771-39.686,92.218-39.686,92.218S401.353,505.4,399.112,539.7c12.412,18.684,2.889,2.127,9.738,8.454,6.421,5.931,12.735,6.2,12.735,6.2,15.615,12.054,23.7,12.554,23.7,12.554,15.957,7.534,19.66,12.473,40.122,17.585s18.474,4.556,41.731,2.864,51.3-9.639,51.3-9.639,43.565-3.455,52.186-28.64-18.959-37.133-17.7-72.1,5.832-41.556,22.725-67.763A55.223,55.223,0,0,1,649.056,394.3c27.328-19.9,73.175,3.076,73.175,3.076s28.029,36.348,36.955,21.013c4.086-29.612,71.3,39.912,64.937,20.8C808.164,391.288,771.024,374.9,771.024,374.9Z" transform="translate(-305.295 -333.913)" fill="#fff" fill-rule="evenodd" opacity="0.45"/>
  </g>
</svg>
