<svg xmlns="http://www.w3.org/2000/svg" xmlns:xlink="http://www.w3.org/1999/xlink" width="654" height="406" viewBox="0 0 654 406">
  <defs>
    <clipPath id="clip-space-object2">
      <rect width="654" height="406"/>
    </clipPath>
  </defs>
  <g id="space-object2" clip-path="url(#clip-space-object2)">
    <path id="Differenzmenge_4" data-name="Differenzmenge 4" d="M648.527-1872.212c-16.2,0-36.251-2.848-59.6-8.464-23.184-5.577-49.244-13.793-77.455-24.419-58.521-22.042-123.684-53.456-188.444-90.846a1422.436,1422.436,0,0,1-122.162-78.785c-18-13.026-35.052-26.128-50.677-38.943-15.478-12.694-29.694-25.217-42.253-37.221a448.4,448.4,0,0,1-32.713-34.432A217.6,217.6,0,0,1,53.164-2215.9c-5.5-9.515-8.961-18.146-10.285-25.655A35.39,35.39,0,0,1,42.5-2252.2a24.129,24.129,0,0,1,2.983-9.017,24.12,24.12,0,0,1,6.309-7.084,35.36,35.36,0,0,1,9.395-4.994c7.151-2.608,16.339-3.93,27.308-3.93,16.2,0,36.252,2.848,59.6,8.465,23.185,5.577,49.245,13.793,77.455,24.419,58.521,22.042,123.684,53.456,188.444,90.845a1422.534,1422.534,0,0,1,122.162,78.785c18,13.024,35.05,26.127,50.677,38.943,15.478,12.693,29.694,25.217,42.253,37.221a448.4,448.4,0,0,1,32.713,34.432,217.61,217.61,0,0,1,22.057,30.577c5.5,9.515,8.961,18.146,10.285,25.655a35.387,35.387,0,0,1,.379,10.648,24.125,24.125,0,0,1-2.983,9.017,24.121,24.121,0,0,1-6.309,7.085,35.362,35.362,0,0,1-9.395,4.994C668.683-1873.535,659.5-1872.212,648.527-1872.212ZM192.81-2201.224a43.67,43.67,0,0,0-14.551,2.065c-3.888,1.4-6.681,3.536-8.3,6.34-1.8,3.112-2.154,7.053-1.062,11.713,1.064,4.541,3.518,9.82,7.291,15.69a150.525,150.525,0,0,0,14.9,18.994c6.126,6.775,13.453,14.051,21.778,21.625,34.745,31.612,84.838,66.895,141.049,99.348,43.61,25.178,87.107,46.449,125.789,61.515a448.629,448.629,0,0,0,50.6,16.7c15.086,3.861,27.762,5.819,37.678,5.82h.006a43.7,43.7,0,0,0,14.554-2.065c3.889-1.4,6.681-3.537,8.3-6.341,1.8-3.112,2.154-7.053,1.062-11.713-1.064-4.542-3.517-9.821-7.291-15.69a150.547,150.547,0,0,0-14.9-18.994c-6.126-6.775-13.453-14.051-21.778-21.625-34.745-31.611-84.838-66.894-141.05-99.349-43.614-25.18-87.111-46.452-125.788-61.516a448.473,448.473,0,0,0-50.6-16.7c-15.085-3.861-27.761-5.819-37.678-5.819Z" transform="translate(-42.258 2277.229)" fill="#585985" opacity="0.4"/>
    <ellipse id="Ellipse_42" data-name="Ellipse 42" cx="243" cy="52.967" rx="243" ry="52.967" transform="translate(154.185 38.539) rotate(30)" fill="#ac958d" opacity="0.4"/>
    <ellipse id="Ellipse_43" data-name="Ellipse 43" cx="130.93" cy="37.621" rx="130.93" ry="37.621" transform="translate(245.608 110.19) rotate(30)" fill="#a2958d" opacity="0.5"/>
    <ellipse id="Ellipse_44" data-name="Ellipse 44" cx="86" cy="23.5" rx="86" ry="23.5" transform="translate(276.782 146.195) rotate(30)" fill="#c8b6a8" opacity="0.6"/>
    <path id="Differenzmenge_5" data-name="Differenzmenge 5" d="M54.035-2296.045h0A41.474,41.474,0,0,1,23.078-2315.2a19.875,19.875,0,0,1,2.526-7.484,19.984,19.984,0,0,1,7.467-7.408,20.117,20.117,0,0,1,9.872-2.6A20,20,0,0,1,52.924-2330a19.871,19.871,0,0,1,9.319,12.145,19.867,19.867,0,0,1-2,15.176,19.8,19.8,0,0,1-6.209,6.635Z" transform="translate(295.735 2521.877)" fill="#f2e7c7"/>
    <circle id="zentrum2" cx="12.5" cy="12.5" r="12.5" transform="translate(334.136 191.872) rotate(30)" fill="#fff3c3"/>
    <circle id="zentrum1" cx="5" cy="5" r="5" transform="translate(336.631 202.318) rotate(30)" fill="#fff"/>
    <path id="Pfad_107" data-name="Pfad 107" d="M874.2,2852.514c-2.039-4.805,43.027,39.165,82.343,62.681s68.22,34.146,70.186,38.151-32.909-7.645-72.225-31.161S876.235,2857.319,874.2,2852.514Z" transform="translate(-635.039 -2684.718)" fill="#8c5829" opacity="0.8"/>
    <path id="Pfad_108" data-name="Pfad 108" d="M837.792,2845.451c11.575,2.167,47.034,32.965,100.8,73.447s126.237,61.382,124.332,64.295-82.377-22.549-139.727-62.425S826.218,2843.283,837.792,2845.451Z" transform="translate(-635.039 -2684.718)" fill="#50271c" opacity="0.9"/>
    <path id="Pfad_109" data-name="Pfad 109" d="M1117.366,3038.186c1.736,3.864,21.114,17.642,37.412,22.4s29.515.5,27.779-3.36-13.049-4.872-29.347-9.633S1115.629,3034.322,1117.366,3038.186Z" transform="translate(-635.039 -2684.718)" fill="#7566b9" opacity="0.7"/>
    <path id="Pfad_110" data-name="Pfad 110" d="M1085.723,2884.844c1.165-2.33,31.212,12.954,54.874,33.413s38.078,46.305,36.4,47.761-19.439-21.478-43.1-41.937S1084.558,2887.174,1085.723,2884.844Z" transform="translate(-635.039 -2684.718)" fill="#bc7aa8" opacity="0.6"/>
    <path id="Pfad_111" data-name="Pfad 111" d="M823.231,2798.345c-4.733.468-2.075-20.183,9.428-21.93s27.764.821,51.281,12.834,49.539,24.485,46.7,25.5-33.559-14.308-54.455-23.264-30.131-10.262-38.213-9.607S827.964,2797.877,823.231,2798.345Z" transform="translate(-635.039 -2684.718)" fill="#714739"/>
    <path id="Differenzmenge_6" data-name="Differenzmenge 6" d="M21.574-2265.441c-3.1,0-6.154-2.343-8.591-6.6-2.521-4.4-4.138-10.487-4.553-17.144-.014-7.395-2.211-13.609-4.149-19.091-1.345-3.8-2.506-7.088-2.655-10.021a8.621,8.621,0,0,1,3.493-7.7,20.288,20.288,0,0,1,13.661-4.825c7.406,0,17.486,2.788,32.019,7.042,6.556,1.919,13.423,4.259,20.411,6.955,6.573,2.536,12.929,5.259,18.893,8.094,11.948,5.68,20.577,10.978,23.673,14.537a7.911,7.911,0,0,1,.993,1.335c-17.945-11.305-27.694-15.364-49.67-20.679-2.181-.528-4.191-1.024-6.134-1.5-9.417-2.325-15.637-3.861-20.794-3.861-5.141,0-9.085,1.554-13.612,5.364-9.926,8.354-5.479,23.166,0,34.12a21.243,21.243,0,0,0,5.363,6.748c.274,2.869-.024,4.69-.936,5.732-1.09,1.244-2.96,1.313-5.327,1.4-.518.019-1.1.04-1.708.078C21.823-2265.445,21.7-2265.441,21.574-2265.441Z" transform="translate(101.045 2345.604)" fill="#4f629c" opacity="0.5"/>
    <path id="Pfad_114" data-name="Pfad 114" d="M781.515,2758.527c2.524-6.688-16.236-26.356-10.776-34.365s5.315-8.446,32.618,2.33,76.593,40.772,76.593,40.772-6.519-15.34-26.211-27.958-29.283-16.885-52.557-22.513-30.4-8.53-40.539,0-5.218,23.687,0,34.12S778.991,2765.214,781.515,2758.527Z" transform="translate(-635.039 -2684.718)" fill="#462725" opacity="0.8"/>
    <path id="Pfad_115" data-name="Pfad 115" d="M716.785,2699.508c-7.951-1.041-18.741-.68-21.58,3.131s2.272,11.074,10.222,12.115,21.58-7.95,21.58-7.95A12.444,12.444,0,0,0,716.785,2699.508Z" transform="translate(-635.039 -2684.718)" fill="#842670" opacity="0.8"/>
    <path id="Pfad_116" data-name="Pfad 116" d="M951.961,2823.339c0-1.383,29.56,14.489,62.032,34.365s67.857,43.9,67.857,45.141-35.385-20.313-67.857-40.19S951.961,2824.722,951.961,2823.339Z" transform="translate(-635.039 -2684.718)" fill="#776154"/>
  </g>
</svg>
