<svg xmlns="http://www.w3.org/2000/svg" xmlns:xlink="http://www.w3.org/1999/xlink" width="330" height="365" viewBox="0 0 330 365">
  <defs>
    <clipPath id="clip-space-object10">
      <rect width="330" height="365"/>
    </clipPath>
  </defs>
  <g id="space-object10" clip-path="url(#clip-space-object10)">
    <path id="Pfad_154" data-name="Pfad 154" d="M763.068,12079.231c18.755-23.042,121.1,50.907,200.77,138.61s140.932,194.161,122.177,217.2-117.533-37.332-197.2-125.035S744.313,12102.273,763.068,12079.231Z" transform="translate(-759.808 -12074.975)" fill="#676899" opacity="0.7"/>
    <path id="Pfad_152" data-name="Pfad 152" d="M849.036,12165.074c-12.03,11.208,18.121,71.96,58.051,120.085s95.9,89.086,108.907,78.436-16.943-72.913-56.874-121.038S861.067,12153.866,849.036,12165.074Z" transform="translate(-760.808 -12075.975)" fill="#ab8aa7"/>
    <path id="Pfad_150" data-name="Pfad 150" d="M882.29,12201.893c-6.585,6.342,14.878,44.392,39.675,73.823s52.6,48.293,59.188,41.951-8.049-37.887-32.846-67.318S888.875,12195.551,882.29,12201.893Z" transform="translate(-759.808 -12074.975)" fill="#93766e"/>
    <circle id="Ellipse_54" data-name="Ellipse 54" cx="30" cy="30" r="30" transform="translate(143.192 155.025)" fill="#feeddb"/>
    <path id="Pfad_153" data-name="Pfad 153" d="M849.036,12165.074c-12.03,11.208,18.121,71.96,58.051,120.085s95.9,89.086,108.907,78.436-52.367-41.747-92.3-89.872S861.067,12153.866,849.036,12165.074Z" transform="translate(-760.808 -12075.975)" fill="#ab8aa7"/>
    <path id="Pfad_151" data-name="Pfad 151" d="M882.29,12201.893c-6.585,6.342,14.878,44.392,39.675,73.823s52.6,48.293,59.188,41.951-28.824-18.934-53.621-48.365S888.875,12195.551,882.29,12201.893Z" transform="translate(-759.808 -12074.975)" fill="#93766e"/>
    <path id="Pfad_155" data-name="Pfad 155" d="M908.554,12310.231c-.569,2.874,75.656,82.849,107.262,97.5s45.43-27.442,33.879-28.226-2.273,27.651-33.879,13S909.122,12307.357,908.554,12310.231Z" transform="translate(-759.808 -12074.975)" fill="#9d9efb"/>
    <path id="Pfad_156" data-name="Pfad 156" d="M832.618,12186.669c-4.959-3.821-38.7-50.407-30.57-62.114s32.277-1.869,63.091,15.285,61.465,49.838,60.164,53.334-39.513-26.018-65.367-39.351-31.22-22.194-38.049-13.983S837.578,12190.49,832.618,12186.669Z" transform="translate(-759.808 -12074.975)" fill="#7e6264" opacity="0.8"/>
    <circle id="Ellipse_55" data-name="Ellipse 55" cx="6.5" cy="6.5" r="6.5" transform="translate(266.192 240.025)" fill="#ffeee0"/>
    <path id="Pfad_157" data-name="Pfad 157" d="M933,12301.938c-.634,2.96,33.892,30.439,50.686,32.977s18.391-7.821,16.488-22.829-20.61-39.952-24.1-37.2,20.916,41.432,10.147,48.2S933.634,12298.979,933,12301.938Z" transform="translate(-759.808 -12074.975)" fill="#dfa99e"/>
    <path id="Pfad_158" data-name="Pfad 158" d="M883.106,12250.4s-20.895-32.684-25.366-50.407,2.276-20.813,7.48-20.488-2.2,5.041,2.276,22.765S883.106,12250.4,883.106,12250.4Z" transform="translate(-759.808 -12074.975)" fill="#cfa29e"/>
    <path id="Pfad_159" data-name="Pfad 159" d="M886.133,12290c-2.008.951-32.025-30.64-50.733-60.019s-26.106-56.546-24.1-57.5,13.423,24.313,32.131,53.691S888.141,12289.049,886.133,12290Z" transform="matrix(0.996, -0.087, 0.087, 0.996, -1776.601, -11892.47)" fill="#b6c2d2"/>
  </g>
</svg>
