<svg xmlns="http://www.w3.org/2000/svg" xmlns:xlink="http://www.w3.org/1999/xlink" width="711" height="764" viewBox="0 0 711 764">
  <defs>
    <clipPath id="clip-space-object7">
      <rect width="711" height="764"/>
    </clipPath>
  </defs>
  <g id="space-object7" clip-path="url(#clip-space-object7)">
    <ellipse id="Ellipse_50" data-name="Ellipse 50" cx="181" cy="101" rx="181" ry="101" transform="matrix(0.809, -0.588, 0.588, 0.809, 179.783, 425.106)" fill="#a58c92" opacity="0.7"/>
    <ellipse id="Ellipse_48" data-name="Ellipse 48" cx="121" cy="66" rx="121" ry="66" transform="matrix(0.809, -0.588, 0.588, 0.809, 248.82, 418.23)" fill="#d0a28a" opacity="0.8"/>
    <ellipse id="Ellipse_49" data-name="Ellipse 49" cx="73" cy="31.741" rx="73" ry="31.741" transform="matrix(0.809, -0.588, 0.588, 0.809, 307.744, 417.994)" fill="#fbc5ad" opacity="0.9"/>
    <ellipse id="Ellipse_47" data-name="Ellipse 47" cx="17" cy="9" rx="17" ry="9" transform="matrix(0.809, -0.588, 0.588, 0.809, 366.42, 403.429)" fill="#fff3eb"/>
    <path id="Pfad_127" data-name="Pfad 127" d="M923.042,8605.865s-6.506-75.6,40.781-102.532,198.206-79.454,242,9.008,46.634,205.395-66.832,344.841S873.535,9062.1,735.4,9082.75,491.147,8986.191,558.157,8942.3s238.36,20.142,378.122-54.437,169.291-138.06,189.224-249.042-109.305-50.458-109.305-50.458S979.647,8583.337,923.042,8605.865Z" transform="translate(-537.537 -8321.282)" fill="#5e679f" opacity="0.6"/>
    <path id="Pfad_128" data-name="Pfad 128" d="M855.88,8855.057s-94.338,82.807-155.2,44.384-125.082-85.462-88.258-198.076S698,8543.959,847.972,8448.982s287.781-122.685,364.352-127.523,7.514,91.217-58.069,108.167-201.861,55.992-306.283,137.489-110.131,149.368-111.406,188.5,28.855,36.015,28.855,36.015C769.627,8866.307,855.88,8855.057,855.88,8855.057Z" transform="translate(-537.537 -8321.282)" fill="#605e8e" opacity="0.6"/>
    <path id="Pfad_129" data-name="Pfad 129" d="M1064.375,8556.825c5.873-3.4,94.811-12.2,101.6,54.369s-74.447,211.89-74.447,211.89,47.953-32.187,74.447-88.461,27.276-68.1,34.817-74.434,29.748-7.3-26.744,85.76-130.1,150.66-216.338,209.451-140.135,41.273-140.135,38.579,73.5-16.516,112.513-38.579c55.362-31.311,107.846-90.662,134.289-132.316,45.048-70.961,78.108-129.532,78.108-198.286S1058.5,8560.227,1064.375,8556.825Z" transform="translate(-537.537 -8321.282)" fill="#7d8bcf" opacity="0.8"/>
    <path id="Pfad_130" data-name="Pfad 130" d="M803.257,8861.6c5.218-10.759-110.851,6.13-118.123-61.311s24.314-108.965,69.614-181.232,140.805-129.017,124.825-134.907-140.611,81.905-194.439,179.373-42.642,126.526-13.255,173.822S798.039,8872.355,803.257,8861.6Z" transform="translate(-537.537 -8321.282)" fill="#99a7e6" opacity="0.8"/>
    <path id="Pfad_131" data-name="Pfad 131" d="M1181.492,8610.034c5.991,3.595-1.036,68.409-20.212,122.308-14.511,45.606-58.252,104.238-61.751,103.072s27.028-63.166,47.758-107.736S1171.127,8603.815,1181.492,8610.034Z" transform="translate(-537.537 -8321.282)" fill="#d392e2" opacity="0.7"/>
    <path id="Pfad_132" data-name="Pfad 132" d="M1027.388,8550.907c14.106-7.437,62.405-19.626,64.4-16.252s-56.425,29.746-56.425,29.746S1013.281,8558.344,1027.388,8550.907Z" transform="translate(-537.537 -8321.282)" fill="#c97fca" opacity="0.7"/>
    <path id="Pfad_133" data-name="Pfad 133" d="M835.816,8875.771c-1.3,3.368-77.259,12.788-107.836,9.809s-70.224-81.625-68.928-84.993,42.5,68.021,73.074,71S837.112,8872.4,835.816,8875.771Z" transform="translate(-570.537 -8322.282)" fill="#e6b7fd" opacity="0.7"/>
    <path id="Pfad_134" data-name="Pfad 134" d="M988,8691.447c4.293,2.147-4.734,53.932-39.655,81.555s-53.69,36.059-92.363,38.12-50.445-35.04-48.759-38.12,10.776,29.064,48.759,24.243,51.616-13.08,84.178-36.492S983.707,8689.3,988,8691.447Z" transform="translate(-513.559 -8331.489)" fill="#be8243" opacity="0.8"/>
    <path id="Pfad_135" data-name="Pfad 135" d="M1081.774,8646.772c2.492,2.392-10.878,75.177-64.5,125.407s-144,72.764-144.8,69.973,87.993-30.9,141.612-81.136S1079.282,8644.381,1081.774,8646.772Z" transform="translate(-550.537 -8313.565)" fill="#d8b597" opacity="0.8"/>
    <path id="Pfad_136" data-name="Pfad 136" d="M757.989,8584.355c-3.067-1.839-53.053,63.474-61.1,82.1s-16.483,51.983-14.949,52.827,13.033-30.823,21.083-49.453S761.055,8586.194,757.989,8584.355Z" transform="translate(-537.537 -8321.282)" fill="#a272d2"/>
  </g>
</svg>
