<svg xmlns="http://www.w3.org/2000/svg" xmlns:xlink="http://www.w3.org/1999/xlink" width="490" height="335" viewBox="0 0 490 335">
  <defs>
    <clipPath id="clip-space-object3">
      <rect width="490" height="335"/>
    </clipPath>
  </defs>
  <g id="space-object3" clip-path="url(#clip-space-object3)">
    <ellipse id="Ellipse_21" data-name="Ellipse 21" cx="56.98" cy="38.119" rx="56.98" ry="38.119" transform="matrix(0.799, -0.602, 0.602, 0.799, 143.789, 175.727)" fill="#c1b5b5"/>
    <ellipse id="Ellipse_19" data-name="Ellipse 19" cx="31.858" cy="21.619" rx="31.858" ry="21.619" transform="matrix(0.799, -0.602, 0.602, 0.799, 172.782, 173.914)" fill="#e7d7bb"/>
    <ellipse id="Ellipse_17" data-name="Ellipse 17" cx="10.5" cy="8" rx="10.5" ry="8" transform="matrix(0.799, -0.602, 0.602, 0.799, 198.086, 171.91)" fill="#fff9ef"/>
    <path id="Pfad_27" data-name="Pfad 27" d="M974.637,4162.163c.063-5.907-46.548-23.354-58.225-52.467s5.355-54.51,11.517-63.984,15.3-2.459,15.3-2.459c1.229-13.84,15.164-29.626,15.164-29.626s-21.721-15.415-41.98,2.961-39.913,35.6-38.657,70.768,19.463,51.192,43.684,69.894S974.574,4168.07,974.637,4162.163Z" transform="translate(-781.213 -3861.02)" fill="#6f7ca8" opacity="0.9"/>
    <path id="Pfad_28" data-name="Pfad 28" d="M1028.392,4052.232a57.448,57.448,0,0,0,48.71-11.679c23.16-18.861,33.081-34.511,38.477-68.152s4.182-49.692-17.749-77.417-50.794-31.776-69.976-33.483,2.808,12.539,17.369,25.98,30.5,22.061,39.26,49.734,1.367,37.152-7.381,59.071-33.46,27.174-33.46,27.174S1041.17,4038.385,1028.392,4052.232Z" transform="translate(-781.213 -3861.02)" fill="#4c5075" opacity="0.9"/>
    <path id="Pfad_29" data-name="Pfad 29" d="M965.1,4077.736s-7.893,24.4,27.417,31.133,69.978-3.346,106.864-13.989,43.684-14.27,62.031-28.249,55.2-43.3,55.2-43.3-128.926,58.682-159.751,62.811-33.139,5.642-49.8,3.786-12.028-15.024-12.028-15.024S979.856,4080.647,965.1,4077.736Z" transform="translate(-781.213 -3861.02)" fill="#5d6095" opacity="0.9"/>
    <path id="Pfad_30" data-name="Pfad 30" d="M1026.743,3989.647s18.748-27.932,18.482-35.652,1.016-27.3-41.065-32.468-48.61-2.663-104.347,14.124-118.6,53.024-118.6,53.024,69.514-22.984,126.028-33.68,73.534-16.475,100.027-9.1,0,41.436,0,41.436A40.292,40.292,0,0,1,1026.743,3989.647Z" transform="translate(-781.213 -3861.02)" fill="#4a4b72" opacity="0.9"/>
    <path id="Pfad_31" data-name="Pfad 31" d="M842.651,4129.136c6.143,32.861,45,57.737,38.715,65.19s-63.6-12.474-73.447-29.132-19.025-48.466-7.193-84.427,28.773-53,45.053-68.9,32.866-35.422,69.255-45.579,48.964-2.77,68.932,3.271,10.637,20.492,10.637,20.492c-11.426,2.833-24.13,12.468-24.13,12.468s-25.273-14.128-52.382.278c-.624.331-1.248.678-2.092,1.167-26.315,15.205-53.561,56.459-53.561,56.459S836.508,4096.275,842.651,4129.136Z" transform="translate(-781.213 -3861.02)" fill="#8c85a5" opacity="0.9"/>
    <path id="Pfad_32" data-name="Pfad 32" d="M1002.489,4071.817s25.266,21.559,89.568-7.5,134.374-84.689,157.964-110.317,25.628-63.2,11.649-48.344-54.1,61.78-106.414,101.879-64.662,36.234-93.4,48.7-39.755,2.328-39.755,2.328A87.562,87.562,0,0,1,1002.489,4071.817Z" transform="translate(-781.213 -3861.02)" fill="#5c6190" opacity="0.9"/>
    <path id="Pfad_33" data-name="Pfad 33" d="M911.32,4155.211c4.816,0,13.329,3.808,12.769,8.289s-10.193,9.633-15.01,9.633-4.816-5.152-4.256-9.633S906.5,4155.211,911.32,4155.211Z" transform="translate(-781.213 -3861.02)" fill="#a74e90" opacity="0.7"/>
    <path id="Pfad_35" data-name="Pfad 35" d="M899.8,4017.513c1.03-4.944,23.1-21.806,43.877-30.355a68.225,68.225,0,0,1,39.237-3.844c-2.651-.8,9.77,7.242,9.77,7.242a69.443,69.443,0,0,0-17.372,8.551,45.407,45.407,0,0,0-12.891-2.242c-6.378.008-22.862,10.068-22.862,10.068S898.769,4022.457,899.8,4017.513Z" transform="translate(-781.213 -3861.02)" fill="#412124" opacity="0.7"/>
    <ellipse id="Ellipse_22" data-name="Ellipse 22" cx="4.5" cy="4" rx="4.5" ry="4" transform="translate(171.369 128.869) rotate(-31)" fill="#a7598b" opacity="0.7"/>
    <path id="Pfad_34" data-name="Pfad 34" d="M888.849,4138.368c-.448,14.856,6.778,32.07,1.638,23.564s-19.721-23.258-16.3-52.228,25.446-61.85,29.97-63.649-9.521,32.035-11.873,56.453S889.3,4123.512,888.849,4138.368Z" transform="translate(-781.213 -3861.02)" fill="#442932" opacity="0.7"/>
    <path id="Pfad_36" data-name="Pfad 36" d="M1078.947,3977.4c3.528-1.12,19.378-16.41,8.065-37.188s-53.317-45.925-53.317-45.925,27.891,29.627,39.2,50.405S1075.419,3978.523,1078.947,3977.4Z" transform="translate(-781.213 -3861.02)" fill="#3d2a3d" opacity="0.8"/>
    <path id="Pfad_37" data-name="Pfad 37" d="M1020.986,4059.6s42.789-3.092,62.5-25.065,20.224-29.991,10.977-49.285-17.887-9.6-34.33-4.081-26.075,12.6-26.075,12.6c13.123,9.654,9.472,30.567,9.472,30.567C1038.717,4045.024,1020.986,4059.6,1020.986,4059.6Z" transform="translate(-781.213 -3861.02)" fill="#b6c6ea" opacity="0.6"/>
    <path id="Pfad_38" data-name="Pfad 38" d="M1027.02,4092.208c8.446-3.64,12.6,4.659,25.046,2.33s15.654-14.926,24.755-11.649,17.838,20.386,11.649,24.754-19.833-6.757-36.4-7.281-23.618,7.223-29.88,5.184S1018.574,4095.848,1027.02,4092.208Z" transform="translate(-781.213 -3861.02)" fill="#665d92" opacity="0.7"/>
    <path id="Pfad_39" data-name="Pfad 39" d="M1231.793,3956.685c2.088,1.922-1.988,15.244-1.988,15.244s-12.393,11.868-14.481,9.946,2.849-10.808,6.13-17.634S1229.706,3954.762,1231.793,3956.685Z" transform="translate(-781.213 -3861.02)" fill="#9d9ddd" opacity="0.7"/>
    <path id="Pfad_40" data-name="Pfad 40" d="M945.464,4034.273c-11.847,35.083,17.667,43.23,17.667,43.23s-26.193,3.107-16.5,12.516,54.089,22.023,52.042,25.5-41.746-1.206-61.348-16.888-14.69-26.51-13.842-46.223S945.464,4034.273,945.464,4034.273Z" transform="translate(-781.213 -3861.02)" fill="#5c463b" opacity="0.7"/>
    <path id="Pfad_41" data-name="Pfad 41" d="M1013.2,3861.319c14.9,1.792,56.006,20.386,56.006,20.386s40.38,25.259,36.292,28.675-30.915-16.074-55.334-23.746-30.635-3.584-40.548-12.1S998.3,3859.527,1013.2,3861.319Z" transform="translate(-781.213 -3861.02)" fill="#6884c5" opacity="0.6"/>
    <path id="Pfad_42" data-name="Pfad 42" d="M841.5,4050.271c-3.881-1.136-22.12,62.814-27.231,74.575s6.531,15.167,15.523,4.543S845.385,4051.406,841.5,4050.271Z" transform="translate(-781.213 -3861.02)" fill="#c8d0f4" opacity="0.6"/>
  </g>
</svg>
