<svg xmlns="http://www.w3.org/2000/svg" xmlns:xlink="http://www.w3.org/1999/xlink" width="670" height="968" viewBox="0 0 670 968">
  <defs>
    <clipPath id="clip-CirrusNebula">
      <rect width="670" height="968"/>
    </clipPath>
  </defs>
  <g id="CirrusNebula" clip-path="url(#clip-CirrusNebula)">
    <path id="Pfad_45" data-name="Pfad 45" d="M688.545,6344.628c-30.153-27.11-85.185-59.247-57.522-156.346s28.48-180.123,168.176-232.05,269.443-83.821,390.609,24.343,109.635,252.649,94.056,408.314-64.528,172.3-156.37,214.345-185.551-98.158-211-46.151,54.22,220.478,112.867,258.93,101.525-111.761,121.719-105.122,5.809,98.759-40.942,131.679-85.377,54.269-146.063,0S884.266,6712.36,867.391,6625.5s-11.482-114.335,29.184-130.38,62,43.14,105.121-8.852,53.252-98.973,67.36-199.115,36.655-167.7-10.927-201.453-149.936,69.159-190.325,55.327,53.944-116.187,28.77-110.654-97.1,63.9-129.465,132.785,19.641,97.375,0,142.744S718.7,6371.738,688.545,6344.628Z" transform="translate(-623.473 -5908.336)" fill="#621111" opacity="0.6"/>
    <path id="Pfad_49" data-name="Pfad 49" d="M989.567,6593.921c1.637,34.5,127.93-13.473,198.946-63.964s66.231-61.95,85.119-138,2.015-127.426-9.57-166.208-16.243-30.472-36.767,11.081-45.329,155.127-45.329,155.127-25.874,88.1-60.943,120.375C1064.716,6564.155,988.555,6572.6,989.567,6593.921Z" transform="translate(-623.473 -5908.336)" fill="#874f30" opacity="0.6"/>
    <path id="Pfad_44" data-name="Pfad 44" d="M655.533,6244.9c-8.233-53.562,31.382-127.465,31.382-127.465s11.623-16.078,39.905-33.319,50.56-29.444,73.224-35.644,32.157-8.911,17.434,10.848-46.492,39.905-76.324,68.188-32.254,18.791-43,44.942-12.3,48.332,0,59.664,37.581-23.246,49.2-14.335,4.165,34.965-2.712,49.979-18.6-5.908-24.8,10.073,0,53.853,0,53.853S663.766,6298.46,655.533,6244.9Z" transform="translate(-623.473 -5908.336)" fill="#cc7623" opacity="0.6"/>
    <path id="Pfad_43" data-name="Pfad 43" d="M662.942,6302.857c-10.312-26.026-25.208-41.9-15.059-94.94s50.744-119,55.654-117.2-32.41,69.077-36.012,124.4,22.753,74.97,21.607,96.9S673.254,6328.884,662.942,6302.857Z" transform="translate(-623.473 -5908.336)" fill="#9964d0" opacity="0.9"/>
    <path id="Pfad_46" data-name="Pfad 46" d="M1251.218,6239.847c6.3-18.132-5.037,24.931-7.555,67.994s11.962,58.425-2.518,104.258-40.167,67.994-55.4,79.075-13.725-7.051-5.54-34.752,20.524-21.909,38.278-76.053S1244.922,6257.979,1251.218,6239.847Z" transform="translate(-623.473 -5908.336)" fill="#5b3183"/>
    <path id="Pfad_47" data-name="Pfad 47" d="M929.282,6090.68c0-17.023,14.045-55.29,51.071-77.692s97.035-28.94,97.035-11.917-60.009,57.609-97.035,80.011S929.282,6107.7,929.282,6090.68Z" transform="translate(-623.473 -5908.336)" fill="#be7b39"/>
    <path id="Pfad_48" data-name="Pfad 48" d="M1063.3,6052.641c9.908-16.936,31.963-7.845,61.214-6.2s57.34-21.7,55.79,12.785-46.492,71.485-61.989,125.141-17.076,63.081,0,89.48,59.665-15.488,68.3,16.117,1.763,64.343-33.745,110.3S1049,6487.652,1044.592,6473.8s81.971-80.459,90.659-128.937-42.811-20.147-55.906-64.973,7.536-57.518,3.526-114.331S1053.4,6069.577,1063.3,6052.641Z" transform="translate(-623.473 -5908.336)" fill="#ca8d0f" opacity="0.7"/>
    <path id="Pfad_50" data-name="Pfad 50" d="M894.6,6674.791c-10.427-4.043-52.986-82.991-41.708-116.613s30,6.171,74.477-29.792,67.352-47.666,103.421-114.059,26.174-144.063,40.857-151.511,14.1,75.216-5.268,141.609-23.46,76.507-72.19,123.961-74.692,9.363-99.589,45.964S905.024,6678.834,894.6,6674.791Z" transform="translate(-623.473 -5908.336)" fill="#aa2e26" opacity="0.9"/>
    <path id="Pfad_51" data-name="Pfad 51" d="M915.664,6112.372c-5.533,3.192,4.469,32.771,5.958,102.143s-5.533,117.677,0,175.345,22.131,55.327,22.131,55.327v-89.375c0-60.86,7.022-93.206,0-154.065S921.2,6109.18,915.664,6112.372Z" transform="translate(-623.473 -5908.336)" fill="#47111e"/>
    <path id="Pfad_52" data-name="Pfad 52" d="M1041.068,6124.456c-2.619,0-30.887,69.078-37.271,144.047s9.116,155.833,11.735,155.833,4.092-80.863,10.476-155.833S1043.687,6124.456,1041.068,6124.456Z" transform="translate(-623.473 -5908.336)" fill="#412"/>
  </g>
</svg>
