<svg xmlns="http://www.w3.org/2000/svg" xmlns:xlink="http://www.w3.org/1999/xlink" width="499" height="498" viewBox="0 0 499 498">
  <defs>
    <clipPath id="clip-HerculesCluster">
      <rect width="499" height="498"/>
    </clipPath>
  </defs>
  <g id="HerculesCluster" clip-path="url(#clip-HerculesCluster)">
    <circle id="Ellipse_8" data-name="Ellipse 8" cx="25" cy="25" r="25" transform="translate(244 231)" fill="#fff"/>
    <g id="_20px" data-name="20px" transform="translate(244 221)">
      <circle id="Ellipse_9" data-name="Ellipse 9" cx="10" cy="10" r="10" fill="#fff"/>
    </g>
    <g id="_10px" data-name="10px" transform="translate(244 203)">
      <circle id="Ellipse_10" data-name="Ellipse 10" cx="5" cy="5" r="5" fill="#fff"/>
    </g>
    <g id="_7px" data-name="7px" transform="translate(249 176)">
      <circle id="Ellipse_11" data-name="Ellipse 11" cx="3.5" cy="3.5" r="3.5" fill="#fff"/>
    </g>
    <g id="_20px-2" data-name="20px" transform="translate(286 227)">
      <circle id="Ellipse_9-2" data-name="Ellipse 9" cx="10" cy="10" r="10" fill="#fff"/>
    </g>
    <g id="_20px-3" data-name="20px" transform="translate(274 217)">
      <circle id="Ellipse_9-3" data-name="Ellipse 9" cx="10" cy="10" r="10" fill="#fff"/>
    </g>
    <g id="_20px-4" data-name="20px" transform="translate(236 255)">
      <circle id="Ellipse_9-4" data-name="Ellipse 9" cx="10" cy="10" r="10" fill="#fff"/>
    </g>
    <g id="_20px-5" data-name="20px" transform="translate(224 237)">
      <circle id="Ellipse_9-5" data-name="Ellipse 9" cx="10" cy="10" r="10" fill="#fff"/>
    </g>
    <g id="_20px-6" data-name="20px" transform="translate(261 281)">
      <circle id="Ellipse_9-6" data-name="Ellipse 9" cx="10" cy="10" r="10" fill="#fff"/>
    </g>
    <g id="_20px-7" data-name="20px" transform="translate(250 276)">
      <circle id="Ellipse_9-7" data-name="Ellipse 9" cx="10" cy="10" r="10" fill="#fff"/>
    </g>
    <g id="_10px-2" data-name="10px" transform="translate(292 257)">
      <circle id="Ellipse_10-2" data-name="Ellipse 10" cx="5" cy="5" r="5" fill="#fff"/>
    </g>
    <g id="_20px-8" data-name="20px" transform="translate(286 273)">
      <circle id="Ellipse_9-8" data-name="Ellipse 9" cx="10" cy="10" r="10" fill="#fff"/>
    </g>
    <g id="_10px-3" data-name="10px" transform="translate(275 277)">
      <circle id="Ellipse_10-3" data-name="Ellipse 10" cx="5" cy="5" r="5" fill="#fff"/>
    </g>
    <g id="_10px-4" data-name="10px" transform="translate(296 244)">
      <circle id="Ellipse_10-4" data-name="Ellipse 10" cx="5" cy="5" r="5" fill="#fff"/>
    </g>
    <g id="_20px-9" data-name="20px" transform="translate(257 211)">
      <circle id="Ellipse_9-9" data-name="Ellipse 9" cx="10" cy="10" r="10" fill="#fff"/>
    </g>
    <g id="_20px-10" data-name="20px" transform="translate(286 262)">
      <circle id="Ellipse_9-10" data-name="Ellipse 9" cx="10" cy="10" r="10" fill="#fff"/>
    </g>
    <g id="_20px-11" data-name="20px" transform="translate(231 276)">
      <circle id="Ellipse_9-11" data-name="Ellipse 9" cx="10" cy="10" r="10" fill="#fff"/>
    </g>
    <g id="_20px-12" data-name="20px" transform="translate(222 223)">
      <circle id="Ellipse_9-12" data-name="Ellipse 9" cx="10" cy="10" r="10" fill="#fff"/>
    </g>
    <g id="_10px-5" data-name="10px" transform="translate(273 210)">
      <circle id="Ellipse_10-5" data-name="Ellipse 10" cx="5" cy="5" r="5" fill="#fff"/>
    </g>
    <g id="_10px-6" data-name="10px" transform="translate(227 261)">
      <circle id="Ellipse_10-6" data-name="Ellipse 10" cx="5" cy="5" r="5" fill="#fff"/>
    </g>
    <g id="_10px-7" data-name="10px" transform="translate(280 286)">
      <circle id="Ellipse_10-7" data-name="Ellipse 10" cx="5" cy="5" r="5" fill="#fff"/>
    </g>
    <g id="_10px-8" data-name="10px" transform="translate(303 250)">
      <circle id="Ellipse_10-8" data-name="Ellipse 10" cx="5" cy="5" r="5" fill="#fff"/>
    </g>
    <g id="_10px-9" data-name="10px" transform="translate(303 260)">
      <circle id="Ellipse_10-9" data-name="Ellipse 10" cx="5" cy="5" r="5" fill="#fff"/>
    </g>
    <g id="_20px-13" data-name="20px" transform="translate(304 235)">
      <circle id="Ellipse_9-13" data-name="Ellipse 9" cx="10" cy="10" r="10" fill="#fff"/>
    </g>
    <g id="_10px-10" data-name="10px" transform="translate(294 218)">
      <circle id="Ellipse_10-10" data-name="Ellipse 10" cx="5" cy="5" r="5" fill="#fff"/>
    </g>
    <g id="_10px-11" data-name="10px" transform="translate(221 255)">
      <circle id="Ellipse_10-11" data-name="Ellipse 10" cx="5" cy="5" r="5" fill="#fff"/>
    </g>
    <g id="_10px-12" data-name="10px" transform="translate(227 271)">
      <circle id="Ellipse_10-12" data-name="Ellipse 10" cx="5" cy="5" r="5" fill="#fff"/>
    </g>
    <g id="_10px-13" data-name="10px" transform="translate(238 217)">
      <circle id="Ellipse_10-13" data-name="Ellipse 10" cx="5" cy="5" r="5" fill="#fff"/>
    </g>
    <g id="_10px-14" data-name="10px" transform="translate(249 210)">
      <circle id="Ellipse_10-14" data-name="Ellipse 10" cx="5" cy="5" r="5" fill="#fff"/>
    </g>
    <g id="_10px-15" data-name="10px" transform="translate(289 209)">
      <circle id="Ellipse_10-15" data-name="Ellipse 10" cx="5" cy="5" r="5" fill="#fff"/>
    </g>
    <g id="_10px-16" data-name="10px" transform="translate(306 227)">
      <circle id="Ellipse_10-16" data-name="Ellipse 10" cx="5" cy="5" r="5" fill="#fff"/>
    </g>
    <g id="_10px-17" data-name="10px" transform="translate(311 256)">
      <circle id="Ellipse_10-17" data-name="Ellipse 10" cx="5" cy="5" r="5" fill="#fff"/>
    </g>
    <g id="_10px-18" data-name="10px" transform="translate(309 270)">
      <circle id="Ellipse_10-18" data-name="Ellipse 10" cx="5" cy="5" r="5" fill="#fff"/>
    </g>
    <g id="_10px-19" data-name="10px" transform="translate(243 237)">
      <circle id="Ellipse_10-19" data-name="Ellipse 10" cx="5" cy="5" r="5" fill="#fff"/>
    </g>
    <g id="_10px-20" data-name="10px" transform="translate(215 267)">
      <circle id="Ellipse_10-20" data-name="Ellipse 10" cx="5" cy="5" r="5" fill="#fff"/>
    </g>
    <g id="_10px-21" data-name="10px" transform="translate(216 246)">
      <circle id="Ellipse_10-21" data-name="Ellipse 10" cx="5" cy="5" r="5" fill="#fff"/>
    </g>
    <g id="_10px-22" data-name="10px" transform="translate(251 295)">
      <circle id="Ellipse_10-22" data-name="Ellipse 10" cx="5" cy="5" r="5" fill="#fff"/>
    </g>
    <g id="_10px-23" data-name="10px" transform="translate(281 299)">
      <circle id="Ellipse_10-23" data-name="Ellipse 10" cx="5" cy="5" r="5" fill="#fff"/>
    </g>
    <g id="_10px-24" data-name="10px" transform="translate(293 294)">
      <circle id="Ellipse_10-24" data-name="Ellipse 10" cx="5" cy="5" r="5" fill="#fff"/>
    </g>
    <g id="_7px-2" data-name="7px" transform="translate(309 281)">
      <circle id="Ellipse_11-2" data-name="Ellipse 11" cx="3.5" cy="3.5" r="3.5" fill="#fff"/>
    </g>
    <g id="_10px-25" data-name="10px" transform="translate(277 303)">
      <circle id="Ellipse_10-25" data-name="Ellipse 10" cx="5" cy="5" r="5" fill="#fff"/>
    </g>
    <g id="_10px-26" data-name="10px" transform="translate(219 345)">
      <circle id="Ellipse_10-26" data-name="Ellipse 10" cx="5" cy="5" r="5" fill="#fff"/>
    </g>
    <g id="_7px-3" data-name="7px" transform="translate(180 324)">
      <circle id="Ellipse_11-3" data-name="Ellipse 11" cx="3.5" cy="3.5" r="3.5" fill="#fff"/>
    </g>
    <g id="_10px-27" data-name="10px" transform="translate(210 233)">
      <circle id="Ellipse_10-27" data-name="Ellipse 10" cx="5" cy="5" r="5" fill="#fff"/>
    </g>
    <g id="_10px-28" data-name="10px" transform="translate(230 210)">
      <circle id="Ellipse_10-28" data-name="Ellipse 10" cx="5" cy="5" r="5" fill="#fff"/>
    </g>
    <g id="_10px-29" data-name="10px" transform="translate(261 202)">
      <circle id="Ellipse_10-29" data-name="Ellipse 10" cx="5" cy="5" r="5" fill="#fff"/>
    </g>
    <g id="_10px-30" data-name="10px" transform="translate(281 202)">
      <circle id="Ellipse_10-30" data-name="Ellipse 10" cx="5" cy="5" r="5" fill="#fff"/>
    </g>
    <g id="_7px-4" data-name="7px" transform="translate(304 211)">
      <circle id="Ellipse_11-4" data-name="Ellipse 11" cx="3.5" cy="3.5" r="3.5" fill="#fff"/>
    </g>
    <g id="_10px-31" data-name="10px" transform="translate(270 196)">
      <circle id="Ellipse_10-31" data-name="Ellipse 10" cx="5" cy="5" r="5" fill="#fff"/>
    </g>
    <g id="_7px-5" data-name="7px" transform="translate(255 204)">
      <circle id="Ellipse_11-5" data-name="Ellipse 11" cx="3.5" cy="3.5" r="3.5" fill="#fff"/>
    </g>
    <g id="_10px-32" data-name="10px" transform="translate(265 304)">
      <circle id="Ellipse_10-32" data-name="Ellipse 10" cx="5" cy="5" r="5" fill="#fff"/>
    </g>
    <g id="_10px-33" data-name="10px" transform="translate(323 253)">
      <circle id="Ellipse_10-33" data-name="Ellipse 10" cx="5" cy="5" r="5" fill="#fff"/>
    </g>
    <g id="_10px-34" data-name="10px" transform="translate(318 227)">
      <circle id="Ellipse_10-34" data-name="Ellipse 10" cx="5" cy="5" r="5" fill="#fff"/>
    </g>
    <g id="_10px-35" data-name="10px" transform="translate(328 243)">
      <circle id="Ellipse_10-35" data-name="Ellipse 10" cx="5" cy="5" r="5" fill="#fff"/>
    </g>
    <g id="_10px-36" data-name="10px" transform="translate(323 238)">
      <circle id="Ellipse_10-36" data-name="Ellipse 10" cx="5" cy="5" r="5" fill="#fff"/>
    </g>
    <g id="_10px-37" data-name="10px" transform="translate(221 279)">
      <circle id="Ellipse_10-37" data-name="Ellipse 10" cx="5" cy="5" r="5" fill="#fff"/>
    </g>
    <g id="_10px-38" data-name="10px" transform="translate(213 258)">
      <circle id="Ellipse_10-38" data-name="Ellipse 10" cx="5" cy="5" r="5" fill="#fff"/>
    </g>
    <g id="_7px-6" data-name="7px" transform="translate(212 245)">
      <circle id="Ellipse_11-6" data-name="Ellipse 11" cx="3.5" cy="3.5" r="3.5" fill="#fff"/>
    </g>
    <g id="_10px-39" data-name="10px" transform="translate(320 270)">
      <circle id="Ellipse_10-39" data-name="Ellipse 10" cx="5" cy="5" r="5" fill="#fff"/>
    </g>
    <g id="_10px-40" data-name="10px" transform="translate(218 216)">
      <circle id="Ellipse_10-40" data-name="Ellipse 10" cx="5" cy="5" r="5" fill="#fff"/>
    </g>
    <g id="_10px-41" data-name="10px" transform="translate(208 251)">
      <circle id="Ellipse_10-41" data-name="Ellipse 10" cx="5" cy="5" r="5" fill="#fff"/>
    </g>
    <g id="_10px-42" data-name="10px" transform="translate(196 240)">
      <circle id="Ellipse_10-42" data-name="Ellipse 10" cx="5" cy="5" r="5" fill="#fff"/>
    </g>
    <g id="_10px-43" data-name="10px" transform="translate(224 292)">
      <circle id="Ellipse_10-43" data-name="Ellipse 10" cx="5" cy="5" r="5" fill="#fff"/>
    </g>
    <g id="_10px-44" data-name="10px" transform="translate(258 192)">
      <circle id="Ellipse_10-44" data-name="Ellipse 10" cx="5" cy="5" r="5" fill="#fff"/>
    </g>
    <g id="_10px-45" data-name="10px" transform="translate(245 304)">
      <circle id="Ellipse_10-45" data-name="Ellipse 10" cx="5" cy="5" r="5" fill="#fff"/>
    </g>
    <g id="_10px-46" data-name="10px" transform="translate(210 273)">
      <circle id="Ellipse_10-46" data-name="Ellipse 10" cx="5" cy="5" r="5" fill="#fff"/>
    </g>
    <g id="_10px-47" data-name="10px" transform="translate(297 200)">
      <circle id="Ellipse_10-47" data-name="Ellipse 10" cx="5" cy="5" r="5" fill="#fff"/>
    </g>
    <g id="_7px-7" data-name="7px" transform="translate(235 204)">
      <circle id="Ellipse_11-7" data-name="Ellipse 11" cx="3.5" cy="3.5" r="3.5" fill="#fff"/>
    </g>
    <g id="_7px-8" data-name="7px" transform="translate(288 196)">
      <circle id="Ellipse_11-8" data-name="Ellipse 11" cx="3.5" cy="3.5" r="3.5" fill="#fff"/>
    </g>
    <g id="_7px-9" data-name="7px" transform="translate(204 266)">
      <circle id="Ellipse_11-9" data-name="Ellipse 11" cx="3.5" cy="3.5" r="3.5" fill="#fff"/>
    </g>
    <g id="_7px-10" data-name="7px" transform="translate(320 218)">
      <circle id="Ellipse_11-10" data-name="Ellipse 11" cx="3.5" cy="3.5" r="3.5" fill="#fff"/>
    </g>
    <g id="_7px-11" data-name="7px" transform="translate(208 224)">
      <circle id="Ellipse_11-11" data-name="Ellipse 11" cx="3.5" cy="3.5" r="3.5" fill="#fff"/>
    </g>
    <g id="_7px-12" data-name="7px" transform="translate(305 296)">
      <circle id="Ellipse_11-12" data-name="Ellipse 11" cx="3.5" cy="3.5" r="3.5" fill="#fff"/>
    </g>
    <g id="_7px-13" data-name="7px" transform="translate(256 313)">
      <circle id="Ellipse_11-13" data-name="Ellipse 11" cx="3.5" cy="3.5" r="3.5" fill="#fff"/>
    </g>
    <g id="_10px-48" data-name="10px" transform="translate(272 315)">
      <circle id="Ellipse_10-48" data-name="Ellipse 10" cx="5" cy="5" r="5" fill="#fff"/>
    </g>
    <g id="_7px-14" data-name="7px" transform="translate(293 311)">
      <circle id="Ellipse_11-14" data-name="Ellipse 11" cx="3.5" cy="3.5" r="3.5" fill="#fff"/>
    </g>
    <g id="_7px-15" data-name="7px" transform="translate(325 301)">
      <circle id="Ellipse_11-15" data-name="Ellipse 11" cx="3.5" cy="3.5" r="3.5" fill="#fff"/>
    </g>
    <g id="_10px-49" data-name="10px" transform="translate(222 204)">
      <circle id="Ellipse_10-49" data-name="Ellipse 10" cx="5" cy="5" r="5" fill="#fff"/>
    </g>
    <g id="_10px-50" data-name="10px" transform="translate(203 208)">
      <circle id="Ellipse_10-50" data-name="Ellipse 10" cx="5" cy="5" r="5" fill="#fff"/>
    </g>
    <g id="_10px-51" data-name="10px" transform="translate(238 187)">
      <circle id="Ellipse_10-51" data-name="Ellipse 10" cx="5" cy="5" r="5" fill="#fff"/>
    </g>
    <g id="_10px-52" data-name="10px" transform="translate(249 189)">
      <circle id="Ellipse_10-52" data-name="Ellipse 10" cx="5" cy="5" r="5" fill="#fff"/>
    </g>
    <g id="_10px-53" data-name="10px" transform="translate(277 188)">
      <circle id="Ellipse_10-53" data-name="Ellipse 10" cx="5" cy="5" r="5" fill="#fff"/>
    </g>
    <g id="_10px-54" data-name="10px" transform="translate(315 204)">
      <circle id="Ellipse_10-54" data-name="Ellipse 10" cx="5" cy="5" r="5" fill="#fff"/>
    </g>
    <g id="_10px-55" data-name="10px" transform="translate(292 188)">
      <circle id="Ellipse_10-55" data-name="Ellipse 10" cx="5" cy="5" r="5" fill="#fff"/>
    </g>
    <g id="_10px-56" data-name="10px" transform="translate(190 256)">
      <circle id="Ellipse_10-56" data-name="Ellipse 10" cx="5" cy="5" r="5" fill="#fff"/>
    </g>
    <g id="_10px-57" data-name="10px" transform="translate(206 285)">
      <circle id="Ellipse_10-57" data-name="Ellipse 10" cx="5" cy="5" r="5" fill="#fff"/>
    </g>
    <g id="_10px-58" data-name="10px" transform="translate(195 269)">
      <circle id="Ellipse_10-58" data-name="Ellipse 10" cx="5" cy="5" r="5" fill="#fff"/>
    </g>
    <g id="_10px-59" data-name="10px" transform="translate(320 282)">
      <circle id="Ellipse_10-59" data-name="Ellipse 10" cx="5" cy="5" r="5" fill="#fff"/>
    </g>
    <g id="_10px-60" data-name="10px" transform="translate(304 300)">
      <circle id="Ellipse_10-60" data-name="Ellipse 10" cx="5" cy="5" r="5" fill="#fff"/>
    </g>
    <g id="_10px-61" data-name="10px" transform="translate(271 181)">
      <circle id="Ellipse_10-61" data-name="Ellipse 10" cx="5" cy="5" r="5" fill="#fff"/>
    </g>
    <g id="_7px-16" data-name="7px" transform="translate(307 196)">
      <circle id="Ellipse_11-16" data-name="Ellipse 11" cx="3.5" cy="3.5" r="3.5" fill="#fff"/>
    </g>
    <g id="_7px-17" data-name="7px" transform="translate(329 226)">
      <circle id="Ellipse_11-17" data-name="Ellipse 11" cx="3.5" cy="3.5" r="3.5" fill="#fff"/>
    </g>
    <g id="_7px-18" data-name="7px" transform="translate(311 217)">
      <circle id="Ellipse_11-18" data-name="Ellipse 11" cx="3.5" cy="3.5" r="3.5" fill="#fff"/>
    </g>
    <g id="_10px-62" data-name="10px" transform="translate(216 197)">
      <circle id="Ellipse_10-62" data-name="Ellipse 10" cx="5" cy="5" r="5" fill="#fff"/>
    </g>
    <g id="_10px-63" data-name="10px" transform="translate(231 306)">
      <circle id="Ellipse_10-63" data-name="Ellipse 10" cx="5" cy="5" r="5" fill="#fff"/>
    </g>
    <g id="_20px-14" data-name="20px" transform="translate(238 271)">
      <circle id="Ellipse_9-14" data-name="Ellipse 9" cx="10" cy="10" r="10" fill="#fff"/>
    </g>
    <g id="_10px-64" data-name="10px" transform="translate(181 282)">
      <circle id="Ellipse_10-64" data-name="Ellipse 10" cx="5" cy="5" r="5" fill="#fff"/>
    </g>
    <g id="_10px-65" data-name="10px" transform="translate(211 304)">
      <circle id="Ellipse_10-65" data-name="Ellipse 10" cx="5" cy="5" r="5" fill="#fff"/>
    </g>
    <g id="_7px-19" data-name="7px" transform="translate(284 173)">
      <circle id="Ellipse_11-19" data-name="Ellipse 11" cx="3.5" cy="3.5" r="3.5" fill="#fff"/>
    </g>
    <g id="_7px-20" data-name="7px" transform="translate(336 206)">
      <circle id="Ellipse_11-20" data-name="Ellipse 11" cx="3.5" cy="3.5" r="3.5" fill="#fff"/>
    </g>
    <g id="_7px-21" data-name="7px" transform="translate(339 269)">
      <circle id="Ellipse_11-21" data-name="Ellipse 11" cx="3.5" cy="3.5" r="3.5" fill="#fff"/>
    </g>
    <g id="_10px-66" data-name="10px" transform="translate(288 324)">
      <circle id="Ellipse_10-66" data-name="Ellipse 10" cx="5" cy="5" r="5" fill="#fff"/>
    </g>
    <g id="_10px-67" data-name="10px" transform="translate(180 226)">
      <circle id="Ellipse_10-67" data-name="Ellipse 10" cx="5" cy="5" r="5" fill="#fff"/>
    </g>
    <g id="_10px-68" data-name="10px" transform="translate(308 181)">
      <circle id="Ellipse_10-68" data-name="Ellipse 10" cx="5" cy="5" r="5" fill="#fff"/>
    </g>
    <g id="_10px-69" data-name="10px" transform="translate(211 175)">
      <circle id="Ellipse_10-69" data-name="Ellipse 10" cx="5" cy="5" r="5" fill="#fff"/>
    </g>
    <g id="_10px-70" data-name="10px" transform="translate(198 195)">
      <circle id="Ellipse_10-70" data-name="Ellipse 10" cx="5" cy="5" r="5" fill="#fff"/>
    </g>
    <g id="_10px-71" data-name="10px" transform="translate(340 252)">
      <circle id="Ellipse_10-71" data-name="Ellipse 10" cx="5" cy="5" r="5" fill="#fff"/>
    </g>
    <g id="_10px-72" data-name="10px" transform="translate(265 174)">
      <circle id="Ellipse_10-72" data-name="Ellipse 10" cx="5" cy="5" r="5" fill="#fff"/>
    </g>
    <g id="_10px-73" data-name="10px" transform="translate(246 321)">
      <circle id="Ellipse_10-73" data-name="Ellipse 10" cx="5" cy="5" r="5" fill="#fff"/>
    </g>
    <g id="_10px-74" data-name="10px" transform="translate(177 254)">
      <circle id="Ellipse_10-74" data-name="Ellipse 10" cx="5" cy="5" r="5" fill="#fff"/>
    </g>
    <g id="_10px-75" data-name="10px" transform="translate(233 179)">
      <circle id="Ellipse_10-75" data-name="Ellipse 10" cx="5" cy="5" r="5" fill="#fff"/>
    </g>
    <g id="_10px-76" data-name="10px" transform="translate(250 160)">
      <circle id="Ellipse_10-76" data-name="Ellipse 10" cx="5" cy="5" r="5" fill="#fff"/>
    </g>
    <g id="_10px-77" data-name="10px" transform="translate(298 174)">
      <circle id="Ellipse_10-77" data-name="Ellipse 10" cx="5" cy="5" r="5" fill="#fff"/>
    </g>
    <g id="_10px-78" data-name="10px" transform="translate(343 237)">
      <circle id="Ellipse_10-78" data-name="Ellipse 10" cx="5" cy="5" r="5" fill="#fff"/>
    </g>
    <g id="_10px-79" data-name="10px" transform="translate(328 188)">
      <circle id="Ellipse_10-79" data-name="Ellipse 10" cx="5" cy="5" r="5" fill="#fff"/>
    </g>
    <g id="_7px-22" data-name="7px" transform="translate(220 189)">
      <circle id="Ellipse_11-22" data-name="Ellipse 11" cx="3.5" cy="3.5" r="3.5" fill="#fff"/>
    </g>
    <g id="_7px-23" data-name="7px" transform="translate(322 173)">
      <circle id="Ellipse_11-23" data-name="Ellipse 11" cx="3.5" cy="3.5" r="3.5" fill="#fff"/>
    </g>
    <g id="_7px-24" data-name="7px" transform="translate(182 170)">
      <circle id="Ellipse_11-24" data-name="Ellipse 11" cx="3.5" cy="3.5" r="3.5" fill="#fff"/>
    </g>
    <g id="_7px-25" data-name="7px" transform="translate(143 244)">
      <circle id="Ellipse_11-25" data-name="Ellipse 11" cx="3.5" cy="3.5" r="3.5" fill="#fff"/>
    </g>
    <g id="_7px-26" data-name="7px" transform="translate(162 211)">
      <circle id="Ellipse_11-26" data-name="Ellipse 11" cx="3.5" cy="3.5" r="3.5" fill="#fff"/>
    </g>
    <g id="_10px-80" data-name="10px" transform="translate(361 219)">
      <circle id="Ellipse_10-80" data-name="Ellipse 10" cx="5" cy="5" r="5" fill="#fff"/>
    </g>
    <g id="_7px-27" data-name="7px" transform="translate(145 177)">
      <circle id="Ellipse_11-27" data-name="Ellipse 11" cx="3.5" cy="3.5" r="3.5" fill="#fff"/>
    </g>
    <g id="_7px-28" data-name="7px" transform="translate(175 190)">
      <circle id="Ellipse_11-28" data-name="Ellipse 11" cx="3.5" cy="3.5" r="3.5" fill="#fff"/>
    </g>
    <g id="_7px-29" data-name="7px" transform="translate(370 314)">
      <circle id="Ellipse_11-29" data-name="Ellipse 11" cx="3.5" cy="3.5" r="3.5" fill="#fff"/>
    </g>
    <g id="_7px-30" data-name="7px" transform="translate(390 276)">
      <circle id="Ellipse_11-30" data-name="Ellipse 11" cx="3.5" cy="3.5" r="3.5" fill="#fff"/>
    </g>
    <g id="_7px-31" data-name="7px" transform="translate(362 295)">
      <circle id="Ellipse_11-31" data-name="Ellipse 11" cx="3.5" cy="3.5" r="3.5" fill="#fff"/>
    </g>
    <g id="_10px-81" data-name="10px" transform="translate(317 326)">
      <circle id="Ellipse_10-81" data-name="Ellipse 10" cx="5" cy="5" r="5" fill="#fff"/>
    </g>
    <g id="_10px-82" data-name="10px" transform="translate(258 344)">
      <circle id="Ellipse_10-82" data-name="Ellipse 10" cx="5" cy="5" r="5" fill="#fff"/>
    </g>
    <g id="_7px-32" data-name="7px" transform="translate(212 322)">
      <circle id="Ellipse_11-32" data-name="Ellipse 11" cx="3.5" cy="3.5" r="3.5" fill="#fff"/>
    </g>
    <g id="_7px-33" data-name="7px" transform="translate(286 157)">
      <circle id="Ellipse_11-33" data-name="Ellipse 11" cx="3.5" cy="3.5" r="3.5" fill="#fff"/>
    </g>
    <g id="_7px-34" data-name="7px" transform="translate(249 137)">
      <circle id="Ellipse_11-34" data-name="Ellipse 11" cx="3.5" cy="3.5" r="3.5" fill="#fff"/>
    </g>
    <g id="_7px-35" data-name="7px" transform="translate(270 149)">
      <circle id="Ellipse_11-35" data-name="Ellipse 11" cx="3.5" cy="3.5" r="3.5" fill="#fff"/>
    </g>
    <g id="_7px-36" data-name="7px" transform="translate(167 285)">
      <circle id="Ellipse_11-36" data-name="Ellipse 11" cx="3.5" cy="3.5" r="3.5" fill="#fff"/>
    </g>
    <g id="_7px-37" data-name="7px" transform="translate(355 180)">
      <circle id="Ellipse_11-37" data-name="Ellipse 11" cx="3.5" cy="3.5" r="3.5" fill="#fff"/>
    </g>
    <g id="_7px-38" data-name="7px" transform="translate(327 133)">
      <circle id="Ellipse_11-38" data-name="Ellipse 11" cx="3.5" cy="3.5" r="3.5" fill="#fff"/>
    </g>
    <g id="_7px-39" data-name="7px" transform="translate(192 84)">
      <circle id="Ellipse_11-39" data-name="Ellipse 11" cx="3.5" cy="3.5" r="3.5" fill="#fff"/>
    </g>
    <g id="_7px-40" data-name="7px" transform="translate(72 290)">
      <circle id="Ellipse_11-40" data-name="Ellipse 11" cx="3.5" cy="3.5" r="3.5" fill="#fff"/>
    </g>
    <g id="_7px-41" data-name="7px" transform="translate(402 190)">
      <circle id="Ellipse_11-41" data-name="Ellipse 11" cx="3.5" cy="3.5" r="3.5" fill="#fff"/>
    </g>
    <g id="_7px-42" data-name="7px" transform="translate(432 297)">
      <circle id="Ellipse_11-42" data-name="Ellipse 11" cx="3.5" cy="3.5" r="3.5" fill="#fff"/>
    </g>
    <g id="_10px-83" data-name="10px" transform="translate(321 378)">
      <circle id="Ellipse_10-83" data-name="Ellipse 10" cx="5" cy="5" r="5" fill="#fff"/>
    </g>
    <g id="_10px-84" data-name="10px" transform="translate(95 207)">
      <circle id="Ellipse_10-84" data-name="Ellipse 10" cx="5" cy="5" r="5" fill="#fff"/>
    </g>
    <g id="_10px-85" data-name="10px" transform="translate(366 134)">
      <circle id="Ellipse_10-85" data-name="Ellipse 10" cx="5" cy="5" r="5" fill="#fff"/>
    </g>
    <g id="_10px-86" data-name="10px" transform="translate(271 105)">
      <circle id="Ellipse_10-86" data-name="Ellipse 10" cx="5" cy="5" r="5" fill="#fff"/>
    </g>
    <g id="_7px-43" data-name="7px" transform="translate(172 370)">
      <circle id="Ellipse_11-43" data-name="Ellipse 11" cx="3.5" cy="3.5" r="3.5" fill="#fff"/>
    </g>
    <g id="_7px-44" data-name="7px" transform="translate(281 364)">
      <circle id="Ellipse_11-44" data-name="Ellipse 11" cx="3.5" cy="3.5" r="3.5" fill="#fff"/>
    </g>
    <g id="_7px-45" data-name="7px" transform="translate(106 340)">
      <circle id="Ellipse_11-45" data-name="Ellipse 11" cx="3.5" cy="3.5" r="3.5" fill="#fff"/>
    </g>
    <g id="_7px-46" data-name="7px" transform="translate(249 427)">
      <circle id="Ellipse_11-46" data-name="Ellipse 11" cx="3.5" cy="3.5" r="3.5" fill="#fff"/>
    </g>
    <g id="_7px-47" data-name="7px" transform="translate(422 385)">
      <circle id="Ellipse_11-47" data-name="Ellipse 11" cx="3.5" cy="3.5" r="3.5" fill="#fff"/>
    </g>
    <g id="_7px-48" data-name="7px" transform="translate(408 249)">
      <circle id="Ellipse_11-48" data-name="Ellipse 11" cx="3.5" cy="3.5" r="3.5" fill="#fff"/>
    </g>
    <g id="_7px-49" data-name="7px" transform="translate(484 210)">
      <circle id="Ellipse_11-49" data-name="Ellipse 11" cx="3.5" cy="3.5" r="3.5" fill="#fff"/>
    </g>
    <g id="_10px-87" data-name="10px" transform="translate(144 283)">
      <circle id="Ellipse_10-87" data-name="Ellipse 10" cx="5" cy="5" r="5" fill="#fff"/>
    </g>
    <g id="_10px-88" data-name="10px" transform="translate(357 252)">
      <circle id="Ellipse_10-88" data-name="Ellipse 10" cx="5" cy="5" r="5" fill="#fff"/>
    </g>
    <g id="_10px-89" data-name="10px" transform="translate(324 74)">
      <circle id="Ellipse_10-89" data-name="Ellipse 10" cx="5" cy="5" r="5" fill="#fff"/>
    </g>
    <g id="_7px-50" data-name="7px" transform="translate(411 147)">
      <circle id="Ellipse_11-50" data-name="Ellipse 11" cx="3.5" cy="3.5" r="3.5" fill="#fff"/>
    </g>
    <g id="_7px-51" data-name="7px" transform="translate(307)">
      <circle id="Ellipse_11-51" data-name="Ellipse 11" cx="3.5" cy="3.5" r="3.5" fill="#fff"/>
    </g>
    <g id="_7px-52" data-name="7px" transform="translate(465 120)">
      <circle id="Ellipse_11-52" data-name="Ellipse 11" cx="3.5" cy="3.5" r="3.5" fill="#fff"/>
    </g>
    <g id="_7px-53" data-name="7px" transform="translate(265 491)">
      <circle id="Ellipse_11-53" data-name="Ellipse 11" cx="3.5" cy="3.5" r="3.5" fill="#fff"/>
    </g>
    <g id="_10px-90" data-name="10px" transform="translate(183 134)">
      <circle id="Ellipse_10-90" data-name="Ellipse 10" cx="5" cy="5" r="5" fill="#fff"/>
    </g>
    <g id="_7px-54" data-name="7px" transform="translate(96 103)">
      <circle id="Ellipse_11-54" data-name="Ellipse 11" cx="3.5" cy="3.5" r="3.5" fill="#fff"/>
    </g>
    <g id="_7px-55" data-name="7px" transform="translate(492 254)">
      <circle id="Ellipse_11-55" data-name="Ellipse 11" cx="3.5" cy="3.5" r="3.5" fill="#fff"/>
    </g>
    <g id="_7px-56" data-name="7px" transform="translate(0 175)">
      <circle id="Ellipse_11-56" data-name="Ellipse 11" cx="3.5" cy="3.5" r="3.5" fill="#fff"/>
    </g>
    <g id="_7px-57" data-name="7px" transform="translate(112 448)">
      <circle id="Ellipse_11-57" data-name="Ellipse 11" cx="3.5" cy="3.5" r="3.5" fill="#fff"/>
    </g>
    <g id="_7px-58" data-name="7px" transform="translate(113 356)">
      <circle id="Ellipse_11-58" data-name="Ellipse 11" cx="3.5" cy="3.5" r="3.5" fill="#fff"/>
    </g>
    <g id="_7px-59" data-name="7px" transform="translate(349 118)">
      <circle id="Ellipse_11-59" data-name="Ellipse 11" cx="3.5" cy="3.5" r="3.5" fill="#fff"/>
    </g>
    <g id="_7px-60" data-name="7px" transform="translate(478 233)">
      <circle id="Ellipse_11-60" data-name="Ellipse 11" cx="3.5" cy="3.5" r="3.5" fill="#fff"/>
    </g>
    <g id="_7px-61" data-name="7px" transform="translate(314 297)">
      <circle id="Ellipse_11-61" data-name="Ellipse 11" cx="3.5" cy="3.5" r="3.5" fill="#fff"/>
    </g>
    <g id="_10px-91" data-name="10px" transform="translate(310 291)">
      <circle id="Ellipse_10-91" data-name="Ellipse 10" cx="5" cy="5" r="5" fill="#fff"/>
    </g>
    <g id="_7px-62" data-name="7px" transform="translate(322 407)">
      <circle id="Ellipse_11-62" data-name="Ellipse 11" cx="3.5" cy="3.5" r="3.5" fill="#fff"/>
    </g>
    <g id="_7px-63" data-name="7px" transform="translate(343 329)">
      <circle id="Ellipse_11-63" data-name="Ellipse 11" cx="3.5" cy="3.5" r="3.5" fill="#fff"/>
    </g>
    <g id="_10px-92" data-name="10px" transform="translate(125 259)">
      <circle id="Ellipse_10-92" data-name="Ellipse 10" cx="5" cy="5" r="5" fill="#fff"/>
    </g>
    <g id="_10px-93" data-name="10px" transform="translate(350 202)">
      <circle id="Ellipse_10-93" data-name="Ellipse 10" cx="5" cy="5" r="5" fill="#fff"/>
    </g>
    <g id="_10px-94" data-name="10px" transform="translate(351 274)">
      <circle id="Ellipse_10-94" data-name="Ellipse 10" cx="5" cy="5" r="5" fill="#fff"/>
    </g>
    <g id="_10px-95" data-name="10px" transform="translate(212 158)">
      <circle id="Ellipse_10-95" data-name="Ellipse 10" cx="5" cy="5" r="5" fill="#fff"/>
    </g>
    <g id="_10px-96" data-name="10px" transform="translate(231 171)">
      <circle id="Ellipse_10-96" data-name="Ellipse 10" cx="5" cy="5" r="5" fill="#fff"/>
    </g>
    <g id="_10px-97" data-name="10px" transform="translate(288 347)">
      <circle id="Ellipse_10-97" data-name="Ellipse 10" cx="5" cy="5" r="5" fill="#fff"/>
    </g>
    <g id="_10px-98" data-name="10px" transform="translate(161 226)">
      <circle id="Ellipse_10-98" data-name="Ellipse 10" cx="5" cy="5" r="5" fill="#fff"/>
    </g>
    <g id="_10px-99" data-name="10px" transform="translate(357 232)">
      <circle id="Ellipse_10-99" data-name="Ellipse 10" cx="5" cy="5" r="5" fill="#fff"/>
    </g>
    <g id="_7px-64" data-name="7px" transform="translate(311 159)">
      <circle id="Ellipse_11-64" data-name="Ellipse 11" cx="3.5" cy="3.5" r="3.5" fill="#fff"/>
    </g>
    <g id="_7px-65" data-name="7px" transform="translate(187 197)">
      <circle id="Ellipse_11-65" data-name="Ellipse 11" cx="3.5" cy="3.5" r="3.5" fill="#fff"/>
    </g>
    <g id="_7px-66" data-name="7px" transform="translate(201 228)">
      <circle id="Ellipse_11-66" data-name="Ellipse 11" cx="3.5" cy="3.5" r="3.5" fill="#fff"/>
    </g>
  </g>
</svg>
