<svg xmlns="http://www.w3.org/2000/svg" xmlns:xlink="http://www.w3.org/1999/xlink" width="401" height="229" viewBox="0 0 401 229">
  <defs>
    <clipPath id="clip-Messier88">
      <rect width="401" height="229"/>
    </clipPath>
  </defs>
  <g id="Messier88" clip-path="url(#clip-Messier88)">
    <ellipse id="Ellipse_66" data-name="Ellipse 66" cx="203" cy="107.5" rx="203" ry="107.5" transform="translate(-19.782 45.709) rotate(-11)" fill="#6577b0" opacity="0.7"/>
    <ellipse id="Ellipse_65" data-name="Ellipse 65" cx="33.5" cy="19.5" rx="33.5" ry="19.5" transform="translate(162.895 99.75) rotate(-11)" fill="#dcc5b8"/>
    <circle id="Ellipse_64" data-name="Ellipse 64" cx="9.5" cy="9.5" r="9.5" transform="translate(190 103)" fill="#fff"/>
    <path id="Pfad_183" data-name="Pfad 183" d="M944.4,15801.52s22.614.567,24.764,4.793,3.819,19.632-23.54,31.8-57.923,21.646-91.319,9.854-42.2-34.314-25.095-65.095,56.019-41.108,123.182-55.614,113.825-2.319,144.13,2.871.638,23.277-28.061,18.813-102.434,1.33-157.595,19.557-60.458,40.348-58.825,56.924,65.407,8.351,65.407,8.351C963.738,15818.886,944.4,15801.52,944.4,15801.52Z" transform="translate(-716 -15702)" fill="#d9a47d" opacity="0.9"/>
    <path id="Pfad_184" data-name="Pfad 184" d="M890.089,15830.049s-24.019,3.8-25.658-6.17-3.869-21.458,19.1-33.722,44.494-12.379,74.857-10.483,50.261,6.727,48.916,30.295-8.3,46.791-61.509,63.017-126.2,13.312-179.961,2.876-43.874-39.276-35.085-44.617,21.743,17.386,70.24,23.253,78.916,11.12,123.75.216,55.587-30.131,55.587-43.832-25.047-14.069-42.225-17.246-25.706,1.639-25.706,1.639S864.719,15809.452,890.089,15830.049Z" transform="translate(-716 -15702)" fill="#926a55"/>
    <path id="Pfad_185" data-name="Pfad 185" d="M847.082,15776.413c0-2.177,18.654-23.731,54.717-33.991s89.537-9.224,89.537-7.047-53.474,5.493-89.537,15.753S847.082,15778.59,847.082,15776.413Z" transform="translate(-716 -15702)" fill="#aa81c3"/>
    <path id="Pfad_186" data-name="Pfad 186" d="M851.371,15861.241c-1.993,3.269-39.141,6.776-59.309-7.333s-23.357-45.837-21.364-49.105,9.167,21.922,29.336,36.031S853.364,15857.973,851.371,15861.241Z" transform="translate(-716 -15702)" fill="#9e6ca2"/>
    <path id="Pfad_187" data-name="Pfad 187" d="M985.969,15766.555c6.439-2.637,69.6-1.411,88.547,17.659s-1.594,34.277-12.755,58.622-28.637,41.7-31.887,38.756,10.731-14.839,15.453-36.547,19.132-34.156,3.434-50.283S979.531,15769.191,985.969,15766.555Z" transform="translate(-716 -15702)" fill="#bd9495"/>
    <path id="Pfad_188" data-name="Pfad 188" d="M818.282,15843.52s-26.052-6.857-33.672-21.916-5.043-23.367,3.193-38.316,29.753-21.479,29.753-21.479-15.892,13.206-21.19,28.155-5.479,18.252,0,31.641S818.282,15843.52,818.282,15843.52Z" transform="translate(-716 -15702)" fill="#644544"/>
    <path id="Pfad_189" data-name="Pfad 189" d="M925,15892.7c-.829,4.663-54.94,23.732-98.954,33.577s-77.931,10.466-77.1,5.8,36.4-14.611,80.418-24.456S925.829,15888.037,925,15892.7Z" transform="translate(-670 -15706)" fill="#4b6ebd"/>
  </g>
</svg>
