<svg xmlns="http://www.w3.org/2000/svg" xmlns:xlink="http://www.w3.org/1999/xlink" width="1034" height="962" viewBox="0 0 1034 962">
  <defs>
    <clipPath id="clip-NGC1566">
      <rect width="1034" height="962"/>
    </clipPath>
  </defs>
  <g id="NGC1566" clip-path="url(#clip-NGC1566)">
    <path id="Pfad_176" data-name="Pfad 176" d="M1365.884,13203.937c-35.993-22.757,28.795-74.077,34.368-145.831s-35.993-150.475-12.075-141.186,113.321,106.586,107.747,178.34S1401.878,13226.693,1365.884,13203.937Z" transform="translate(-5863.372 -11119.036) rotate(-25)" fill="#285570" opacity="0.7"/>
    <path id="Pfad_175" data-name="Pfad 175" d="M473.181,13580.968c-31.617,110.213-37.154,292.947-22.864,313.668s58.768-117.716,80.025-230.786,19.292-200.775,5-221.5S504.8,13470.755,473.181,13580.968Z" transform="translate(-442.863 -12935)" fill="#46699a" opacity="0.7"/>
    <circle id="Ellipse_59" data-name="Ellipse 59" cx="140.5" cy="140.5" r="140.5" transform="translate(373.137 323)" fill="#ccb199" opacity="0.9"/>
    <circle id="Ellipse_58" data-name="Ellipse 58" cx="31.5" cy="31.5" r="31.5" transform="translate(492.137 435)" fill="#fffbf8"/>
    <path id="Pfad_168" data-name="Pfad 168" d="M870.167,13509.117s-7.524,28,32.31,53.4,57.674,34.038,162.039,8.874,112.161-51.839,196.222-145.187,30.884-437.328,87.169-435.488,148.705,416.341,50.712,525.713-294.518,222.384-421.538,209.845-263.816-156.642-279.755-202.26,122.454-93.177,122.454-93.177C828.4,13478.007,870.167,13509.117,870.167,13509.117Z" transform="translate(-442.863 -12935)" fill="#3b434e" opacity="0.6"/>
    <path id="Pfad_167" data-name="Pfad 167" d="M1087.927,13350.175s104.251-49.286,99.61-104.982-70.361-182.52-187.628-188.557-241.27,49.694-346.462,139.328S536.083,13364.926,511,13455.023s-34.05,345.681-13.6,326.609,110.455-279.544,161.367-368.833,68.292-100.785,160.406-152.367,104.321-47.054,165.764-27.865,72.787,68.959,72.787,68.959C1080.81,13325.523,1087.927,13350.175,1087.927,13350.175Z" transform="translate(-442.863 -12935)" fill="#3b4e5f" opacity="0.6"/>
    <path id="Pfad_165" data-name="Pfad 165" d="M1087.927,13350.175s80.973-36.284,53.162-91.105-47.139-122.144-164.406-128.181-199.47,14.4-304.662,104.03-105.656,132.828-130.735,222.926S490.555,13668.6,511,13649.53s62.038-164.629,112.95-253.918,68.507-109.111,160.62-160.693,160.149-47.295,221.593-28.106,51.561,94.714,51.561,94.714C1080.81,13325.523,1087.927,13350.175,1087.927,13350.175Z" transform="translate(-442.863 -12935)" fill="#c4a4b9"/>
    <path id="Pfad_166" data-name="Pfad 166" d="M866.219,13505.922s-26.429,40.812,20.249,64.206,61.553,54.541,165.918,29.377,164.871-49.694,248.932-143.043,64.27-243.937,87.312-230.354,29.581,196.219-68.412,305.591-196.542,144.436-323.562,131.9-176.938-77.369-220.137-131.9,47.342-86.212,47.342-86.212C838.393,13485.447,866.219,13505.922,866.219,13505.922Z" transform="translate(-442.863 -12935)" fill="#cfb5be"/>
    <path id="Pfad_169" data-name="Pfad 169" d="M959.3,13341.351c.634-10.887-43.23,17.017-67.645,43.969s-32.343,32.132-30.018,63.841,32.449,68.067,39.319,62.994-26.424-40.587-11.838-83.288S958.661,13352.237,959.3,13341.351Z" transform="translate(-453.863 -12962.283)" fill="#a16946"/>
    <path id="Pfad_170" data-name="Pfad 170" d="M1029.583,13433c4.545-1.374,32.554-44.188,30.863-79.494s-33.083-63.1-37.628-61.728,17.757,31.917,19.448,67.223S1025.038,13434.374,1029.583,13433Z" transform="translate(-438.863 -12915.077)" fill="#a9664c"/>
    <path id="Pfad_171" data-name="Pfad 171" d="M524.625,13591.3c-3.93-3.215,10.718-125.038,60.733-227.926s104.675-143.795,222.211-193.632,237.751,12.861,240.073,17.148-117.179-53.052-230.785,0-161.478,90.742-215.78,189.344S528.554,13594.512,524.625,13591.3Z" transform="translate(-442.863 -12935)" fill="#5e3638"/>
    <path id="Pfad_172" data-name="Pfad 172" d="M892.058,13591.36c0,7.859,68.057,64.929,164.336,51.561s149.51-51.981,220.782-105.033,76.988-106.1,64.305-107.175-43.763,57.7-115.035,102.889-86.455,63.441-170.052,77.881S892.058,13583.5,892.058,13591.36Z" transform="translate(-442.863 -12935)" fill="#503735"/>
    <path id="Pfad_173" data-name="Pfad 173" d="M1151.177,13500.563c44.107-31.878,50.7-74.474,44.519-77.5s-25.145,33.526-69.252,65.4-107.176,62.107-107.176,62.107S1107.07,13532.441,1151.177,13500.563Z" transform="translate(-442.863 -12935)" fill="#d1aabc"/>
    <path id="Pfad_174" data-name="Pfad 174" d="M1102.622,13479c11.415,7.61,36.888-18.6,47.775-45.66s4.651-61.727-4.228-62.572-6.87,31.286-17.757,58.345S1091.206,13471.389,1102.622,13479Z" transform="translate(-442.863 -12935)" fill="#c08194"/>
  </g>
</svg>
