<svg xmlns="http://www.w3.org/2000/svg" xmlns:xlink="http://www.w3.org/1999/xlink" width="1286" height="968" viewBox="0 0 1286 968">
  <defs>
    <clipPath id="clip-NGC1300">
      <rect width="1286" height="968"/>
    </clipPath>
  </defs>
  <g id="NGC1300" clip-path="url(#clip-NGC1300)">
    <path id="Pfad_117" data-name="Pfad 117" d="M1099.353,6443.349c34.411,46.658,213.106,189.338,298.888,170.569s126.541-119.989,145.81-220.711-56.473-236.04-251.856-348.534-895.507-182.062-901.428-88.811c-3.262,51.381,218.973,56.583,435.172,88.811,175.231,26.12,345,80.291,398.168,109.533,118.414,65.127,273.089,240.271,118.042,293.316S1064.941,6396.691,1099.353,6443.349Z" transform="translate(-390.731 -5912.42)" fill="#4f5b75" opacity="0.6"/>
    <path id="Pfad_118" data-name="Pfad 118" d="M768.178,6295.976c10.6-48.83-101.722-167.056-196.353-154.115s-206.333,88.763-170.453,239.847,95.056,243.227,313.974,364.487,503.675,137.764,722.791,132.252,309.173-105.32,175.826-117.582S881.831,6753.2,737.5,6653.355,551.2,6458.666,571.826,6381.708,757.574,6344.806,768.178,6295.976Z" transform="translate(-390.731 -5912.42)" fill="#32374a" opacity="0.6"/>
    <ellipse id="Ellipse_46" data-name="Ellipse 46" cx="334" cy="146.5" rx="334" ry="146.5" transform="translate(285.161 200.821) rotate(19)" fill="#bba192" opacity="0.7"/>
    <path id="Pfad_126" data-name="Pfad 126" d="M174.926,0c96.609,0,174.926,27.681,174.926,61.828s-78.317,61.828-174.926,61.828S0,95.975,0,61.828,78.317,0,174.926,0Z" transform="translate(403.08 333.223) rotate(19)" fill="#d2bcaf" opacity="0.9"/>
    <circle id="Ellipse_45" data-name="Ellipse 45" cx="22.5" cy="22.5" r="22.5" transform="translate(530.269 425.58)" fill="#fffdf3"/>
    <path id="Pfad_122" data-name="Pfad 122" d="M598.777,6234.856c-4.042-34.36-134.51-24.112-137.928,75.275-1.3,37.767-6.873,113.891,25.415,175.692,52.876,101.208,156.794,186.211,174.5,166.411,18.016-20.152-59.957-89.467-107.325-166.411-27.6-44.84-33.445-97.1-33.484-131.043C519.844,6262.8,602.819,6269.217,598.777,6234.856Z" transform="translate(-390.731 -5912.42)" fill="#adaec3" opacity="0.8"/>
    <path id="Pfad_119" data-name="Pfad 119" d="M505.143,6413.151c17.517,11.386-41.822-113.422,35.91-144.515s183.332,3.755,253.556,20.858,124.008,39.295,121.271,30.577-66.6-45.606-132.218-65.449-196.609-51.5-266.239-11.867S487.626,6401.765,505.143,6413.151Z" transform="translate(-390.731 -5912.42)" fill="#895d4e" opacity="0.8"/>
    <path id="Pfad_120" data-name="Pfad 120" d="M996.274,6429.141c-22.991-19.926,177.866,46.017,236.069,58.375s99.379,37.312,147.551,21.327,55.04-92.607,66.564-88.461,9.5,116.625-103.046,118.815S1019.265,6449.066,996.274,6429.141Z" transform="translate(-390.731 -5912.42)" fill="#8f6b5b" opacity="0.8"/>
    <path id="Pfad_121" data-name="Pfad 121" d="M1433.862,6187.185c14.148-1.347,80.4,175.7,65.311,282.156s-107.463,139.7-120.557,120.06,77.214-20.2,92.3-126.661S1419.714,6188.532,1433.862,6187.185Z" transform="translate(-390.731 -5912.42)" fill="#a6b7d5" opacity="0.8"/>
    <path id="Pfad_123" data-name="Pfad 123" d="M357.236,6018.071c58.353,26.757,254.615,21.693,295.32,4.33s-39.135-47.312-138.193-56.706S298.883,5991.314,357.236,6018.071Z" transform="translate(-274.731 -5949.42)" fill="#62738e" opacity="0.7"/>
    <path id="Pfad_124" data-name="Pfad 124" d="M903.195,6820.215c20.229,5.557,63.6,12.914,114.3,20.484,114.922,17.159,261.894,13.677,261.894,13.677s-150.471-33.022-248.675-47.824S836.871,6802,903.195,6820.215Z" transform="translate(-390.731 -5912.42)" fill="#616d8c" opacity="0.8"/>
    <path id="Pfad_125" data-name="Pfad 125" d="M937.353,6008.4c4.554-7.4,202.386,25.618,316.531,77.425s144.318,123.823,140.048,129.8-42.982-54.084-157.127-105.891S932.8,6015.8,937.353,6008.4Z" transform="translate(-390.731 -5912.42)" fill="#4f4546" opacity="0.8"/>
  </g>
</svg>
