<svg xmlns="http://www.w3.org/2000/svg" xmlns:xlink="http://www.w3.org/1999/xlink" width="1154" height="597" viewBox="0 0 1154 597">
  <defs>
    <clipPath id="clip-NGC5033">
      <rect width="1154" height="597"/>
    </clipPath>
  </defs>
  <g id="NGC5033" clip-path="url(#clip-NGC5033)">
    <ellipse id="Ellipse_53" data-name="Ellipse 53" cx="271.401" cy="101.793" rx="271.401" ry="101.793" transform="matrix(0.978, 0.208, -0.208, 0.978, 346.767, 154.681)" fill="#877791" opacity="0.8"/>
    <ellipse id="Ellipse_52" data-name="Ellipse 52" cx="49.5" cy="24" rx="49.5" ry="24" transform="translate(548.698 281.951) rotate(13)" fill="#e8bbb8"/>
    <circle id="Ellipse_51" data-name="Ellipse 51" cx="15.5" cy="15.5" r="15.5" transform="translate(579.915 301.381) rotate(13)" fill="#feedfd"/>
    <path id="Pfad_137" data-name="Pfad 137" d="M49.751,35.37C77.09,35.37,99,10.745,99,24S76.838,48,49.5,48,0,37.255,0,24,22.413,35.37,49.751,35.37Z" transform="translate(548.698 281.951) rotate(13)" fill="#e8bbb8"/>
    <path id="Pfad_138" data-name="Pfad 138" d="M1022.849,11096.3c-3-4-43.841,5.63-80.052-6s-60.039-44.53-64.792-40.527,25.579,40.4,61.79,52.035S1025.851,11100.3,1022.849,11096.3Z" transform="translate(-378.969 -10751.529)" fill="#633422"/>
    <path id="Pfad_139" data-name="Pfad 139" d="M1057.462,11117.46c4.809-4.968-81.331-5.284-139.727-19.447s-88.994-41.009-93.856-37.2,16.435,42.488,74.831,56.651S1052.653,11122.428,1057.462,11117.46Z" transform="translate(-378.969 -10751.529)" fill="#5d403a"/>
    <path id="Pfad_140" data-name="Pfad 140" d="M1235.616,11097.52c25.137,8.592,43.731,37.915.308,77.329s-80.167,63.327-243.7,60.772-248.172-10.211-397.54-77.319-257.657-185.075-199.932-191.113,165.333,137.234,344.829,182.979,320.807,39.232,414.677,15.145S1235.616,11097.52,1235.616,11097.52Z" transform="translate(-378.969 -10744.529)" fill="#5062a2" opacity="0.7"/>
    <path id="Pfad_141" data-name="Pfad 141" d="M922.158,11155.261c-34.135,7.663-199.877,1.415-301.7-64.532s-108.673-119.819-87.31-203.414,150.078-155.327,172.763-130.966-9.985,39.243-40.869,78.021-82.666,104.957-59.678,161.384,51.669,41.334,128.179,70.593c30.889,31.619,105.425,62.048,105.425,62.048C900.262,11151.434,922.158,11155.261,922.158,11155.261Z" transform="translate(-378.969 -10751.529)" fill="#546ac0" opacity="0.7"/>
    <path id="Pfad_142" data-name="Pfad 142" d="M817.719,10950.373c120.516-7.662,269.3,27.951,408.166,75.09s167.391,55.8,207.738,130.037-69.751,184.449-41.533,182.078,166.029-96.367,136.539-188.554-84.367-122.368-254.5-180.192-268.79-78.86-424.6-63.07-154.935,74.07-146.184,111.8C703.342,11017.562,697.2,10958.035,817.719,10950.373Z" transform="translate(-378.969 -10751.529)" fill="#2b3772" opacity="0.7"/>
    <path id="Pfad_143" data-name="Pfad 143" d="M1230.016,11086.906s73.6,41.461,87.306,68.187c32.872,64.09-94.741,76.629-109.6,129.108s-36.457,80.113,16.719,54.8,174.621-78.951,177.408-156.974-47.835-94.047-159.528-145.6c-40.209-18.559-94.927-34.961-131.7-36.736C1110.616,10999.7,1199.083,11037.354,1230.016,11086.906Z" transform="translate(-378.969 -10751.529)" fill="#4b5880" opacity="0.7"/>
    <path id="Pfad_144" data-name="Pfad 144" d="M882.86,10999.7c-47.139-4.333-79.165,2.669-66.376-2.36s41.326-25.156,117.532-17.758,178.834,50.733,184.33,62.994-58.343-27.858-117.954-34.667S930,11004.028,882.86,10999.7Z" transform="translate(-378.969 -10751.529)" fill="#9589c7" opacity="0.8"/>
    <path id="Pfad_145" data-name="Pfad 145" d="M586.706,11045.107c-7.145,0-53.875-23.6-59.591-64.827s21.435-95.742,28.58-95.742-5.716,54.519,0,95.742S593.851,11045.107,586.706,11045.107Z" transform="translate(-378.969 -10751.529)" fill="#a15498" opacity="0.9"/>
    <path id="Pfad_146" data-name="Pfad 146" d="M893.937,11216.812s75.3,15.938,152.242,10.992,156.913-35.587,154.44-40.671-87.388,15.39-164.333,20.336S893.937,11216.812,893.937,11216.812Z" transform="translate(-378.969 -10751.529)" fill="#597afa" opacity="0.8"/>
    <path id="Pfad_147" data-name="Pfad 147" d="M487.5,11068c-2.2,5.5,12.366,39.99,31.328,56.068s42.32,13.74,44.518,8.244-16.763-14.15-35.725-30.229S489.7,11062.5,487.5,11068Z" transform="translate(-378.969 -10751.529)" fill="#7e5081" opacity="0.8"/>
    <path id="Pfad_148" data-name="Pfad 148" d="M1158.081,11074.458c12.683-8.13,62.855,38.287,53.66,53.334s-109.272,43.984-111.548,30.65,72.2-16.261,81.781-36.913S1145.4,11082.588,1158.081,11074.458Z" transform="translate(-378.969 -10751.529)" fill="#7f2d77" opacity="0.8"/>
    <path id="Pfad_149" data-name="Pfad 149" d="M1317.413,11106.5c10.305-1.236,70.487,23.016,67.052,62.382s-70.487,93.845-80.792,95.082,36.137-50.769,39.572-90.135S1307.108,11107.738,1317.413,11106.5Z" transform="translate(-378.969 -10751.529)" fill="#6a7dc2" opacity="0.9"/>
  </g>
</svg>
