<svg xmlns="http://www.w3.org/2000/svg" xmlns:xlink="http://www.w3.org/1999/xlink" width="633" height="536" viewBox="0 0 633 536">
  <defs>
    <clipPath id="clip-NGC613">
      <rect width="633" height="536"/>
    </clipPath>
  </defs>
  <g id="NGC613" clip-path="url(#clip-NGC613)">
    <ellipse id="Ellipse_29" data-name="Ellipse 29" cx="150" cy="77" rx="150" ry="77" transform="translate(164.423 319.754) rotate(-45)" fill="#a891a5" opacity="0.7"/>
    <path id="Pfad_72" data-name="Pfad 72" d="M934.449,7620.159s-39.342,99.2-108.534,106.389-143.639,7.388-168.233-77.638,59-282.647,86.508-264.708-45.639,165.164-33.088,235.957,59.4,57.752,90.893,52.57,120.969-76.374,120.969-76.374Z" transform="translate(-653.21 -7294.703)" fill="#8081bb" opacity="0.7"/>
    <path id="Pfad_73" data-name="Pfad 73" d="M1023.212,7490.543s35.886-58.315,65.153-65.232,88.1-20.461,105.809,60.257,2.222,179.881-34.991,262.614-122.883,100.137-127.262,65.979,64.255-110.721,91.691-188.963,37.318-90.835,16.345-122.687-100.235-4.72-100.235-4.72Z" transform="translate(-653.21 -7294.703)" fill="#484965" opacity="0.6"/>
    <path id="Pfad_74" data-name="Pfad 74" d="M925.393,7623.065l-8.053-5.237s-44.1,55.833-88.035,73.248-81.725-10.365-87.7-3.588,19.634,33.886,56.211,33.886,62.885-10.8,92.09-37.474S925.393,7623.065,925.393,7623.065Z" transform="translate(-653.21 -7294.703)" fill="#afc3f6" opacity="0.9"/>
    <path id="Pfad_71" data-name="Pfad 71" d="M918.73,7622.178c6.219,5.182,46.643-12.568,77.219-47.161s50.98-86.9,45.088-91.212-54.935,28.115-85.511,62.708S912.51,7617,918.73,7622.178Z" transform="translate(-653.21 -7294.703)" fill="#cc9181" opacity="0.8"/>
    <circle id="Ellipse_28" data-name="Ellipse 28" cx="15" cy="15" r="15" transform="translate(308.79 250.297)" fill="#d8c4e6"/>
    <path id="Pfad_75" data-name="Pfad 75" d="M1023.033,7295.585c-14.511-11.4-120.513,89.962-163.2,176.869S834.771,7658.7,834.771,7658.7l25.064-15.911c-5.829-34.184,8.9-77.46,35.724-145.658S1037.544,7306.987,1023.033,7295.585Z" transform="translate(-653.21 -7294.703)" fill="#6575b0" opacity="0.6"/>
    <path id="Pfad_76" data-name="Pfad 76" d="M940.138,7403.7c-2.093-7.749-29.6-2.591-53.42,30.8s-37.175,98.593-35.082,106.342,21.328-41.062,43.454-75.346S942.231,7411.447,940.138,7403.7Z" transform="translate(-653.21 -7294.703)" fill="#798ed1" opacity="0.8"/>
    <path id="Pfad_78" data-name="Pfad 78" d="M1105.061,7487.269c1.87-20.055,1.988-41.583,9.537-44.885,5.661-2.359,79.326-.235,44.891,75.968s-81.873,153.278-200.323,222.475-233.11,71.695-257.824,67.86,74.082-34.534,158.968-83.2,119.39-52.034,180.576-111.468S1103.19,7507.324,1105.061,7487.269Z" transform="translate(-653.21 -7294.703)" fill="#6c7ab7" opacity="0.7"/>
    <path id="Pfad_77" data-name="Pfad 77" d="M1049.724,7466.334c21.313-9.736,64.068-50.352,92.128-33.639s29.286,35.879,7.973,89.545-87.705,113.312-105.185,122.971,27.788-49.572,48.311-83.541,34.429-67.72,28.6-90.03-42.824,17.084-62.757,13.021S1028.411,7476.071,1049.724,7466.334Z" transform="translate(-653.21 -7294.703)" fill="#91b3f2" opacity="0.7"/>
    <path id="Pfad_79" data-name="Pfad 79" d="M978.17,7524.165s-4.871-91.122,50.6-129.473,147.658-59.141,210.263-16.882,49.441,170.212,31.494,178.6-25.228-127.657-82.921-156.275-123.983,14.352-139.033,31.494-33.382,63.925-33.382,63.925C1015.209,7495.527,999.932,7504.84,978.17,7524.165Z" transform="translate(-653.21 -7294.703)" fill="#6c7096" opacity="0.7"/>
    <path id="Pfad_80" data-name="Pfad 80" d="M757.764,7696.629c2.607,2.146,47.149,18.17,80.346,8.587s51.366-45.693,48.76-47.84-25.99,29.67-59.186,39.253S755.158,7694.482,757.764,7696.629Z" transform="translate(-653.21 -7294.703)" fill="#e191d0" opacity="0.8"/>
    <path id="Pfad_81" data-name="Pfad 81" d="M1085.794,7453.946c.375-3.924,36.407-35.129,61.124-11.209s36.41,97.055,35.114,102.437-19.136-62.191-43.853-86.111S1085.419,7457.87,1085.794,7453.946Z" transform="translate(-653.21 -7294.703)" fill="#b174be" opacity="0.8"/>
    <path id="Pfad_82" data-name="Pfad 82" d="M1169.575,7388.307c29.8,5.481,76.085,22.359,62.032,23.157s-76.078-17.524-118.243-19.967S1139.775,7382.825,1169.575,7388.307Z" transform="translate(-653.21 -7311.703)" fill="#89539e" opacity="0.8"/>
    <ellipse id="Ellipse_30" data-name="Ellipse 30" cx="4.5" cy="5" rx="4.5" ry="5" transform="translate(285.79 96.297)" fill="#b585cf"/>
    <path id="Pfad_83" data-name="Pfad 83" d="M979.931,7583.618c-8.571,10.664-33.262,30.783-44.125,33.274s-1.041-16.579,16-27.243S988.5,7572.954,979.931,7583.618Z" transform="translate(-659.21 -7294.82)" fill="#b46441" opacity="0.9"/>
  </g>
</svg>
