<svg xmlns="http://www.w3.org/2000/svg" xmlns:xlink="http://www.w3.org/1999/xlink" width="566" height="400" viewBox="0 0 566 400">
  <defs>
    <clipPath id="clip-NGC7098">
      <rect width="566" height="400"/>
    </clipPath>
  </defs>
  <g id="NGC7098" clip-path="url(#clip-NGC7098)">
    <ellipse id="Ellipse_62" data-name="Ellipse 62" cx="177" cy="97" rx="177" ry="97" transform="matrix(0.875, 0.485, -0.485, 0.875, 169.574, 20.34)" fill="#868eb6" opacity="0.8"/>
    <ellipse id="Ellipse_61" data-name="Ellipse 61" cx="126.5" cy="70" rx="126.5" ry="70" transform="matrix(0.875, 0.485, -0.485, 0.875, 203.242, 68.823)" fill="#d7cec7" opacity="0.8"/>
    <circle id="Ellipse_60" data-name="Ellipse 60" cx="14.5" cy="14.5" r="14.5" transform="translate(262.413 177.366)" fill="#fdfef9"/>
    <path id="Pfad_177" data-name="Pfad 177" d="M863.4,14464.428l-3.962-16.037s45.578-16.5,116.629,5.618,104.844,32.439,157.6,76.521,58.594,61.266,53.411,99.807-54.663,63.174-64.17,60.711-8.385-9.676-8.385-9.676c-14.967,14.123-44.193,19.405-44.193,19.405s15.39,13.847,5.575,17.426-101.89,14.994-181.209-18.113-84.047-55.816-118.065-107.7-24.184-61.338-17.1-92.226,39.312-32.464,45.439-31.326,20.954,14.4,20.954,14.4c14.342-14.028,37.48-18.811,37.48-18.811l-28.612-65.362s-88.105,7.96-121.069,65.362-23.427,90.961,13.993,165.475,91.057,110.115,135.688,132.58,89.064,36.322,181.778,23,165.389-35.072,189.078-76.28,41.051-97.733,0-172.321-72.134-91.333-164.205-126.031-215.25-14.889-235.263-11.787c-1.381.214,1.013-.9,0,0C824.275,14408.243,863.4,14464.428,863.4,14464.428Z" transform="translate(-693.587 -14390.634)" fill="#505f7e" opacity="0.8"/>
    <path id="Pfad_178" data-name="Pfad 178" d="M755.725,14633.576c-1.658,4.041,27.98,45.009,89.4,73.968s154.62,45.909,156.278,41.868-88.226-29.075-149.646-58.034S757.384,14629.535,755.725,14633.576Z" transform="translate(-693.587 -14377.694)" fill="#a589c3"/>
    <path id="Pfad_179" data-name="Pfad 179" d="M1141.2,14461.619c5.6-1.451,75.548,41.453,99.9,93.27s3.109,112.545-2.487,114,4.456-56.377-19.9-108.193S1135.606,14463.07,1141.2,14461.619Z" transform="translate(-703.587 -14392.76)" fill="#7f8dcc" opacity="0.8"/>
    <circle id="Ellipse_63" data-name="Ellipse 63" cx="11" cy="11" r="11" transform="translate(53.413 71.366)" fill="#daebf5"/>
    <path id="Pfad_180" data-name="Pfad 180" d="M1207.517,14647.963c1.562,4.079-24.873,49.861-65.964,72.9s-96.836,23.329-98.4,19.25,51.06-12.528,92.15-35.565S1205.955,14643.884,1207.517,14647.963Z" transform="translate(-693.587 -14390.634)" fill="#6663cc"/>
    <path id="Pfad_181" data-name="Pfad 181" d="M826.99,14434.6c0-3.523,44.355-28.5,99.9-21.141s122.287,47.049,122.287,50.572-66.74-29.121-122.287-36.479S826.99,14438.127,826.99,14434.6Z" transform="translate(-693.587 -14390.634)" fill="#9a6bb9" opacity="0.73"/>
    <path id="Pfad_182" data-name="Pfad 182" d="M980.048,14494.8c2.87-3.428,54.447,13.313,87.052,41.135s39.62,33.4,43.366,70.152-6.457,36.191-13.074,2.869-11.062-32.823-40.4-61.362S977.178,14498.232,980.048,14494.8Z" transform="translate(-693.587 -14390.634)" fill="#4c3f37"/>
  </g>
</svg>
