<svg xmlns="http://www.w3.org/2000/svg" xmlns:xlink="http://www.w3.org/1999/xlink" width="857" height="329" viewBox="0 0 857 329">
  <defs>
    <clipPath id="clip-NGCCrab">
      <rect width="857" height="329"/>
    </clipPath>
  </defs>
  <g id="NGCCrab" clip-path="url(#clip-NGCCrab)">
    <path id="Pfad_162" data-name="Pfad 162" d="M498.4,10073.227c-12.789-5.674,39.706-33.926,128.8-73.1s96.6-34.831,227.566-83.595,171.706-69.3,296.3-111.461,196.557-67.114,202.077-57.194-64.719,47.1-180,96.872-157.429,57.709-281.125,102.228-115.257,44.284-213.661,75.847S511.192,10078.9,498.4,10073.227Z" transform="translate(-496.496 -9745.707)" fill="#9187ac" opacity="0.6"/>
    <path id="Pfad_160" data-name="Pfad 160" d="M50,0A50.022,50.022,0,0,1,87.59,17.03c7.652,8.621,250.545,11.195,250.545,23.925,0,13.2-244.145,20.488-252.7,29.637C76.51,80.139,66.417,89.305,52,89.305c-15.243,0-33.269-7.195-42.634-18.18-7.249-8.5-255.905-9.032-255.905-21.4,0-9.8,249.358-18.669,254.366-26.6A49.859,49.859,0,0,1,50,0Z" transform="translate(398.418 127.409) rotate(-20)" fill="#d4c0c1" opacity="0.7"/>
    <circle id="Ellipse_56" data-name="Ellipse 56" cx="16" cy="16" r="16" transform="translate(441.504 129.293)" fill="#fcf5e2"/>
    <path id="Pfad_161" data-name="Pfad 161" d="M646.058,10017.188l237.959-78.054,194.127-75.049,166.418-75.061-185.43,66.8-180.618,68.295Z" transform="translate(-496.496 -9745.707)" fill="#a4695b" opacity="0.8"/>
    <path id="Pfad_163" data-name="Pfad 163" d="M997.672,9904.442c3.09,1.951,88.621-27.48,148.948-52.685s95.45-46.181,92.36-48.132-44.392,15.123-104.719,40.327S994.583,9902.491,997.672,9904.442Z" transform="translate(-496.496 -9745.707)" fill="#d7c8f1"/>
    <circle id="Ellipse_57" data-name="Ellipse 57" cx="7.5" cy="7.5" r="7.5" transform="translate(286.504 234.293)" fill="#ffda8f"/>
    <path id="Pfad_164" data-name="Pfad 164" d="M630.608,10029.924c-6.161,7.269-74.383,20.694-51.765,5.58s134.38-66.428,141.439-66.774-87.384,43.814-110,58.929S636.769,10022.655,630.608,10029.924Z" transform="translate(-496.496 -9745.707)" fill="#aca5d1"/>
  </g>
</svg>
