<svg xmlns="http://www.w3.org/2000/svg" xmlns:xlink="http://www.w3.org/1999/xlink" width="633" height="841" viewBox="0 0 633 841">
  <defs>
    <clipPath id="clip-PencilNebula">
      <rect width="633" height="841"/>
    </clipPath>
  </defs>
  <g id="PencilNebula" clip-path="url(#clip-PencilNebula)">
    <path id="Pfad_2" data-name="Pfad 2" d="M745.762,1359.867c-4.221,31.2,14.871,116.348,14.871,116.348l10.5,79.606,33.242,106.725s22.526,70.151,37.616,144.071,22.745,151.609,22.745,151.609l17.5,129.251s11.347-74.51,24.359-55.264,22.461,158.933,27.691,132.246-6.77-238.994-6.77-238.994l-1.978-69.809s67.578-128.431,90.1-232.914,24.494-171.022,0-185.018-82.668,123.346-97.977,105.85S984.842,1387.9,954.4,1367.74s-158.506,95.176-158.506,95.176-5.844-85.727-18.377-111.489S749.983,1328.67,745.762,1359.867Z" transform="translate(-745.153 -1327.452)" fill="#265385" opacity="0.6"/>
    <path id="Pfad_1" data-name="Pfad 1" d="M780.825,1390.135s-13.033,63.724-3.882,127.218,26.45,73.624,40.485,126.756,4.875,42.628,15.658,85.771,9.656,50.021,18.714,84.314,6.769,57.935,17.52,52.858,0-81.626,0-81.626-18.814-90.759-36.234-154.99S812.7,1588.577,799.639,1528.5,780.825,1390.135,780.825,1390.135Z" transform="translate(-745.153 -1327.452)" fill="#ce5179"/>
    <path id="Pfad_3" data-name="Pfad 3" d="M1131.849,1808.8c36.506,33.646,28.431,115.91,51.142,170.922s39.7,49.123,39.7,49.123l-39.7-176.3s-28.094-157.968-47.777-219.371-30.954-26.244-30.954-26.244,19.683,103.629,5.383,123.817-62.581-43.067-62.581-43.067l-10.094,157.463S1095.343,1775.158,1131.849,1808.8Z" transform="translate(-745.153 -1327.452)" fill="#394d7e" opacity="0.7"/>
    <path id="Pfad_4" data-name="Pfad 4" d="M847.818,1593.4c-2.289-36.632,2.389-84.812,2.389-84.812.4.8,15.529,13.538,15.529,13.538l19.112-42.207,7.565,39.818,20.705-80.033s-13.737,107.607-15.529,181.967,17.918,107.11,8.362,115.471-46.587-82.024-46.587-82.024S850.108,1630.037,847.818,1593.4Z" transform="translate(-745.153 -1327.452)" fill="#9c3b4f" opacity="0.7"/>
    <path id="Pfad_5" data-name="Pfad 5" d="M921.9,1605.431c0,37.011-26.4,180.524-37.269,277.45s-6.212,110.255-6.212,110.255a908.437,908.437,0,0,1-4.659-116.467c1.553-64.574,10.87-141.831,10.87-141.831S921.9,1568.42,921.9,1605.431Z" transform="translate(-745.153 -1327.452)" fill="#7c669d" opacity="0.9"/>
    <path id="Pfad_6" data-name="Pfad 6" d="M1162.341,1971.657s68.845,7.247,122.679,17.6,95.5,30.928,92.656,23.811-23.293-45.551-77.127-55.9S1162.341,1971.657,1162.341,1971.657Z" transform="translate(-745.153 -1327.452)" fill="#924164" opacity="0.8"/>
    <path id="Pfad_7" data-name="Pfad 7" d="M1132.839,1926.37c12.164,7.247,102.491,13.458,162.537-15.529s77.645-100.421,77.645-100.421-56.94,43.481-116.985,72.469S1120.675,1919.123,1132.839,1926.37Z" transform="translate(-745.153 -1327.452)" fill="#863242" opacity="0.9"/>
    <path id="Pfad_8" data-name="Pfad 8" d="M960.5,1628.937c-15.645,14.973-33.111,54.789-50.878,152.457s-23.552,150.566-20.188,238.214,33.646,112.378,33.646,112.378V1922.707L972.2,1721.5S976.145,1613.964,960.5,1628.937Z" transform="translate(-745.153 -1327.452)" fill="#3c88ca" opacity="0.8"/>
    <path id="Pfad_9" data-name="Pfad 9" d="M772.726,1334.455c-2.237.587-6.606,78.332,11.312,176.76s40.678,123.565,60.361,216.95,18.371,156.589,18.371,156.589,8.7-54.744-8.748-148.716-40.71-126.774-61.034-227.17S774.964,1333.868,772.726,1334.455Z" transform="translate(-742.153 -1334.452)" fill="#f192d8"/>
    <path id="Pfad_10" data-name="Pfad 10" d="M868.461,1428.929c6.341,2.459,7.635,99.645,13.976,166.678s11.388,101.456,11.388,101.456-19.023-31.834-25.364-98.868S862.12,1426.47,868.461,1428.929Z" transform="translate(-745.153 -1327.452)" fill="#d96da7"/>
  </g>
</svg>
