<svg xmlns="http://www.w3.org/2000/svg" xmlns:xlink="http://www.w3.org/1999/xlink" width="1076" height="809" viewBox="0 0 1076 809">
  <defs>
    <clipPath id="clip-PinwheelGalaxy">
      <rect width="1076" height="809"/>
    </clipPath>
  </defs>
  <g id="PinwheelGalaxy" clip-path="url(#clip-PinwheelGalaxy)">
    <ellipse id="Ellipse_25" data-name="Ellipse 25" cx="66" cy="65.5" rx="66" ry="65.5" transform="translate(509.996 285.019)" fill="#816b54" opacity="0.8"/>
    <circle id="Ellipse_24" data-name="Ellipse 24" cx="30" cy="30" r="30" transform="translate(546.996 327.019)" fill="#cba97e" opacity="0.9"/>
    <circle id="Ellipse_23" data-name="Ellipse 23" cx="12.5" cy="12.5" r="12.5" transform="translate(563.996 346.019)" fill="#e7e1d3"/>
    <path id="Pfad_60" data-name="Pfad 60" d="M1030.417,5166.281s17.137-10.361,23.866,12,10.48,48.3,3.049,77.456-24.2,67.717-102.027,67.717-160.382-7.754-209.092-77.753-51.929-162.093-18.533-217.9,199.541-159.222,278.153-171.942,276.555,5.234,256.593,62.626S986.406,4956,924.725,5020.8s-66.542,120.341-74.028,157.488-31.625,75.466,19.321,101.641,88.629,23.137,128.823,9.624,39.441-66.87,39.441-66.87S1048.9,5192.617,1030.417,5166.281Z" transform="translate(-400.004 -4851.981)" fill="#2c3f57" opacity="0.5"/>
    <path id="Pfad_57" data-name="Pfad 57" d="M977.786,5137.678s1.5-17.217,25.068-24.853,51.733-13.667,95.1,27.816,82.52,99.15,72.411,173.8c-6.452,38.071,1.469,153.738-29.592,228.9-30.761,74.431-109.5,94.983-151.382,110.625-84.271,31.474-337.025-68.949-388.437-87.336s-25.294-47.985,28.28-61.551,265.289,87.139,339.571,85.466c27.448-.832,89.271-33.109,115.616-85.466,38.192-75.9,26.461-209.2,27.517-242.531,1.784-56.3-42.1-94.735-66.433-115.191s-33.666.833-33.666.833C994.289,5136.809,977.786,5137.678,977.786,5137.678Z" transform="translate(-400.004 -4851.981)" fill="#6376bb" opacity="0.8"/>
    <path id="Pfad_53" data-name="Pfad 53" d="M1030.417,5166.281s17.137-10.361,23.866,12,10.48,48.3,3.049,77.456-24.2,67.717-102.027,67.717-160.382-7.754-209.092-77.753-1.591-149.683,31.8-205.491,106.04-95.6,170.685-125.416,107.326-18.591,87.892,6.161-103.945,28.045-165.626,92.846-82.732,100.623-81.1,166.354,29.2,73.591,80.149,99.766,88.629,23.137,128.823,9.624,39.441-66.87,39.441-66.87S1048.9,5192.617,1030.417,5166.281Z" transform="translate(-400.004 -4851.981)" fill="#496a89" opacity="0.9"/>
    <path id="Pfad_54" data-name="Pfad 54" d="M1030.417,5166.281s17.137-10.361,23.866,12,10.48,48.3,3.049,77.456-24.2,67.717-102.027,67.717-173.009-2.5-247.294-43.533-82.775-118.33-84.9-173.514,2.122-111.782,0-148.57,7.075-92.681,38.2-34.667,11.5,185.007,22.173,249.206,135.583,81.371,186.529,107.545,88.629,23.137,128.823,9.624,39.441-66.87,39.441-66.87S1048.9,5192.617,1030.417,5166.281Z" transform="translate(-400.004 -4851.981)" fill="#3b549e" opacity="0.8"/>
    <path id="Pfad_55" data-name="Pfad 55" d="M977.786,5137.678s1.5-17.217,25.068-24.853,51.733-13.667,95.1,27.816,76.028,84.608,63.2,160.3-31.379,103.874-115.65,135.348-170.021,8.937-221.433-9.451-36.648-43.427,16.926-56.993,129.772,27.016,197.37,2.729,71.786-53.72,73.57-110.023-42.1-94.735-66.433-115.191-33.666.833-33.666.833C994.289,5136.809,977.786,5137.678,977.786,5137.678Z" transform="translate(-400.004 -4851.981)" fill="#474d59" opacity="0.8"/>
    <path id="Pfad_56" data-name="Pfad 56" d="M1274.356,5369.965c23.332,48.648,34.4,143.236,55.837,118.6s54.293-103.728,15.356-191.947-96.967-114.191-171.1-160.929S1049,5109.672,1049,5109.672c21.72,3.156,77.526,47.032,103.762,102.993,0,0,57.339,35.687,84.1,81.309S1251.025,5321.317,1274.356,5369.965Z" transform="translate(-400.004 -4851.981)" fill="#6185b7" opacity="0.8"/>
    <path id="Pfad_58" data-name="Pfad 58" d="M1468.287,5328.131c-17.467-53.233-110.626-191.308-110.626-191.308s-93.367-138.075-207.112-150.551-254.523,49.075-247.868,100.645,156.581-37.638,263.672,6.654,114.369,68.206,179.663,132.252,50.946,98.356,81.514,123.934S1485.755,5381.364,1468.287,5328.131Z" transform="translate(-400.004 -4851.981)" fill="#435273" opacity="0.7"/>
    <path id="Pfad_59" data-name="Pfad 59" d="M1019.907,5051.672c7.875-9.966,76.533-39,137.316-29.531s103.356,66.813,95.482,76.779-66.2-27.439-126.981-36.913S1012.032,5061.638,1019.907,5051.672Z" transform="translate(-400.004 -4851.981)" fill="#332923" opacity="0.7"/>
    <path id="Pfad_61" data-name="Pfad 61" d="M431.759,5368.792c25.1,15.134,76.41,49.559,72.842,63.945s-62.014,8.736-87.115-6.4-16.857-39.752-13.289-54.139S406.659,5353.658,431.759,5368.792Z" transform="translate(-400.004 -4851.981)" fill="#4d85be" opacity="0.9"/>
    <path id="Pfad_62" data-name="Pfad 62" d="M637.6,4910.433c-4.706,2.725-7,10.094-5.7,18.331s6.193,17.339,10.9,14.615,9.227-17.278,7.927-25.514S642.306,4907.708,637.6,4910.433Z" transform="translate(-400.004 -4851.981)" fill="#cd70c1" opacity="0.8"/>
    <path id="Pfad_63" data-name="Pfad 63" d="M625.176,5517.261c1.286,6.669,34.727,34.489,69.93,46.684s72.169,8.765,70.883,2.1-40.824-16.578-76.027-28.772S623.89,5510.592,625.176,5517.261Z" transform="translate(-400.004 -4851.981)" fill="#99345c" opacity="0.8"/>
    <path id="Pfad_64" data-name="Pfad 64" d="M859.648,5500.01c9.105,7.117,36.42,9,36.42,2.512s-27.315-27.839-36.42-28.467S850.543,5492.894,859.648,5500.01Z" transform="translate(-400.004 -4851.981)" fill="#93328f" opacity="0.8"/>
    <path id="Pfad_65" data-name="Pfad 65" d="M1034.634,5137c6.07-4.4,80.062,16.689,104.656,77.929s-15.908,163.264-15.908,163.264,21.664-90.721-2.93-151.961S1028.564,5141.4,1034.634,5137Z" transform="translate(-400.004 -4851.981)" fill="#3e1a1a" opacity="0.8"/>
    <path id="Pfad_66" data-name="Pfad 66" d="M995.2,5300.29c-.725,1.691-45.566,13.927-80.827,10.949s-60.218-22.863-60.218-22.863,33.329,8.936,68.59,11.915S995.928,5298.6,995.2,5300.29Z" transform="translate(-400.004 -4851.981)" fill="#3e1c1a" opacity="0.9"/>
    <path id="Pfad_67" data-name="Pfad 67" d="M858.623,5081.377c-5.481-10.13,46.446-46.353,96.618-72.765,46.018-24.226,132.478-42.346,155.084-14.717,5.024,7.954-131.524,11.533-158.317,34.349S866.667,5096.042,858.623,5081.377Z" transform="translate(-375.004 -4904.212)" fill="#402a2c" opacity="0.8"/>
    <path id="Pfad_68" data-name="Pfad 68" d="M1123.281,5130.958c15.317,29.227,136.913,138.164,136.913,138.164s35.322,29.227,20.005,0-42.043-82.366-81.273-116.907S1107.964,5101.731,1123.281,5130.958Z" transform="translate(-400.004 -4851.981)" fill="#331c1c" opacity="0.7"/>
    <path id="Pfad_69" data-name="Pfad 69" d="M967.216,5285.726c-6.132,2.886-69.731-1.082-100.99-32.22s-32.221-97.747-26.089-100.632,19.357,57.951,50.615,89.09S973.348,5282.84,967.216,5285.726Z" transform="translate(-400.004 -4851.981)" fill="#4e312b" opacity="0.9"/>
    <path id="Pfad_70" data-name="Pfad 70" d="M1143.814,5402.041c5.8,1.932-11.11,107.635-41.219,153.362s-70.442,60.3-72.132,56.031,35.261-27.372,65.37-73.1S1138.017,5400.108,1143.814,5402.041Z" transform="translate(-400.004 -4851.981)" fill="#81223a" opacity="0.8"/>
    <circle id="Ellipse_26" data-name="Ellipse 26" cx="10" cy="10" r="10" transform="translate(441.996 128.019)" fill="#ab4a91"/>
    <circle id="Ellipse_27" data-name="Ellipse 27" cx="7.5" cy="7.5" r="7.5" transform="translate(536.996 85.019)" fill="#ab4a91"/>
  </g>
</svg>
