<svg xmlns="http://www.w3.org/2000/svg" xmlns:xlink="http://www.w3.org/1999/xlink" width="1242" height="646" viewBox="0 0 1242 646">
  <defs>
    <clipPath id="clip-SoulNebula">
      <rect width="1242" height="646"/>
    </clipPath>
  </defs>
  <g id="SoulNebula" clip-path="url(#clip-SoulNebula)">
    <path id="Pfad_38" data-name="Pfad 38" d="M389.63,5254.788c-37.4-79.639-3.245-84.852,14.683-115.974s42.772,8.511,57.029-8.512-9.6-36.377,0-59.583,26.711-7.916,38.415-33.238-22.029-48.9,8.4-68.053,55.007-31.871,121.719,0,93.643,104.428,145.13,127.485,66.137,13.261,60.817-35.256-72.435-102.308-48.478-138.192,77.1-10.755,156.261,3.715,64.5,35.3,160.379,54.165,132.615,32.461,223.157,21.28,77.884-58.343,139.01-66,146.891,24.606,147.905,66-118.1,38.09-143.85,99.588,58.306,75.543,40.857,146.4-45.751,91.715-110.654,137.041-67.829,3.139-148.957,44.262-88.207,115.153-175.557,120.23-84.415-69.864-173.843-99.921-110.4-27.171-183.868-20.309-82.139,71.234-164.279,27.451S427.029,5334.427,389.63,5254.788Z" transform="translate(-372.825 -4905.054)" fill="#7a3138" opacity="0.6"/>
    <path id="Pfad_39" data-name="Pfad 39" d="M894.915,5352.063c53.944,28.494,209.136,27.664,209.136,27.664s-4.15,61.967,18.811,57.541,18.535-49.241,73.032-75.245,105.4,6.639,144.957-28.77,72.478-84.65,13.278-112.867-133.615-11.342-250.078,0-163.491,12.449-215.776,45.368S840.971,5323.569,894.915,5352.063Z" transform="translate(-372.825 -4905.054)" fill="#29181a"/>
    <path id="Pfad_40" data-name="Pfad 40" d="M535.012,5018.336c15.768-15.492,83.82-46.26,151.6-18.156s69.159,33.473,119.506,130.572S892.148,5347.357,888,5388.576s-59.2-35.132-98.482-92.949-17.151-79.948-58.647-138.318-58.37-60.419-107.334-95.163S519.244,5033.828,535.012,5018.336Z" transform="translate(-372.825 -4905.054)" fill="#903343" opacity="0.8"/>
    <path id="Pfad_35" data-name="Pfad 35" d="M1224.938,5019.26c18.811-1.937,92.673,14.385,131.678,40.942s36.2,47.029,13.24,87.971-40.083,51.314-105.083,75.8-149.271,32.847-154.915,22.131,80.056-32.906,132.34-65,70.987-37.636,76.8-63.363-23.45-25.534-46.964-50.154S1206.127,5021.2,1224.938,5019.26Z" transform="translate(-372.825 -4905.054)" fill="#b87088" opacity="0.8"/>
    <path id="Pfad_36" data-name="Pfad 36" d="M843.1,5043.9c-12.342-22.769-31.494-39.367-28.089-56.178s9.576-29.792,41.708-11.065,79.373,50.433,86.821,85.97-33.409,15.534-57.029,56.178-19.577,97.886-37.452,106.4-35.963-38.1-34.047-72.351,34.686-37.4,41.708-64.636S855.44,5066.673,843.1,5043.9Z" transform="translate(-372.825 -4905.054)" fill="#ca758a" opacity="0.9"/>
    <path id="Pfad_37" data-name="Pfad 37" d="M791.123,5106.98c25.183-16.873,28.583-21.153,4.533-43.314s-61.195-45.33-100.732-45.33-17,35.76-57.417,45.33-64.594-8.185-104.257-7.051-45.377-1.963-54.4,11.584,11.272,21.2,18.323,42.6-25.2,34.655,9.882,43.017,97.836,5.415,130.448-9.569-14.354-36.768,0-50.366,57.417-4.029,57.417-4.029-24.05,37.019,0,41.3S765.94,5123.853,791.123,5106.98Z" transform="translate(-372.825 -4905.054)" fill="#cf859e"/>
    <path id="Pfad_41" data-name="Pfad 41" d="M1210.6,5393.116c42.559,5.107,107.249,20.428,170.237,0s54.689,3.831,81.714-81.713,35.537-203.646,26.387-260.463-43.836-24.472-62.988,33.2,8.512,129.806-13.619,197.476-24.472,50.433-74.9,73.2-126.827,17.875-126.827,17.875S1168.04,5388.009,1210.6,5393.116Z" transform="translate(-372.825 -4905.054)" fill="#993d52"/>
    <path id="Pfad_42" data-name="Pfad 42" d="M873.743,5018.336c19.79,11.065,32.983,17.855,35.75,34.305s-4.894,42.56-24.684,31.494-51.709-59.306-54.476-75.755S853.953,5007.271,873.743,5018.336Z" transform="translate(-372.825 -4905.054)" fill="#ffb9ca"/>
  </g>
</svg>
