<svg xmlns="http://www.w3.org/2000/svg" xmlns:xlink="http://www.w3.org/1999/xlink" width="635" height="659" viewBox="0 0 635 659">
  <defs>
    <clipPath id="clip-space-object17">
      <rect width="635" height="659"/>
    </clipPath>
  </defs>
  <g id="space-object17" clip-path="url(#clip-space-object17)">
    <path id="Pfad_31" data-name="Pfad 31" d="M702.469,4197.809c-17.763-25.961,38.714-43.724,80.768-53.44s88.663,51.012,90.484,4.858-75.151-94.887-56.477-157.892,70.9-74.392,131.172-94.128,82.438-12.3,109.917,15.182-22.621,41.295,0,94.735,75.454,66.193,90.484,119.027-2.126,57.388-30.364,92.307-16.548,39.928-82.59,47.367-181.576-17.611-181.576-17.611S720.232,4223.77,702.469,4197.809Z" transform="translate(-575.24 -3740.096)" fill="#a0162c" opacity="0.5"/>
    <path id="Pfad_30" data-name="Pfad 30" d="M1056.512,4336.572c6.984,35.678,5.617,36.74,30.364,50.4s37.955,16.852,68.622,4.251,55.718-25.81,54.048-54.655-21.255-37.651-60.728-60.728-76.821-46.457-97.164-31.578S1049.528,4300.895,1056.512,4336.572Z" transform="translate(-575.24 -3740.096)" fill="#bb363b" opacity="0.7"/>
    <path id="Pfad_28" data-name="Pfad 28" d="M971.394,4226.563c-49.776-12.829-87.236,8.98-158.05,0s-92.959-14.488-136.577-64.521-41.486-79.162-37.894-135.608,32.96-53.428,76.578-67.284,97.894,11.863,97.894,11.863,55.795,15.651,97.1-6.157,23.132-40.282,68.131-81.078,77.742-46.183,111.867-82.1,24.631-61.578,24.631-61.578-78.512,32.329-136.5,78-43.019,81.364-112.038,104.456-99.166-22.665-164.037-12.089-63.631,16.165-95.446,54.394-31.815,98.525-31.815,98.525-.984,82.909,54.693,136.533,55.491,46.375,151.119,65.866,160.758,5.6,208.343-4.2S1021.169,4239.392,971.394,4226.563Z" transform="translate(-575.24 -3740.096)" fill="#d32644" opacity="0.7"/>
    <path id="Pfad_25" data-name="Pfad 25" d="M892.091,4040.265c15.394-3.947,43.618,19.934,56.841,41.052s11.447,39.473-3.947,43.42-44.407-6.513-57.631-27.631S876.7,4044.212,892.091,4040.265Z" transform="translate(-575.24 -3740.096)" fill="#f79fb8"/>
    <path id="Pfad_26" data-name="Pfad 26" d="M796.961,3969.015c17.171,19.737,48.552,49.539,78.946,44.21s18.317-40.263,46.343-65.525,38.129-35.526,65.76-35.526,41.052,35.526,41.052,35.526-10.855-47.96-33.947-58.42-28.618-1.665-58.42,16.579-28.421,49.292-60.789,56.4-68.683-27.976-68.683-27.976S779.79,3949.279,796.961,3969.015Z" transform="translate(-575.24 -3740.096)" fill="#e94d72"/>
    <path id="Pfad_27" data-name="Pfad 27" d="M1021.442,3970.993c-5.769,6.376-16.548,54.2-12.146,72.266s16.245-24.595,29.757,0,24.291,98.379,24.291,98.379,10.475-32.186,6.68-60.728-12.449-37.651-21.862-53.44-9.109,4.4-15.789-9.717S1027.211,3964.617,1021.442,3970.993Z" transform="translate(-575.24 -3740.096)" fill="#e73857"/>
    <path id="Pfad_29" data-name="Pfad 29" d="M1081.562,4377.367c15.592,8.684,28.461-9.968,40.105-29.31s16.5-25.385,6.473-48.058-30.986-48.552-46.578-42.631-15.789,36.315-15.789,66.314S1065.97,4368.683,1081.562,4377.367Z" transform="translate(-575.24 -3740.096)" fill="#ffb1c4" opacity="0.9"/>
    <path id="Pfad_32" data-name="Pfad 32" d="M1085.159,4344.958c-8.525-3.036-9.576-26.276-4.2-38.772s17.167-14.248,25.693-11.211,13.781,10.861,8.408,23.356S1093.685,4347.995,1085.159,4344.958Z" transform="translate(-575.24 -3740.096)" fill="#fff"/>
    <path id="Pfad_33" data-name="Pfad 33" d="M693.147,4233.883c39.473,10.658,106.775,21.907,121.577,15s-29.013-28.618-62.367-42.631-48.552,1.579-71.052-13.421-12.829-49.934-18.947-46.578-5.526,60-5.526,60S653.674,4223.226,693.147,4233.883Z" transform="translate(-575.24 -3740.096)" fill="#f63e58"/>
    <path id="Pfad_34" data-name="Pfad 34" d="M692.24,3949.325c0-4.618,24.631-25.489,60.552-27.827s44.144,17.834,92.893,2.183,98.234-69.28,102.1-64.788-37.876,62.486-86.625,82.755-69.116-.167-108.372-1.677S692.24,3953.943,692.24,3949.325Z" transform="translate(-575.24 -3740.096)" fill="#ec3d5e"/>
  </g>
</svg>
