<svg xmlns="http://www.w3.org/2000/svg" xmlns:xlink="http://www.w3.org/1999/xlink" width="978" height="541" viewBox="0 0 978 541">
  <defs>
    <clipPath id="clip-space-object1">
      <rect width="978" height="541"/>
    </clipPath>
  </defs>
  <g id="space-object1" clip-path="url(#clip-space-object1)">
    <path id="Pfad_90" data-name="Pfad 90" d="M764.056,1705.843s3.914,22.778,17.99,30.815,23.695,3.373,38.311,1.333,7.371-11.285,20.155-9.495,22.279,15.324,30.982,16.657,8.162-5.83,3.831-11.327-24.861-11.577-30.149-21.987-1.249-14.741,8.995-19.655,20.03,3.29,31.981,0,17.76-16.824,17.76-16.824c-8.287-1.208-19.759,4.206-35.083-1.166s-17.49-18.239-32.981-21.487-13.326,2.457-28.983,8.495-22.529,6.5-33.647,15.658-10.827,20.988-10.827,20.988Z" transform="translate(-452.244 -1419.865)" fill="#8f6e7c"/>
    <ellipse id="Ellipse_38" data-name="Ellipse 38" cx="21.5" cy="23" rx="21.5" ry="23" transform="translate(333.756 259.135)" fill="#ceaec5"/>
    <ellipse id="Ellipse_39" data-name="Ellipse 39" cx="10.5" cy="10.5" rx="10.5" ry="10.5" transform="translate(344.756 271.135)" fill="#fefefe"/>
    <path id="Pfad_91" data-name="Pfad 91" d="M903.9,1675.418c55.233,7.74,0,125.482,0,125.482-135.441,191.051-281.325-31.673-281.325-31.673a343.3,343.3,0,0,1-20.187-48.5c-56.488-173.566,83.433-254.556,83.433-254.556,88.28-79.057,292.511-32.94,292.511-32.94,105.409,23.717,344.829,288.592,344.829,288.592-93.551-2.635-243.373-139.7-243.373-139.7C984.917,1516.246,903.9,1503.07,903.9,1503.07c-164.221-30.119-236.526,68.516-236.526,68.516-68.516,122.538,52.7,220.042,52.7,220.042,69.5,56.409,83.01,22.4,122.538,0s38.793-42.2,46.856-67.036S881.99,1693,881.99,1693C897.073,1691.262,903.9,1675.418,903.9,1675.418Z" transform="translate(-452.245 -1419.865)" fill="#14132c"/>
    <path id="Pfad_92" data-name="Pfad 92" d="M903.9,1675.418c55.233,7.74-.048,107.7-.048,107.7-135.441,191.051-263.4-15.984-263.4-15.984-103.526-204.979,66.893-292.353,66.893-292.353,157.3-72.969,298.86,0,298.86,0,99.542,41.637,147.715,94.077,147.715,94.077,11.413,40.4-54.8-10.922-54.8-10.922-98.5-59.391-204.269-77.965-204.269-77.965-164.221-30.119-243.389,93.4-243.389,93.4C597.543,1719.16,713.88,1800.9,713.88,1800.9c69.5,56.409,106.393,18.612,135.86-8.532s31.668-42.936,39.731-67.777S881.99,1693,881.99,1693C897.073,1691.262,903.9,1675.418,903.9,1675.418Z" transform="translate(-452.244 -1419.865)" fill="#736a97"/>
    <path id="Außenbereich" d="M1145.4,1706.988c-7.788,13.736-27.447,64.651-27.447,64.651s5.479,81.574,27.447,112.823,60.423,12.175,60.423,12.175l56.82-12.175s54.439-19.7,63.478-29.22,51.368-38.243,55.959-52.759,13.43-42.379,6.715-78.733-72.113-51.221-94.758-58.441c-10.389-2.528-68.4-31.2-76.033-28.357-18.89,9.182,18.287,44.378,14.669,50.717-4.823,4.154-7.338-3.6-26.852-8.749s-14.165-7.017-29.271,0S1153.187,1693.252,1145.4,1706.988Z" transform="translate(-414.244 -1419.958)" fill="#b99fab" opacity="0.2"/>
    <path id="Nebel_3._Bereich" data-name="Nebel 3. Bereich" d="M1154.539,1713.272s-6.14,6.876,0,26.665,22.949,36.858,41.154,52.035,15.368,10.686,31.668,8.672,21.267-7.434,33.531-16.726,10.711-7.279,20.491-16.726,13.661-6.659,18.628-21.062-2.539-36-2.539-36-43.429-14.25-49-16.038-7.451-3.562-28.563-8.673-15.325-6.962-31.668,0S1162.558,1700.138,1154.539,1713.272Z" transform="translate(-417.058 -1403.423)" fill="#837e69" opacity="0.73"/>
    <path id="Nebel_2._Bereich" data-name="Nebel 2. Bereich" d="M1222.8,1752.957c-14.915-5.821-5.45-8.741-20.652-15.358s-40.157-3.839-40.157-11.11,17.21-15.93,40.157-17.972,29.735,4.575,51.63,9.8,24.668,4.963,35.95,11.11,4.134,6.289,2.6,14.152.551,12.806-8.723,17.3-21.8,0-21.8,0S1237.714,1758.777,1222.8,1752.957Z" transform="translate(-415.244 -1426.413)" fill="#b6a87f" opacity="0.81"/>
    <ellipse id="Nebel_Zenrum" data-name="Nebel Zenrum" cx="12" cy="11" rx="12" ry="11" transform="translate(816.756 298.135)" fill="#fff6f9"/>
    <path id="Pfad_93" data-name="Pfad 93" d="M10.227-2.887c11.306,0,30.715,12.392,30.715,24.116s6.918,35.732-4.387,35.732S0,32.953,0,21.229-1.079-2.887,10.227-2.887Z" transform="translate(947.197 334.132) rotate(83)"/>
    <path id="Pfad_94" data-name="Pfad 94" d="M792.251,1800.352c-128.3-3.129-128.3-137.912-128.3-137.912-3-82.917,72.053-127.89,72.053-127.89,61.7-39.461,159.822-16.555,159.822-16.555,48.339,17.152,0,16.555,0,16.555-50.822-11.738-100.028-4.078-100.028-4.078-75.627,14.814-112.139,72.927-114.269,115.6,0,0-1.6,60.949,40.988,105.219,0,0,21.624,23.239,62.637,25.187,0,0,51.866-6.006,61.967-45.966l30.482,13.273C857.221,1795.04,792.251,1800.352,792.251,1800.352Z" transform="translate(-452.244 -1419.865)" fill="#504469"/>
    <path id="Pfad_95" data-name="Pfad 95" d="M824.458,1737.155c-6.1,15.828-28.368,21.957-28.368,21.957-21.207,5.2-45.6-6.756-45.6-6.756-63.042-34.457-42.951-115.083-42.951-115.083,20.116-41.511,65.491-70.948,65.491-70.948,134.436-57.833,250.269,36.834,250.269,36.834,42.308,44.335,59.254,97.266,59.254,97.266,8.564,48-15.464,95.9-15.464,95.9-41.54,64.5-126.7,110.082-126.7,110.082-82.763,63.572-156.531,53.376-156.531,53.376-95.958-8.4-157.941-43.7-244.692-128.943-74.831-73.525-93.244-203.046-85.162-208.708,25.505-17.868,119.224,197.875,245.891,257.286,107.1,50.231,251.334-54.683,258.695-62.043,21.955-21.955,41.144-34.734,57.694-77.783s-13.674-71.241-63.152-102.317c0,0-66.552-51.3-136.439-20.271,0,0-36.074,2.064-60.813,42.881,0,0-37.221,48.311,6.071,77.271,0,0,17.535,9.078,27.831,10.134,5.055.518,9.278,2.343,20.94-7.7C812.449,1739.437,824.458,1737.155,824.458,1737.155Z" transform="translate(-452.244 -1419.865)" fill="#252351" opacity="0.55"/>
    <path id="Pfad_96" data-name="Pfad 96" d="M824.458,1737.155c-6.1,15.828-28.368,21.957-28.368,21.957-21.207,5.2-45.6-6.756-45.6-6.756-63.042-34.457-32.936-112.6-32.936-112.6,20.116-41.511,63.338-61.931,63.338-61.931,134.436-57.833,242.938,52.924,242.938,52.924,42.308,44.335,43.258,80.538,43.258,80.538,8.564,48-15.451,75.206-15.451,75.206-36.984,57.084-211.334,150.917-219.8,143.3s114.726-78.426,136.682-100.381,47.151-34.009,63.7-77.057-17.935-99.823-67.413-130.9c0,0-82.255-49.324-152.142-18.3,0,0-45.147,14.121-69.886,54.938,0,0-24.119,50.1,19.172,79.057,0,0,17.535,9.078,27.831,10.134,5.055.518,9.278,2.343,20.94-7.7C812.449,1739.437,824.458,1737.155,824.458,1737.155Z" transform="translate(-452.244 -1419.865)" fill="#786988"/>
    <path id="Pfad_97" data-name="Pfad 97" d="M908.521,1702c-7.229-.3-11.134,66.12-49.649,101.439s-73.615,50.387-128.554,29.255-85.545-115.192-89.359-114.406,42.1,103.849,74.1,117.547,83.148,22.742,131.513-10.717S915.75,1702.3,908.521,1702Z" transform="translate(-452.244 -1419.865)" fill="#4a1c2b" opacity="0.8"/>
    <path id="Pfad_98" data-name="Pfad 98" d="M624.236,1614.042c0-4.448,23.426-78.035,67.784-115.909s109.646-40.035,109.646-35.587-57.761,5.721-102.119,43.595S624.236,1618.49,624.236,1614.042Z" transform="translate(-452.244 -1419.865)" fill="#795c61"/>
    <path id="Pfad_99" data-name="Pfad 99" d="M760.043,1751.219c-6.446-1.456-64.94-65.55-34.739-110.135s77.827-76.264,155.806-70.442,110.805,40.888,151.315,88.591,20.973,91.594,15.6,96.97,16.726-51.943-25.166-96.97-76.57-76.957-147.722-81.008-113.665,26.556-143.866,66.982S766.49,1752.675,760.043,1751.219Z" transform="translate(-452.244 -1419.865)" fill="#50353a" opacity="0.8"/>
    <path id="Vereinigungsmenge_2" data-name="Vereinigungsmenge 2" d="M257.974-929.756c-8.991-7.617-5.423-33.49,1.515-44.151-14.694-16.775-35.621-40.58-64.21-65.579C137.007-1090.443-6.452-1161.088.225-1169.522s178.309,96.942,236.581,147.9c15.265,13.349,26.413,23.974,34.434,32.54,10.439-2.829,35-.009,48.766,8.947,15.216,9.9,17.182,15.944,13.1,28.54s-10.63,16.382-29.414,21.842c-10.468,3.043-20.213,5.453-28.6,5.453C268.427-924.3,262.615-925.823,257.974-929.756Z" transform="translate(528.583 1225.066)" fill="#603024" opacity="0.7"/>
    <path id="Pfad_102" data-name="Pfad 102" d="M517.477,1754.48c3.634,7.752,59.8,102.383,126.418,139.629s173.748,40.616,170.114,32.864-94.329-8.085-160.952-45.331S513.843,1746.728,517.477,1754.48Z" transform="translate(-452.244 -1419.865)" fill="#6e5163" opacity="0.8"/>
    <path id="Pfad_103" data-name="Pfad 103" d="M790.588,1606.4c-3.728-1.321,33.305-23.879,72.655-25.169s84.743,20.008,84.743,20.008-53.022-14.271-92.372-12.981S794.316,1607.72,790.588,1606.4Z" transform="translate(-452.244 -1419.865)" fill="#bd64ac" opacity="0.8"/>
    <path id="Pfad_104" data-name="Pfad 104" d="M794.536,1467.643c.391-3.2,62.9-15.856,97.351-12.789s67.337,20.88,67.337,20.88-39.41-12.071-73.862-15.138S794.144,1470.84,794.536,1467.643Z" transform="translate(-452.244 -1419.865)" fill="#b083e2" opacity="0.9"/>
    <path id="Pfad_105" data-name="Pfad 105" d="M1019.942,1798.011c-1.323-2.867-23.677,21.419-57.971,48.987s-84.436,54.4-83.112,57.269,53.837-24.882,88.132-52.45S1021.265,1800.878,1019.942,1798.011Z" transform="translate(-452.244 -1419.865)" fill="#9c4c9e" stroke="#707070" stroke-width="1" opacity="0.8"/>
  </g>
</svg>
