<svg xmlns="http://www.w3.org/2000/svg" xmlns:xlink="http://www.w3.org/1999/xlink" width="783" height="655" viewBox="0 0 783 655">
  <defs>
    <clipPath id="clip-space-object14">
      <rect width="783" height="655"/>
    </clipPath>
  </defs>
  <g id="space-object14" clip-path="url(#clip-space-object14)">
    <circle id="Ellipse_1" data-name="Ellipse 1" cx="192.5" cy="192.5" r="192.5" transform="translate(210.296 121.718)" fill="#014256" opacity="0.6"/>
    <path id="Pfad_13" data-name="Pfad 13" d="M839.688,863.988c114.371,0,167.726.792,268.362-53.884s126.2-80.623,191.7-197.107,55.53-178.495,61.869-268.829-20.074-75.543-48.6-44.375-14.263,75.279-65.506,169.047-48.865,131.276-139.464,206.026-104.069,59.166-222.931,92.976S632.605,782.106,632.605,810.1,725.317,863.988,839.688,863.988Z" transform="translate(-579.704 -209.282)" fill="#d25625" opacity="0.7"/>
    <path id="Pfad_14" data-name="Pfad 14" d="M587.438,621.775C608.3,539.629,599.588,508.461,654,418.919s42.79-94.032,151.086-155.312,128.37-69.468,244.061-79.241,251.721,3.7,218.7,40.149S1086.126,257.532,955.114,319.6s-122.031,55.2-211.309,153.2S598,711.581,598,711.581,566.571,703.921,587.438,621.775Z" transform="translate(-579.704 -181.282)" fill="#ad4f10" opacity="0.7"/>
    <path id="Pfad_11" data-name="Pfad 11" d="M1207.362,248.551c-42.262-6.6-180.14-19.282-288.436,27.47S788.036,342.484,757.4,437.308s-.913,140.356,38.971,218.012,137.35,90.862,137.35,90.862,131.539,24.829,225.043-30.64,111.729-104.6,148.972-191.234,18.754-157.425,0-155.312-15.644,93.423-60.811,169.23-47.22,94.641-119.858,134-110.937,35.394-184.895,17.961-83.2-26.414-110.937-87.693-40.026-100.471-10.179-165.184,48.479-70,112.663-105.654,102.366-43.6,145.642-50.639S1249.624,255.155,1207.362,248.551Z" transform="translate(-579.704 -209.282)" fill="#a89082" opacity="0.7"/>
    <path id="Pfad_12" data-name="Pfad 12" d="M581.5,692.645C567.891,682.485,634.128,549.2,691.222,459.393s37.385-83.3,118.658-125.972,111.343-59.126,206.432-44.7,133.084,18.083,173.923,102.4,25.6,136.741-10.565,234.877-38.183,117.688-167.2,174.376S666.489,868.1,663.59,852.751,884.651,806.832,1000.87,738.97s95.7-78.428,127.6-157.669,31.9-103.013,0-159.294-60.345-65.831-127.6-76.4-77.615-1.829-141.414,34.134-51.811,48.967-113.781,120.283S595.118,702.8,581.5,692.645Z" transform="translate(-579.704 -209.282)" fill="#8b726e" opacity="0.7"/>
    <path id="Pfad_15" data-name="Pfad 15" d="M636.364,556.717c-11.988-2.641-22.35-56.688,29.258-125.972S830.808,276.936,842.8,279.577,765.181,372.025,713.573,441.31,648.352,559.358,636.364,556.717Z" transform="translate(-579.704 -209.282)" fill="#b06430"/>
    <path id="Pfad_16" data-name="Pfad 16" d="M1297.7,466.2c8.452,3.7-.264,123.087-73.958,213.422s-212.365,151.614-220.817,147.916,113.314-72.373,187.008-162.708S1289.246,462.5,1297.7,466.2Z" transform="translate(-579.704 -209.282)" fill="#e19057"/>
  </g>
</svg>
