<svg xmlns="http://www.w3.org/2000/svg" xmlns:xlink="http://www.w3.org/1999/xlink" width="431" height="459" viewBox="0 0 431 459">
  <defs>
    <clipPath id="clip-space-object16">
      <rect width="431" height="459"/>
    </clipPath>
  </defs>
  <g id="space-object16" clip-path="url(#clip-space-object16)">
    <path id="Pfad_19" data-name="Pfad 19" d="M831.843,2934.548c4.7-10.685,18.811-38.729,18.811-38.729s-85.48-14.109-84.1-66.393,48.877-59.194,89.542-110.371,64.124-88.928,106.726-93.631,42.361-6.485,101.284,33.9,60.2,60.273,100.8,126.943,35.613,100.969,24.105,148.277-70.135,40.952-70.135,40.952-31.928,64.539-79.578,87.386-66.416,24.826-111.02,4-56-31.872-80.106-64.958S827.14,2945.233,831.843,2934.548Z" transform="translate(-766.54 -2623.023)" fill="#70151a" opacity="0.7"/>
    <path id="Pfad_20" data-name="Pfad 20" d="M924.973,2856.261c6.3-16.495,28.961-9.318,44.826-19.139s4.533-17.5,18.635-20.146,31.227-13.6,37.775,9.57,8.814,63.965-11.584,83.1-47.6,6.8-70.009-6.548S918.678,2872.756,924.973,2856.261Z" transform="translate(-766.54 -2623.023)"/>
    <path id="Pfad_17" data-name="Pfad 17" d="M832.8,2800.222c20.947-3.844,45.078-18.258,71.52-32.738S938.57,2742.3,938.57,2742.3s36.263,25.183,45.833,25.183,3.9-14.984-7.555-25.183-38.278-15.613-38.278-15.613,19.708-13.526,17.442-27.5-26.508-28.4-26.508-28.4-38.152,1.259-39.285,7.555,31.227,2.644,34.752,17.628-20.65,42.307-20.65,42.307-25.39-7.118-46.337,4.029-31.154,26.834-37.45,40.559S811.855,2804.066,832.8,2800.222Z" transform="translate(-766.54 -2623.023)" fill="#981e1b" opacity="0.8"/>
    <path id="Pfad_18" data-name="Pfad 18" d="M1081.484,2744.694c4.659.756,13.977-6.8,18.635,0s-8.94,17.628,0,27.2,35.76,11.081,35.76,11.081,22.917,37.774,31.731,79.074,10.325,76.682,3.526,86.126-20.9-23.42-30.723-48.351-2.141-29.338-8.562-51.374-5.414-20.4-17.125-36.767-20.346-15.126-29.716-28.708-7.764-25.62-7.764-25.62S1076.825,2743.938,1081.484,2744.694Z" transform="translate(-766.54 -2623.023)" fill="#c5523d" opacity="0.8"/>
    <path id="Pfad_21" data-name="Pfad 21" d="M929.507,2959.514c-7.051-19.769-11.836-55.78-20.65-51.373s3.022,54.647-14.606,69-56.914-20.146-55.906-11.584,44.322,29.087,59.936,45.833-12.214,12.717,2.518,21.153,56.41,12.592,56.41,12.592,53.388-16.746,56.914-33.745-42.811-34.249-42.811-34.249l-34.249,10.073S936.558,2979.283,929.507,2959.514Z" transform="translate(-766.54 -2623.023)" fill="#38070a" opacity="0.8"/>
    <path id="Pfad_22" data-name="Pfad 22" d="M1023.441,2993.136c14.606,12.969,49.863,16.621,49.863,16.621s-30.849-39.663-17.628-55.4,70.513-7.555,70.513-7.555,4.659-25.183-18.132-39.79-43.337-22.7-66.631-9.979-26.546,60.849-26.546,60.849S1008.835,2980.167,1023.441,2993.136Z" transform="translate(-766.54 -2623.023)" fill="#bf1c49" opacity="0.9"/>
    <path id="Pfad_23" data-name="Pfad 23" d="M989.257,2931.69c-1.146,3.928-43.191-6.057-70.464-20.952s-34.211-10.149-38.631-38.631,2.783-57.292,20.952-75.3,49.271-8.839,51.726,3.274-34.539,21.443-41.9,45.178-7.14,28.155,12.44,49.762S990.4,2927.761,989.257,2931.69Z" transform="translate(-766.54 -2623.023)" fill="#962541"/>
    <path id="Pfad_24" data-name="Pfad 24" d="M999,2639.174c-20.625,3.928-42.232,8.021-37.321,38.631s26.354,72.351,56.964,83.809,62.53-21.771,65.476-37.976-43.705-11.458-53.69-26.845,21.607-20.3,13.75-34.7S1019.625,2635.246,999,2639.174Z" transform="translate(-766.54 -2623.023)" fill="#270609"/>
  </g>
</svg>
