<svg xmlns="http://www.w3.org/2000/svg" xmlns:xlink="http://www.w3.org/1999/xlink" width="664" height="537" viewBox="0 0 664 537">
  <defs>
    <clipPath id="clip-Meteroid5">
      <rect width="664" height="537"/>
    </clipPath>
  </defs>
  <g id="Meteroid5" clip-path="url(#clip-Meteroid5)">
    <path id="Pfad_43" data-name="Pfad 43" d="M2855.618,5365.537c25.635-8.9,57.864,0,57.864,0l21.96-4.183s21.7-18.562,48.452-18.125,39.651,14.292,58.561,19.869,94.4,88.267,137.615,136.834,23.932,21.634,35.228,57.437,9.956,53.416,9.956,85.772-6.126,14.359-9.956,43.652.781,23.778-5.361,73.519-22.209,60.4-56.671,124.063-43.01,79.9-67.9,112.541-18.447,12.1-31.657,18.032-32.033,11.833-34.462,11.487-5.744,4.978-27.57,0-35.036-7.275-59.734-19.911-18.188-16.848-39.057-30.633-28.718-4.978-44.417-24.506-4.4-23.549-18.38-53.607-37.525-66.626-37.525-66.626-28.91-32.738-42.12-75.816-1.723-44.514-10.721-96.494-27.952-65.765-25.272-111.427,22.209-43.269,35.993-71.221,4.021-21.826,19.146-40.588,19.847-16.945,41.354-34.462S2829.984,5374.438,2855.618,5365.537Z" transform="translate(-4460.119 4510.401) rotate(-104)" fill="#959595"/>
    <path id="Pfad_56" data-name="Pfad 56" d="M2946.5,5610.981c-15.565-58.871,20.294-56.485,33.7-111.05a1050.8,1050.8,0,0,0,19.911-107.208s23.439-35.2,42.35-29.626,94.4,88.267,137.615,136.834,23.932,21.634,35.228,57.437,9.956,53.416,9.956,85.772-6.452,13.844-9.956,43.652-.571,97.266-14.547,67.207-94.732,17.17-158.3-18.584S2962.063,5669.853,2946.5,5610.981Z" transform="translate(-4460.119 4510.401) rotate(-104)" fill="#c9c9c9"/>
    <path id="Pfad_44" data-name="Pfad 44" d="M3130.909,5711.416c-11.416-5.4-18.562-12.985-24.749-31.023s-5.4-22.831,0-41.131,8.889-32.069,21.612-32.069,23.268,8.366,29.281,32.069-5.229,62.744-5.229,62.744S3142.325,5716.819,3130.909,5711.416Z" transform="translate(-4460.119 4510.401) rotate(-104)" fill="#a1a1a1"/>
    <path id="Pfad_48" data-name="Pfad 48" d="M2927.571,5808.487c-16.557,12.066-19.909,24.8-17.7,50.141s12.937,45.717,33.785,44.511,34.12-24.87,41.829-48.533,3.754-31.171-10.457-43.706S2944.128,5796.421,2927.571,5808.487Z" transform="translate(-4460.119 4510.401) rotate(-104)" fill="#a8a8a8"/>
    <path id="Pfad_49" data-name="Pfad 49" d="M2927.571,5808.487c-16.557,12.066,13.072,18.635,15.284,43.974s-9.05,34.456,11.8,33.249,23.126-7.441,30.835-31.1,3.754-31.171-10.457-43.706S2944.128,5796.421,2927.571,5808.487Z" transform="translate(-4460.119 4510.401) rotate(-104)" fill="#777" opacity="0.81"/>
    <path id="Pfad_50" data-name="Pfad 50" d="M2948.754,5821.357c5.964,1.858.294,8.729,7.508,8.312,20.848-1.207,32.981-6.234,18.77-18.77-4.818-4.25-12.049-9.177-20.5-10.181C2938.946,5798.866,2924.118,5806.115,2948.754,5821.357Z" transform="translate(-4460.119 4510.401) rotate(-104)" fill="#141414" opacity="0.84"/>
    <path id="Pfad_51" data-name="Pfad 51" d="M2881.854,5686.585c-16.557-5.926-30.762,5.229-45.315,18.126s-12.9,33.463-12.9,33.463-3.834,13.159,0,26.492,4.793,16.819,15.337,26.84,11.5,16.122,26.841,13.246,25.271-5.665,34.509-24.749,7.059-28.235,2.44-51.589S2898.411,5692.511,2881.854,5686.585Z" transform="translate(-4460.119 4510.401) rotate(-104)" fill="#827f7f"/>
    <path id="Pfad_52" data-name="Pfad 52" d="M2873.837,5696.346c-11.155,9.76-14.989,3.137-18.126,9.063s-17.865,35.642-7.32,45.663,3.834,14.641,28.932,25.1,30.065-24.4,25.446-47.755S2884.991,5686.585,2873.837,5696.346Z" transform="translate(-4460.119 4510.401) rotate(-104)" fill="#403d3d" opacity="0.9"/>
    <path id="Pfad_55" data-name="Pfad 55" d="M2934.406,5376.381c18.568,0,33.584,3.754,40.489,19.842s3.017,33.852-12.87,44.51-35.327,9.251-50.678-1.876-16.758-25.138-10.993-40.757S2915.837,5376.381,2934.406,5376.381Z" transform="translate(-4460.119 4510.401) rotate(-104)" fill="#d4d4d4"/>
    <path id="Pfad_57" data-name="Pfad 57" d="M2830.09,5666.5c25.635-8.9-17.452,45.622-12.857,81.537s31.237,62.123,31.237,62.123,17.664,87.182,44.417,87.618,49.1,63.408,68.006,68.985,62.693,58.161,60.478,59.673-7.867,4.978-29.693,0-35.036-7.275-59.734-19.911-18.188-16.848-39.057-30.633-28.718-4.978-44.417-24.506-4.4-23.549-18.38-53.607-37.525-66.626-37.525-66.626-28.91-32.738-42.12-75.816-1.723-44.514-10.721-96.494-27.952-65.765-25.272-111.427,22.209-43.269,35.993-71.221,12.925,115.932,34.432,98.415S2804.455,5675.4,2830.09,5666.5Z" transform="translate(-4460.119 4510.401) rotate(-104)" opacity="0.76"/>
  </g>
</svg>
