<svg xmlns="http://www.w3.org/2000/svg" xmlns:xlink="http://www.w3.org/1999/xlink" width="330" height="477" viewBox="0 0 330 477">
  <defs>
    <clipPath id="clip-Meteroid8">
      <rect width="330" height="477"/>
    </clipPath>
  </defs>
  <g id="Meteroid8" clip-path="url(#clip-Meteroid8)">
    <path id="Pfad_73" data-name="Pfad 73" d="M2841.9,7565.384h-14.644l-37.776,18.039s-15.2,9.073-21.117,43.294l-2.546,93.591s19.016,46.414,14.007,80.274c0,0,23.13,26.788,21.435,53.269,0,0,37.692,36.574,34.7,66.956l46.318,89.825s11.037,17.085,53.8,20.692l47.963,3.82s37.3,6.693,61.543-17.62,35.444-79.632,35.444-79.632l4.669-99.586c9.814-56.29-46.811-105.327-46.811-105.327-36.063-16.6-79.733-65.938-79.733-65.938l-19.51-11.808s-41.793-24.817-61.305-69.041C2878.334,7586.191,2864.829,7553.524,2841.9,7565.384Z" transform="translate(4285.181 -7010.449) rotate(50)" fill="#8f8f8f"/>
    <path id="Pfad_74" data-name="Pfad 74" d="M3052.4,8009.6l5.033-52.532s-34.7-43.211-45.6-76.111-9.39-51,2.01-55.489,29.381,12.758,45.658,33.45,19.452,49.317,19.452,49.317l2.084,29.572S3073.265,7982.375,3052.4,8009.6Z" transform="translate(4285.181 -7010.449) rotate(50)" fill="#272727"/>
    <path id="Pfad_87" data-name="Pfad 87" d="M2871.614,7836.368c-3.228,1.524-30.486,20.086-23.313,49.854s37.659,32.279,37.659,32.279c24.211-5.145,28.327-26.248,24.741-46.781S2874.841,7834.843,2871.614,7836.368Z" transform="translate(4285.181 -7010.449) rotate(50)" fill="#c3c3c3"/>
    <path id="Pfad_75" data-name="Pfad 75" d="M2959.386,7667.188c12.851,14.469,37.594,36.665,37.594,36.665,13.116,25.625,24.039,68.4,9.9,66.24s-53.479-49.091-66.594-74.715S2959.386,7667.188,2959.386,7667.188Z" transform="translate(4285.181 -7010.449) rotate(50)" fill="#2a2a2a"/>
    <path id="Pfad_77" data-name="Pfad 77" d="M2851.244,7587.292c-4.734-6.652-10.979,18.652-9.305,34.609s16,29.222,16,29.222,21.73,26.224,42.578,27.6,40.813-22.1,40.813-22.1-43.984-26.437-62.581-69.532C2878.747,7587.087,2852.642,7585.764,2851.244,7587.292Z" transform="translate(4285.181 -7010.449) rotate(50)" fill="#cdcdcd"/>
    <path id="Pfad_76" data-name="Pfad 76" d="M2851.244,7587.292c-4.734-6.652-10.979,18.652-9.305,34.609s16,29.222,16,29.222S2855.978,7593.944,2851.244,7587.292Z" transform="translate(4285.181 -7010.449) rotate(50)" fill="#1a1a1a"/>
    <path id="Pfad_78" data-name="Pfad 78" d="M2871.614,7836.368c-3.228,1.524-30.486,20.086-23.313,49.854s37.659,32.279,37.659,32.279-19.009-14.257-22.6-34.79S2874.841,7834.843,2871.614,7836.368Z" transform="translate(4285.181 -7010.449) rotate(50)" fill="#737172"/>
    <path id="Pfad_81" data-name="Pfad 81" d="M2838.268,7636.1c-11.712-1.159-18.305,20.647-13.813,33.326s20.068,16.229,31.781,17.388c0,0-19.589-8.454-24.081-21.133S2838.268,7636.1,2838.268,7636.1Z" transform="translate(4285.181 -7010.449) rotate(50)" fill="#525250"/>
    <path id="Pfad_82" data-name="Pfad 82" d="M2789.481,7583.423s-15.2,9.073-21.117,43.294l-2.546,93.591s19.016,46.414,14.007,80.274c0,0,23.13,26.788,21.435,53.269,0,0,37.692,36.574,34.7,66.956a357.523,357.523,0,0,0-1.009-73.969c-6.335-35.6-21.2-26.337-37.978-54.317l-7.491-93.494,11.848-87.248Z" transform="translate(4285.181 -7010.449) rotate(50)" fill="#fff" opacity="0.5"/>
    <path id="Pfad_84" data-name="Pfad 84" d="M3007.5,8016.093c.565-7.692,11.051-26.246,11.051-26.246l13.311-9.8s11.553,1.915,7.66,12.056-15.227,22.51-23.232,28.507S3006.938,8023.785,3007.5,8016.093Z" transform="translate(4285.181 -7010.449) rotate(50)" fill="#202020"/>
  </g>
</svg>
