<svg xmlns="http://www.w3.org/2000/svg" xmlns:xlink="http://www.w3.org/1999/xlink" width="536" height="373" viewBox="0 0 536 373">
  <defs>
    <clipPath id="clip-Meteroid10">
      <rect width="536" height="373"/>
    </clipPath>
  </defs>
  <g id="Meteroid10" clip-path="url(#clip-Meteroid10)">
    <path id="Pfad_111" data-name="Pfad 111" d="M2729.517,10162.989l7.806-41.954s9.414-4.141,21.244-19.387,26.078-41.6,26.078-41.6-5.529-18.532,9.229-31.461,49.8-20.252,49.8-20.252,11.953,5.977,32.687-3.414,50.25-34.152,50.25-34.152,8.043,3.294,13.653,0-.481-8.536,8.788-13.171,7.318-8.66,28.784-5.367,18.6,13.9,57.08,18.538,96.84,0,96.84,0c35.062,38.443,94.157,56.593,94.157,56.593l20.978,20s10.611,32.2,15.124,64.4,2.927,64.4,2.927,64.4l-100.132,90.868s-25.979,23.54-46.835,37.078-9.678,12.8-40.535,17.074-82.893,0-82.893,0-24.089-17.929-45.495-23.905a76.975,76.975,0,0,0-40.125,0l-9.757-22.93-125.746-29.272-33.174-40Z" transform="translate(-2729.517 -9951.031)" fill="#a9a9a9"/>
    <path id="Pfad_112" data-name="Pfad 112" d="M3220.771,10018.423l20.978,20s10.611,32.2,15.124,64.4,2.927,64.4,2.927,64.4l-100.132,90.868s-25.979,23.54-46.835,37.078-9.678,12.806-40.535,17.074-82.893,0-82.893,0-24.09-17.929-45.495-23.9a76.962,76.962,0,0,0-40.125,0l-9.757-22.931-125.746-29.271v-37.519l23.333,27.98h9.1l2.443-19.319,22.427,2.441s13.657,11.326,37.306,19.32,57.291,12.657,57.291,12.657l23.725-53.239s7.951-1,12.97,3.774,7.105,15.323,7.105,15.323,27.257,3.841,30.2,19.541-18.427,43.26-18.427,43.26l15.988,35.751h19.1l2.665-19.1h44.856l11.547-9.771,18.208,2.443-8.882,26.425,17.044-6.047s18.128-8.707,33.975-31.088,29.411-58.437,29.411-58.437-18.715-8.69-39.868-8.026-44.744,10.681-44.744,10.681l-29.156-2.654-27.135-15.82,27.135-22.517,33.339-1.443,8.882-9.237,48.134,3.174,34.641,13.568,11.418,4.071,18.094-22.534,48.786-3.9-3.905-76.8-13.775,10.451-9.771,8.217,11.1,13.99-21.317-7.105-40.633,13.323s-35.754-16.423-36.644-20.208,33.087,5.067,33.087,5.067l51.517-20.166,26.279-6.595-.332-6.521Z" transform="translate(-2724.373 -9942.09)" fill="#383838" opacity="0.8"/>
    <path id="Pfad_114" data-name="Pfad 114" d="M3041.209,10074.541l22.228,7.795-15.3,12.412s-37.11,10.885-38.842,5.832S3041.209,10074.541,3041.209,10074.541Z" transform="translate(-2692.402 -9934.643)" fill="#1c1c1c"/>
    <path id="Pfad_118" data-name="Pfad 118" d="M10.194,0C15.824,0,30.3,9.982,30.3,15.612s-11.451,10.25-17.081,10.25S0,15.824,0,10.194A10.194,10.194,0,0,1,10.194,0Z" transform="translate(204.431 120.029)" fill="#d3d3d3"/>
    <ellipse id="Ellipse_17" data-name="Ellipse 17" cx="10.194" cy="10.194" rx="10.194" ry="10.194" transform="translate(204.431 120.029)" fill="#1e1e1e"/>
    <path id="Pfad_119" data-name="Pfad 119" d="M3137.606,10208.405c16.981-7.131,52.539-44.938,53.289-52.162s-24.018,15.1-49.536,16.136-47.942-15.1-52.539-12.008,34.15,24.393,34.15,24.393S3120.625,10215.535,3137.606,10208.405Z" transform="translate(-2681.892 -9923.992)" fill="#242424"/>
    <path id="Pfad_120" data-name="Pfad 120" d="M2755.208,10101.648c11.831-15.246,26.078-41.6,26.078-41.6s-5.529-18.532,9.229-31.461,49.8-20.252,49.8-20.252,11.953,5.977,32.687-3.414,50.25-34.152,50.25-34.152,8.043,3.294,13.653,0-.481-8.536,8.788-13.171,7.318-8.66,28.784-5.367,18.6,13.9,57.08,18.538,96.84,0,96.84,0-68.616,11.009-111,24.437c-8.981,2.845-80.489-3.3-80.489-3.3l-8.53,13.017s24.952,8.6,27.735,22.385-16.6,32.742-16.6,32.742-20.647-15.324-55.856-2.582C2800.479,10087.57,2749.92,10108.464,2755.208,10101.648Z" transform="translate(-2726.158 -9951.031)" fill="#fff" opacity="0.6"/>
    <path id="Pfad_121" data-name="Pfad 121" d="M3056.105,10262.542c0-4.5,13.405-42.932,23.128-57.243s15.762,0,15.762,0,4.207,9.3-5.516,23.606S3056.105,10267.045,3056.105,10262.542Z" transform="translate(-2686.183 -9918.137)" fill="#2a2a2a"/>
  </g>
</svg>
