<svg xmlns="http://www.w3.org/2000/svg" xmlns:xlink="http://www.w3.org/1999/xlink" width="775" height="550" viewBox="0 0 775 550">
  <defs>
    <clipPath id="clip-Meteroid2">
      <rect width="775" height="550"/>
    </clipPath>
  </defs>
  <g id="Meteroid2" clip-path="url(#clip-Meteroid2)">
    <path id="Umriss" d="M2775.364,1322.518c20.2-6.026,40.778,9.932,40.778,9.932l84.046,9.029s104.825,7.806,161.558,209.221l43.028,55.715s31.645,12.977,51.457,26.615c18.662,12.847,34.156,33.766,33.358,175.041,0,0,17.478,46.215-6.388,84.459,0,0,8.946,63.635-51.456,122.786,0,0-60.254,27.383-74.182,47.58s-203.2,20.609-249.2-13.581-100.423-110.648-116.868-127.549-30.491-84.951-30.491-84.951l4.968-52.521-27.059-64.321s-6.036-69.714,15.259-93.686c0,0,32.755-75.223,37.971-156.5,0,0,5.879-55.181,26.615-95.106S2775.364,1322.518,2775.364,1322.518Z" transform="matrix(0.588, -0.809, 0.809, 0.588, -2697.041, 1597.114)" fill="#a8a8a8"/>
    <path id="Krater_4" data-name="Krater 4" d="M2805.522,1475.541c-1.118-21.247,5.063-22.707,10.064-27.832l9.94,7.331s15.065-7.517,16.649,2.112-1.149,31.808-10.313,36.406S2806.64,1496.788,2805.522,1475.541Z" transform="matrix(0.588, -0.809, 0.809, 0.588, -2697.041, 1597.114)" fill="#868686"/>
    <ellipse id="Krater_6" data-name="Krater 6" cx="13.5" cy="7.5" rx="13.5" ry="7.5" transform="matrix(0.588, -0.809, 0.809, 0.588, 195.124, 163.24)" fill="#cfcfcf"/>
    <path id="Krater_6_-_Schatten" data-name="Krater 6 - Schatten" d="M2873.5,1484.781c14.686.083,13.044,19.638,13.044,19.638-.718-8.553-24.21-10.125-26.049.139C2860.5,1504.558,2858.814,1484.7,2873.5,1484.781Z" transform="matrix(0.588, -0.809, 0.809, 0.588, -2697.041, 1597.114)" fill="#868686"/>
    <path id="Krater_7" data-name="Krater 7" d="M2930.579,1844.472l38.083,18.37-2.464,22.626c-41.668,25.314-73.255-9.185-73.255-9.185C2884.039,1866.034,2930.579,1844.472,2930.579,1844.472Z" transform="matrix(0.588, -0.809, 0.809, 0.588, -2697.041, 1597.114)" fill="#868686"/>
    <path id="Krater_8" data-name="Krater 8" d="M2903.554,1400.524s2.612-4.865,10.955-5.294,22.148,11.561,19.41,17.792-15.292,17.866-30.364,7.132C2903.554,1420.154,2900.816,1406.755,2903.554,1400.524Z" transform="matrix(0.588, -0.809, 0.809, 0.588, -2697.041, 1597.114)" fill="#868686"/>
    <path id="Krater_10" data-name="Krater 10" d="M2971.607,1680.232c24.086,14.169,55.865-11.35,61.265-21.314,0,0-17.682-25.089-37.944-19.187S2971.607,1680.232,2971.607,1680.232Z" transform="matrix(0.588, -0.809, 0.809, 0.588, -2697.041, 1597.114)" fill="#505050"/>
    <path id="Krater_11" data-name="Krater 11" d="M3081.615,1826.647c-2.112-13.357,6.337-33.8,6.337-33.8,28.2-11.928,33.548,14.661,33.548,14.661,3.6,13.668,2.858,29.572,2.858,29.572-6.275,9.692-23.732,12.053-27.957,9.195S3083.727,1840,3081.615,1826.647Z" transform="matrix(0.588, -0.809, 0.809, 0.588, -2697.041, 1597.114)" fill="#cfcfcf"/>
    <path id="Krater_11_-_Schatten" data-name="Krater 11 - Schatten" d="M3088.012,1792.894c26.411-12.033,33.113,13.012,33.113,13.012s-7.68,13.7-17.066,20.648a39.422,39.422,0,0,1-20.478,7.161C3076.343,1818.863,3088.012,1792.894,3088.012,1792.894Z" transform="matrix(0.588, -0.809, 0.809, 0.588, -2697.041, 1597.114)" fill="#868686"/>
    <path id="Schatten_unten" data-name="Schatten unten" d="M2638.927,1720.089s4.772-19.737,7.421-1.662,37.4,55.973,37.4,55.973c62.135,14.66,42.8,61.057,42.8,61.057s-16.986,7.368-18.737,9.732-1.131,13.568-1.131,13.568,34.8-5.98,45.712,6.542l32.305,36.182-10.661,12.438c20.869,32.129,1.454,76.038,1.454,76.038l18.6,42.244c25.346,15.743,82.787,20.728,82.787,20.728,98.058,3.862,193.327-55.471,215.246-55.442,35.757.047,39.614,17.834,39.614,17.834-16.094,10.192-54.5,23.84-74.18,47.58-8.658,14.632-42.51,13.668-85.3,14.1-26.685.667-45.512-1.045-68.282-3.011-78.7-7.211-96.387-25.181-96.387-25.181-46.724-35.739-99.654-110.142-116.094-127.042s-30.49-84.95-30.49-84.95l4.96-52.52Z" transform="matrix(0.588, -0.809, 0.809, 0.588, -2697.041, 1597.114)" opacity="0.75"/>
    <path id="Schatten_mitte" data-name="Schatten mitte" d="M2679.69,1656.066s46.189,31.423,107.521,27.259,93.418-49.217,137.808-43.917,41.441,55.608,39.752,65.118-102.978,50.353-139.7,63.982-105.249-10.506-141.594-38.617S2653.756,1667.708,2679.69,1656.066Z" transform="matrix(0.588, -0.809, 0.809, 0.588, -2697.041, 1597.114)" opacity="0.22"/>
    <path id="Licht_oben" data-name="Licht oben" d="M2669.1,1585.284l141.873-53.207c80.616-13.3,154.582,5.045,154.582,5.045s34.719,21.792,38.668,15.28,3.136-46.372,3.136-46.372l25.059-35.722c-58.678-125.154-133.6-128.983-133.6-128.983l-82.672-8.875c-23.439-16.421-40.34-10.066-40.34-10.066-49.527,20.69-63.95,67.35-63.95,67.35-17.417,42.28-20.334,88.384-20.334,88.384-1.253,13.85-2.581,22.222-2.581,22.222C2680.981,1551.636,2669.1,1585.284,2669.1,1585.284Z" transform="matrix(0.588, -0.809, 0.809, 0.588, -2697.041, 1597.114)" fill="#fff" opacity="0.47"/>
  </g>
</svg>
